G04*
G04 #@! TF.GenerationSoftware,Altium Limited,Altium Designer,22.1.2 (22)*
G04*
G04 Layer_Physical_Order=2*
G04 Layer_Color=16711680*
%FSLAX25Y25*%
%MOIN*%
G70*
G04*
G04 #@! TF.SameCoordinates,9DFE0AF1-0A3A-4F83-9DC9-4DC15A37C804*
G04*
G04*
G04 #@! TF.FilePolarity,Positive*
G04*
G01*
G75*
%ADD14C,0.01000*%
%ADD18C,0.05400*%
%ADD19R,0.05400X0.05400*%
%ADD20C,0.08000*%
%ADD22C,0.08300*%
%ADD23R,0.08300X0.08300*%
%ADD27C,0.06000*%
%ADD30C,0.07100*%
%ADD31R,0.05400X0.05400*%
%ADD34C,0.06500*%
%ADD35R,0.06000X0.06000*%
%ADD36C,0.07200*%
%ADD37R,0.06000X0.06000*%
%ADD38C,0.14500*%
%ADD39C,0.05512*%
%ADD40C,0.05906*%
%ADD41R,0.05906X0.05906*%
%ADD42C,0.04724*%
%ADD43C,0.05000*%
G36*
X509842Y591378D02*
Y1181D01*
X509842Y1181D01*
X63779D01*
Y589898D01*
X63887Y590159D01*
X509488Y591731D01*
X509842Y591378D01*
D02*
G37*
%LPC*%
G36*
X362016Y576597D02*
X361917D01*
Y572547D01*
X365967D01*
Y572646D01*
X365657Y573804D01*
X365058Y574841D01*
X364211Y575688D01*
X363174Y576287D01*
X362016Y576597D01*
D02*
G37*
G36*
X360917D02*
X360818D01*
X359661Y576287D01*
X358624Y575688D01*
X357776Y574841D01*
X357177Y573804D01*
X356867Y572646D01*
Y572547D01*
X360917D01*
Y576597D01*
D02*
G37*
G36*
X307135Y576203D02*
X307035D01*
Y572154D01*
X311085D01*
Y572253D01*
X310775Y573410D01*
X310176Y574447D01*
X309329Y575294D01*
X308292Y575893D01*
X307135Y576203D01*
D02*
G37*
G36*
X306035D02*
X305936D01*
X304779Y575893D01*
X303742Y575294D01*
X302894Y574447D01*
X302295Y573410D01*
X301985Y572253D01*
Y572154D01*
X306035D01*
Y576203D01*
D02*
G37*
G36*
X195166Y575810D02*
X195067D01*
Y571760D01*
X199117D01*
Y571859D01*
X198807Y573016D01*
X198208Y574054D01*
X197361Y574901D01*
X196323Y575500D01*
X195166Y575810D01*
D02*
G37*
G36*
X194067D02*
X193968D01*
X192811Y575500D01*
X191773Y574901D01*
X190926Y574054D01*
X190327Y573016D01*
X190017Y571859D01*
Y571760D01*
X194067D01*
Y575810D01*
D02*
G37*
G36*
X382016Y576597D02*
X380818D01*
X379661Y576287D01*
X378624Y575688D01*
X377776Y574841D01*
X377177Y573804D01*
X376867Y572646D01*
Y571448D01*
X377177Y570291D01*
X377776Y569253D01*
X378624Y568406D01*
X379661Y567807D01*
X380818Y567497D01*
X382016D01*
X383173Y567807D01*
X384211Y568406D01*
X385058Y569253D01*
X385657Y570291D01*
X385967Y571448D01*
Y572646D01*
X385657Y573804D01*
X385058Y574841D01*
X384211Y575688D01*
X383173Y576287D01*
X382016Y576597D01*
D02*
G37*
G36*
X365967Y571547D02*
X361917D01*
Y567497D01*
X362016D01*
X363174Y567807D01*
X364211Y568406D01*
X365058Y569253D01*
X365657Y570291D01*
X365967Y571448D01*
Y571547D01*
D02*
G37*
G36*
X360917D02*
X356867D01*
Y571448D01*
X357177Y570291D01*
X357776Y569253D01*
X358624Y568406D01*
X359661Y567807D01*
X360818Y567497D01*
X360917D01*
Y571547D01*
D02*
G37*
G36*
X437371Y576597D02*
X436173D01*
X435015Y576287D01*
X433978Y575688D01*
X433131Y574841D01*
X432532Y573804D01*
X432222Y572646D01*
Y571448D01*
X432532Y570291D01*
X433131Y569253D01*
X433978Y568406D01*
X435015Y567807D01*
X436173Y567497D01*
X437371D01*
X438528Y567807D01*
X439565Y568406D01*
X440413Y569253D01*
X441012Y570291D01*
X441322Y571448D01*
Y572646D01*
X441012Y573804D01*
X440413Y574841D01*
X439565Y575688D01*
X438528Y576287D01*
X437371Y576597D01*
D02*
G37*
G36*
X417371D02*
X416173D01*
X415015Y576287D01*
X413978Y575688D01*
X413131Y574841D01*
X412532Y573804D01*
X412222Y572646D01*
Y571448D01*
X412532Y570291D01*
X413131Y569253D01*
X413978Y568406D01*
X415015Y567807D01*
X416173Y567497D01*
X417371D01*
X418528Y567807D01*
X419565Y568406D01*
X420413Y569253D01*
X421012Y570291D01*
X421322Y571448D01*
Y572646D01*
X421012Y573804D01*
X420413Y574841D01*
X419565Y575688D01*
X418528Y576287D01*
X417371Y576597D01*
D02*
G37*
G36*
X311085Y571153D02*
X307035D01*
Y567103D01*
X307135D01*
X308292Y567414D01*
X309329Y568013D01*
X310176Y568860D01*
X310775Y569897D01*
X311085Y571055D01*
Y571153D01*
D02*
G37*
G36*
X306035D02*
X301985D01*
Y571055D01*
X302295Y569897D01*
X302894Y568860D01*
X303742Y568013D01*
X304779Y567414D01*
X305936Y567103D01*
X306035D01*
Y571153D01*
D02*
G37*
G36*
X215166Y575810D02*
X213968D01*
X212811Y575500D01*
X211773Y574901D01*
X210926Y574054D01*
X210327Y573016D01*
X210017Y571859D01*
Y570661D01*
X210327Y569504D01*
X210926Y568466D01*
X211773Y567619D01*
X212811Y567020D01*
X213968Y566710D01*
X215166D01*
X216323Y567020D01*
X217361Y567619D01*
X218208Y568466D01*
X218807Y569504D01*
X219117Y570661D01*
Y571859D01*
X218807Y573016D01*
X218208Y574054D01*
X217361Y574901D01*
X216323Y575500D01*
X215166Y575810D01*
D02*
G37*
G36*
X199117Y570760D02*
X195067D01*
Y566710D01*
X195166D01*
X196323Y567020D01*
X197361Y567619D01*
X198208Y568466D01*
X198807Y569504D01*
X199117Y570661D01*
Y570760D01*
D02*
G37*
G36*
X194067D02*
X190017D01*
Y570661D01*
X190327Y569504D01*
X190926Y568466D01*
X191773Y567619D01*
X192811Y567020D01*
X193968Y566710D01*
X194067D01*
Y570760D01*
D02*
G37*
G36*
X270442Y575810D02*
X269244D01*
X268086Y575500D01*
X267049Y574901D01*
X266202Y574054D01*
X265603Y573016D01*
X265293Y571859D01*
Y570661D01*
X265603Y569504D01*
X266202Y568466D01*
X267049Y567619D01*
X268086Y567020D01*
X269244Y566710D01*
X270442D01*
X271599Y567020D01*
X272636Y567619D01*
X273483Y568466D01*
X274082Y569504D01*
X274393Y570661D01*
Y571859D01*
X274082Y573016D01*
X273483Y574054D01*
X272636Y574901D01*
X271599Y575500D01*
X270442Y575810D01*
D02*
G37*
G36*
X250442D02*
X249243D01*
X248086Y575500D01*
X247049Y574901D01*
X246202Y574054D01*
X245603Y573016D01*
X245292Y571859D01*
Y570661D01*
X245603Y569504D01*
X246202Y568466D01*
X247049Y567619D01*
X248086Y567020D01*
X249243Y566710D01*
X250442D01*
X251599Y567020D01*
X252636Y567619D01*
X253483Y568466D01*
X254082Y569504D01*
X254393Y570661D01*
Y571859D01*
X254082Y573016D01*
X253483Y574054D01*
X252636Y574901D01*
X251599Y575500D01*
X250442Y575810D01*
D02*
G37*
G36*
X159024Y575416D02*
X157826D01*
X156669Y575106D01*
X155631Y574507D01*
X154784Y573660D01*
X154185Y572622D01*
X153875Y571465D01*
Y570267D01*
X154185Y569110D01*
X154784Y568072D01*
X155631Y567225D01*
X156669Y566626D01*
X157826Y566316D01*
X159024D01*
X160181Y566626D01*
X161219Y567225D01*
X162066Y568072D01*
X162665Y569110D01*
X162975Y570267D01*
Y571465D01*
X162665Y572622D01*
X162066Y573660D01*
X161219Y574507D01*
X160181Y575106D01*
X159024Y575416D01*
D02*
G37*
G36*
X139024D02*
X137826D01*
X136669Y575106D01*
X135631Y574507D01*
X134784Y573660D01*
X134185Y572622D01*
X133875Y571465D01*
Y570267D01*
X134185Y569110D01*
X134784Y568072D01*
X135631Y567225D01*
X136669Y566626D01*
X137826Y566316D01*
X139024D01*
X140181Y566626D01*
X141219Y567225D01*
X142066Y568072D01*
X142665Y569110D01*
X142975Y570267D01*
Y571465D01*
X142665Y572622D01*
X142066Y573660D01*
X141219Y574507D01*
X140181Y575106D01*
X139024Y575416D01*
D02*
G37*
G36*
X179634Y551127D02*
Y548138D01*
X182623D01*
X182395Y548989D01*
X181935Y549787D01*
X181283Y550438D01*
X180485Y550899D01*
X179634Y551127D01*
D02*
G37*
G36*
X178634D02*
X177783Y550899D01*
X176985Y550438D01*
X176333Y549787D01*
X175872Y548989D01*
X175644Y548138D01*
X178634D01*
Y551127D01*
D02*
G37*
G36*
X182623Y547138D02*
X179634D01*
Y544148D01*
X180485Y544376D01*
X181283Y544837D01*
X181935Y545489D01*
X182395Y546287D01*
X182623Y547138D01*
D02*
G37*
G36*
X178634D02*
X175644D01*
X175872Y546287D01*
X176333Y545489D01*
X176985Y544837D01*
X177783Y544376D01*
X178634Y544148D01*
Y547138D01*
D02*
G37*
G36*
X303650Y542466D02*
Y539476D01*
X306639D01*
X306411Y540327D01*
X305950Y541125D01*
X305299Y541777D01*
X304501Y542238D01*
X303650Y542466D01*
D02*
G37*
G36*
X302650D02*
X301799Y542238D01*
X301001Y541777D01*
X300349Y541125D01*
X299888Y540327D01*
X299660Y539476D01*
X302650D01*
Y542466D01*
D02*
G37*
G36*
X306639Y538476D02*
X303650D01*
Y535487D01*
X304501Y535715D01*
X305299Y536176D01*
X305950Y536827D01*
X306411Y537625D01*
X306639Y538476D01*
D02*
G37*
G36*
X302650D02*
X299660D01*
X299888Y537625D01*
X300349Y536827D01*
X301001Y536176D01*
X301799Y535715D01*
X302650Y535487D01*
Y538476D01*
D02*
G37*
G36*
X394367Y523526D02*
X393156D01*
X391986Y523212D01*
X390937Y522607D01*
X390080Y521750D01*
X389475Y520702D01*
X389161Y519532D01*
Y518320D01*
X389475Y517150D01*
X390080Y516102D01*
X390937Y515245D01*
X391986Y514640D01*
X393156Y514326D01*
X394367D01*
X395537Y514640D01*
X396586Y515245D01*
X397442Y516102D01*
X398048Y517150D01*
X398361Y518320D01*
Y519532D01*
X398048Y520702D01*
X397442Y521750D01*
X396586Y522607D01*
X395537Y523212D01*
X394367Y523526D01*
D02*
G37*
G36*
X394256Y506668D02*
X393267D01*
X392312Y506412D01*
X391455Y505918D01*
X390756Y505219D01*
X390262Y504362D01*
X390005Y503407D01*
Y502418D01*
X390238Y501552D01*
X315637Y426951D01*
X296647D01*
X296455Y427413D01*
X296508Y427465D01*
X297035Y428377D01*
X297307Y429395D01*
Y429421D01*
X289307D01*
Y429395D01*
X289580Y428377D01*
X290106Y427465D01*
X290159Y427413D01*
X289967Y426951D01*
X222272D01*
X221686Y426834D01*
X221190Y426503D01*
X214667Y419979D01*
X214335Y419483D01*
X214219Y418898D01*
Y365331D01*
X214335Y364746D01*
X214667Y364250D01*
X262281Y316635D01*
X262777Y316304D01*
X263363Y316187D01*
X282044D01*
X284297Y313933D01*
Y232682D01*
X270627Y219012D01*
X270614Y219019D01*
X269596Y219292D01*
X268543D01*
X267526Y219019D01*
X266614Y218493D01*
X265869Y217748D01*
X265342Y216836D01*
X265070Y215819D01*
Y214765D01*
X265342Y213748D01*
X265869Y212836D01*
X266614Y212091D01*
X267526Y211565D01*
X268543Y211292D01*
X269596D01*
X270614Y211565D01*
X271526Y212091D01*
X272271Y212836D01*
X272797Y213748D01*
X273070Y214765D01*
Y215819D01*
X272797Y216836D01*
X272790Y216849D01*
X286908Y230968D01*
X287240Y231464D01*
X287356Y232049D01*
Y314567D01*
X287240Y315152D01*
X286908Y315648D01*
X283759Y318798D01*
X283262Y319129D01*
X282677Y319246D01*
X263996D01*
X217277Y365965D01*
Y418264D01*
X222905Y423892D01*
X316270D01*
X316856Y424008D01*
X317352Y424340D01*
X392401Y499389D01*
X393267Y499157D01*
X394256D01*
X395211Y499412D01*
X396068Y499907D01*
X396767Y500606D01*
X397261Y501463D01*
X397517Y502418D01*
Y503407D01*
X397261Y504362D01*
X396767Y505219D01*
X396068Y505918D01*
X395211Y506412D01*
X394256Y506668D01*
D02*
G37*
G36*
X364256D02*
X363267D01*
X362312Y506412D01*
X361455Y505918D01*
X360756Y505219D01*
X360262Y504362D01*
X360005Y503407D01*
Y502418D01*
X360262Y501463D01*
X360756Y500606D01*
X361455Y499907D01*
X362312Y499412D01*
X363267Y499157D01*
X364256D01*
X365211Y499412D01*
X366068Y499907D01*
X366767Y500606D01*
X367261Y501463D01*
X367517Y502418D01*
Y503407D01*
X367261Y504362D01*
X366767Y505219D01*
X366068Y505918D01*
X365211Y506412D01*
X364256Y506668D01*
D02*
G37*
G36*
X246275Y503855D02*
X245064D01*
X243894Y503542D01*
X242845Y502936D01*
X241988Y502080D01*
X241383Y501031D01*
X241069Y499861D01*
Y498650D01*
X241383Y497480D01*
X241988Y496431D01*
X242845Y495574D01*
X243894Y494969D01*
X245064Y494655D01*
X246275D01*
X247445Y494969D01*
X248494Y495574D01*
X249350Y496431D01*
X249956Y497480D01*
X250269Y498650D01*
Y499861D01*
X249956Y501031D01*
X249350Y502080D01*
X248494Y502936D01*
X247445Y503542D01*
X246275Y503855D01*
D02*
G37*
G36*
X287220Y503419D02*
X286009D01*
X284839Y503105D01*
X283790Y502500D01*
X282933Y501643D01*
X282328Y500594D01*
X282014Y499425D01*
Y498213D01*
X282328Y497043D01*
X282933Y495994D01*
X283790Y495138D01*
X284839Y494532D01*
X286009Y494219D01*
X287220D01*
X288390Y494532D01*
X289439Y495138D01*
X290295Y495994D01*
X290901Y497043D01*
X291214Y498213D01*
Y499425D01*
X290901Y500594D01*
X290295Y501643D01*
X289439Y502500D01*
X288390Y503105D01*
X287220Y503419D01*
D02*
G37*
G36*
X206378Y484565D02*
Y481575D01*
X209368D01*
X209140Y482426D01*
X208679Y483224D01*
X208027Y483876D01*
X207229Y484337D01*
X206378Y484565D01*
D02*
G37*
G36*
X205378D02*
X204527Y484337D01*
X203729Y483876D01*
X203078Y483224D01*
X202617Y482426D01*
X202389Y481575D01*
X205378D01*
Y484565D01*
D02*
G37*
G36*
X187709Y484745D02*
Y481548D01*
X190905D01*
X190657Y482476D01*
X190170Y483320D01*
X189481Y484009D01*
X188637Y484496D01*
X187709Y484745D01*
D02*
G37*
G36*
X186709Y484745D02*
X185781Y484496D01*
X184937Y484009D01*
X184248Y483320D01*
X183761Y482476D01*
X183512Y481548D01*
X186709D01*
Y484745D01*
D02*
G37*
G36*
X209368Y480575D02*
X206378D01*
Y477586D01*
X207229Y477814D01*
X208027Y478274D01*
X208679Y478926D01*
X209140Y479724D01*
X209368Y480575D01*
D02*
G37*
G36*
X205378D02*
X202389D01*
X202617Y479724D01*
X203078Y478926D01*
X203729Y478274D01*
X204527Y477814D01*
X205378Y477586D01*
Y480575D01*
D02*
G37*
G36*
X190905Y480548D02*
X187709D01*
Y477351D01*
X188637Y477600D01*
X189481Y478087D01*
X190170Y478776D01*
X190657Y479620D01*
X190905Y480548D01*
D02*
G37*
G36*
X186709D02*
X183512D01*
X183761Y479620D01*
X184248Y478776D01*
X184937Y478087D01*
X185781Y477600D01*
X186709Y477351D01*
Y480548D01*
D02*
G37*
G36*
X250819Y456748D02*
X240519D01*
Y446448D01*
X250819D01*
Y456748D01*
D02*
G37*
G36*
X232947D02*
X231591D01*
X230281Y456397D01*
X229107Y455720D01*
X228148Y454761D01*
X227470Y453586D01*
X227119Y452276D01*
Y450920D01*
X227470Y449611D01*
X228148Y448436D01*
X229107Y447477D01*
X230281Y446799D01*
X231591Y446448D01*
X232947D01*
X234257Y446799D01*
X235432Y447477D01*
X236390Y448436D01*
X237068Y449611D01*
X237419Y450920D01*
Y452276D01*
X237068Y453586D01*
X236390Y454761D01*
X235432Y455720D01*
X234257Y456397D01*
X232947Y456748D01*
D02*
G37*
G36*
X293834Y453921D02*
X292780D01*
X291763Y453649D01*
X290851Y453122D01*
X290106Y452377D01*
X289580Y451465D01*
X289307Y450448D01*
Y449395D01*
X289580Y448377D01*
X290106Y447465D01*
X290851Y446721D01*
X291763Y446194D01*
X292780Y445921D01*
X293834D01*
X294851Y446194D01*
X295763Y446721D01*
X296508Y447465D01*
X297035Y448377D01*
X297307Y449395D01*
Y450448D01*
X297035Y451465D01*
X296508Y452377D01*
X295763Y453122D01*
X294851Y453649D01*
X293834Y453921D01*
D02*
G37*
G36*
X116433Y456146D02*
X115077D01*
X113767Y455795D01*
X112593Y455117D01*
X111634Y454158D01*
X110956Y452984D01*
X110605Y451674D01*
Y450318D01*
X110956Y449008D01*
X111634Y447834D01*
X112593Y446875D01*
X113767Y446197D01*
X115077Y445846D01*
X116433D01*
X117743Y446197D01*
X118917Y446875D01*
X119876Y447834D01*
X120554Y449008D01*
X120905Y450318D01*
Y451674D01*
X120554Y452984D01*
X119876Y454158D01*
X118917Y455117D01*
X117743Y455795D01*
X116433Y456146D01*
D02*
G37*
G36*
X103033D02*
X101677D01*
X100367Y455795D01*
X99193Y455117D01*
X98234Y454158D01*
X97556Y452984D01*
X97205Y451674D01*
Y450318D01*
X97556Y449008D01*
X98234Y447834D01*
X99193Y446875D01*
X100367Y446197D01*
X101677Y445846D01*
X103033D01*
X104343Y446197D01*
X105517Y446875D01*
X106476Y447834D01*
X107154Y449008D01*
X107505Y450318D01*
Y451674D01*
X107154Y452984D01*
X106476Y454158D01*
X105517Y455117D01*
X104343Y455795D01*
X103033Y456146D01*
D02*
G37*
G36*
X450291Y452603D02*
X448935D01*
X447626Y452252D01*
X446451Y451574D01*
X445492Y450615D01*
X444814Y449441D01*
X444463Y448131D01*
Y446775D01*
X444814Y445465D01*
X445492Y444291D01*
X446451Y443332D01*
X447626Y442654D01*
X448935Y442303D01*
X450291D01*
X451601Y442654D01*
X452776Y443332D01*
X453734Y444291D01*
X454412Y445465D01*
X454763Y446775D01*
Y448131D01*
X454412Y449441D01*
X453734Y450615D01*
X452776Y451574D01*
X451601Y452252D01*
X450291Y452603D01*
D02*
G37*
G36*
X436891D02*
X435535D01*
X434226Y452252D01*
X433051Y451574D01*
X432092Y450615D01*
X431414Y449441D01*
X431063Y448131D01*
Y446775D01*
X431414Y445465D01*
X432092Y444291D01*
X433051Y443332D01*
X434226Y442654D01*
X435535Y442303D01*
X436891D01*
X438201Y442654D01*
X439376Y443332D01*
X440334Y444291D01*
X441012Y445465D01*
X441363Y446775D01*
Y448131D01*
X441012Y449441D01*
X440334Y450615D01*
X439376Y451574D01*
X438201Y452252D01*
X436891Y452603D01*
D02*
G37*
G36*
X279240Y439316D02*
Y436327D01*
X282230D01*
X282002Y437178D01*
X281541Y437976D01*
X280889Y438627D01*
X280091Y439088D01*
X279240Y439316D01*
D02*
G37*
G36*
X278240D02*
X277389Y439088D01*
X276591Y438627D01*
X275939Y437976D01*
X275479Y437178D01*
X275251Y436327D01*
X278240D01*
Y439316D01*
D02*
G37*
G36*
X352889Y443921D02*
X351836D01*
X350818Y443649D01*
X349906Y443122D01*
X349161Y442377D01*
X348635Y441465D01*
X348362Y440448D01*
Y439395D01*
X348635Y438377D01*
X349161Y437465D01*
X349906Y436721D01*
X350818Y436194D01*
X351836Y435921D01*
X352889D01*
X353906Y436194D01*
X354818Y436721D01*
X355563Y437465D01*
X356090Y438377D01*
X356362Y439395D01*
Y440448D01*
X356090Y441465D01*
X355563Y442377D01*
X354818Y443122D01*
X353906Y443649D01*
X352889Y443921D01*
D02*
G37*
G36*
X293834D02*
X292780D01*
X291763Y443649D01*
X290851Y443122D01*
X290106Y442377D01*
X289580Y441465D01*
X289307Y440448D01*
Y439395D01*
X289580Y438377D01*
X290106Y437465D01*
X290851Y436721D01*
X291763Y436194D01*
X292780Y435921D01*
X293834D01*
X294851Y436194D01*
X295763Y436721D01*
X296508Y437465D01*
X297035Y438377D01*
X297307Y439395D01*
Y440448D01*
X297035Y441465D01*
X296508Y442377D01*
X295763Y443122D01*
X294851Y443649D01*
X293834Y443921D01*
D02*
G37*
G36*
X282230Y435327D02*
X279240D01*
Y432337D01*
X280091Y432565D01*
X280889Y433026D01*
X281541Y433678D01*
X282002Y434476D01*
X282230Y435327D01*
D02*
G37*
G36*
X278240D02*
X275251D01*
X275479Y434476D01*
X275939Y433678D01*
X276591Y433026D01*
X277389Y432565D01*
X278240Y432337D01*
Y435327D01*
D02*
G37*
G36*
X162272Y434843D02*
Y431996D01*
X165119D01*
X164905Y432794D01*
X164462Y433561D01*
X163836Y434187D01*
X163069Y434629D01*
X162272Y434843D01*
D02*
G37*
G36*
X161272D02*
X160474Y434629D01*
X159707Y434187D01*
X159081Y433561D01*
X158639Y432794D01*
X158425Y431996D01*
X161272D01*
Y434843D01*
D02*
G37*
G36*
X293834Y433921D02*
X293807D01*
Y430421D01*
X297307D01*
Y430448D01*
X297035Y431465D01*
X296508Y432377D01*
X295763Y433122D01*
X294851Y433649D01*
X293834Y433921D01*
D02*
G37*
G36*
X292807D02*
X292780D01*
X291763Y433649D01*
X290851Y433122D01*
X290106Y432377D01*
X289580Y431465D01*
X289307Y430448D01*
Y430421D01*
X292807D01*
Y433921D01*
D02*
G37*
G36*
X165119Y430996D02*
X162272D01*
Y428149D01*
X163069Y428363D01*
X163836Y428806D01*
X164462Y429432D01*
X164905Y430198D01*
X165119Y430996D01*
D02*
G37*
G36*
X161272D02*
X158425D01*
X158639Y430198D01*
X159081Y429432D01*
X159707Y428806D01*
X160474Y428363D01*
X161272Y428149D01*
Y430996D01*
D02*
G37*
G36*
X171224Y484748D02*
X163824D01*
Y477348D01*
X169061D01*
X190242Y456167D01*
Y434495D01*
X189707Y434187D01*
X189081Y433561D01*
X188639Y432794D01*
X188409Y431939D01*
Y431053D01*
X188639Y430198D01*
X189081Y429432D01*
X189707Y428806D01*
X190474Y428363D01*
X191329Y428134D01*
X192214D01*
X193069Y428363D01*
X193836Y428806D01*
X194462Y429432D01*
X194905Y430198D01*
X195134Y431053D01*
Y431939D01*
X194905Y432794D01*
X194462Y433561D01*
X193836Y434187D01*
X193301Y434495D01*
Y456800D01*
X193185Y457385D01*
X192853Y457882D01*
X171224Y479511D01*
Y484748D01*
D02*
G37*
G36*
X352889Y433921D02*
X351836D01*
X350818Y433649D01*
X349906Y433122D01*
X349161Y432377D01*
X348635Y431465D01*
X348362Y430448D01*
Y429395D01*
X348635Y428377D01*
X349161Y427465D01*
X349906Y426721D01*
X350818Y426194D01*
X351836Y425921D01*
X352889D01*
X353906Y426194D01*
X354818Y426721D01*
X355563Y427465D01*
X356090Y428377D01*
X356362Y429395D01*
Y430448D01*
X356090Y431465D01*
X355563Y432377D01*
X354818Y433122D01*
X353906Y433649D01*
X352889Y433921D01*
D02*
G37*
G36*
X162272Y421713D02*
Y418723D01*
X165261D01*
X165033Y419574D01*
X164572Y420372D01*
X163921Y421024D01*
X163123Y421485D01*
X162272Y421713D01*
D02*
G37*
G36*
X161272D02*
X160421Y421485D01*
X159623Y421024D01*
X158971Y420372D01*
X158510Y419574D01*
X158282Y418723D01*
X161272D01*
Y421713D01*
D02*
G37*
G36*
X165261Y417724D02*
X162272D01*
Y414734D01*
X163123Y414962D01*
X163921Y415423D01*
X164572Y416074D01*
X165033Y416873D01*
X165261Y417724D01*
D02*
G37*
G36*
X161272D02*
X158282D01*
X158510Y416873D01*
X158971Y416074D01*
X159623Y415423D01*
X160421Y414962D01*
X161272Y414734D01*
Y417724D01*
D02*
G37*
G36*
X232947Y417748D02*
X231591D01*
X230281Y417397D01*
X229107Y416719D01*
X228148Y415761D01*
X227470Y414586D01*
X227119Y413276D01*
Y411920D01*
X227470Y410611D01*
X228148Y409436D01*
X229107Y408477D01*
X230281Y407799D01*
X231591Y407448D01*
X232947D01*
X234257Y407799D01*
X235432Y408477D01*
X236390Y409436D01*
X237068Y410611D01*
X237419Y411920D01*
Y413276D01*
X237068Y414586D01*
X236390Y415761D01*
X235432Y416719D01*
X234257Y417397D01*
X232947Y417748D01*
D02*
G37*
G36*
X116433Y417146D02*
X115077D01*
X113767Y416795D01*
X112593Y416117D01*
X111634Y415158D01*
X110956Y413984D01*
X110605Y412674D01*
Y411318D01*
X110956Y410008D01*
X111634Y408834D01*
X112593Y407875D01*
X113767Y407197D01*
X115077Y406846D01*
X116433D01*
X117743Y407197D01*
X118917Y407875D01*
X119876Y408834D01*
X120554Y410008D01*
X120905Y411318D01*
Y412674D01*
X120554Y413984D01*
X119876Y415158D01*
X118917Y416117D01*
X117743Y416795D01*
X116433Y417146D01*
D02*
G37*
G36*
X107505D02*
X97205D01*
Y406846D01*
X107505D01*
Y417146D01*
D02*
G37*
G36*
X450291Y413603D02*
X448935D01*
X447626Y413252D01*
X446451Y412574D01*
X445492Y411615D01*
X444814Y410441D01*
X444463Y409131D01*
Y407775D01*
X444814Y406465D01*
X445492Y405291D01*
X446451Y404332D01*
X447626Y403654D01*
X448935Y403303D01*
X450291D01*
X451601Y403654D01*
X452776Y404332D01*
X453734Y405291D01*
X454412Y406465D01*
X454763Y407775D01*
Y409131D01*
X454412Y410441D01*
X453734Y411615D01*
X452776Y412574D01*
X451601Y413252D01*
X450291Y413603D01*
D02*
G37*
G36*
X441363D02*
X431063D01*
Y403303D01*
X441363D01*
Y413603D01*
D02*
G37*
G36*
X327134Y576203D02*
X325936D01*
X324779Y575893D01*
X323742Y575294D01*
X322895Y574447D01*
X322295Y573410D01*
X321985Y572253D01*
Y571055D01*
X322295Y569897D01*
X322895Y568860D01*
X323742Y568013D01*
X324779Y567414D01*
X325006Y567353D01*
Y502339D01*
X324454Y501382D01*
X324140Y500212D01*
Y499001D01*
X324454Y497831D01*
X325059Y496782D01*
X325916Y495925D01*
X326965Y495320D01*
X328135Y495006D01*
X329346D01*
X330516Y495320D01*
X331565Y495925D01*
X332421Y496782D01*
X333027Y497831D01*
X333093Y498077D01*
X339764D01*
X340349Y498193D01*
X340845Y498525D01*
X353560Y511240D01*
X353892Y511736D01*
X354008Y512322D01*
Y523499D01*
X364413Y533904D01*
X407240D01*
X416581Y524563D01*
Y505775D01*
X416697Y505189D01*
X417029Y504693D01*
X418866Y502856D01*
X419363Y502524D01*
X419948Y502408D01*
X435587D01*
X468549Y469445D01*
Y421260D01*
X468666Y420675D01*
X468997Y420178D01*
X503392Y385784D01*
Y369207D01*
X502892Y369141D01*
X502763Y369623D01*
X502236Y370535D01*
X501491Y371280D01*
X500579Y371806D01*
X499562Y372079D01*
X499535D01*
Y368079D01*
Y364079D01*
X499562D01*
X500579Y364351D01*
X501491Y364878D01*
X502236Y365623D01*
X502763Y366535D01*
X502892Y367016D01*
X503392Y366950D01*
Y359207D01*
X502892Y359141D01*
X502763Y359623D01*
X502236Y360535D01*
X501491Y361280D01*
X500579Y361806D01*
X499562Y362079D01*
X498509D01*
X497492Y361806D01*
X496579Y361280D01*
X495835Y360535D01*
X495308Y359623D01*
X495035Y358605D01*
Y357552D01*
X495308Y356535D01*
X495835Y355623D01*
X496579Y354878D01*
X497492Y354351D01*
X498509Y354079D01*
X499562D01*
X500579Y354351D01*
X501491Y354878D01*
X502236Y355623D01*
X502763Y356535D01*
X502892Y357016D01*
X503392Y356950D01*
Y349207D01*
X502892Y349141D01*
X502763Y349623D01*
X502236Y350535D01*
X501491Y351279D01*
X500579Y351806D01*
X499562Y352079D01*
X498509D01*
X497492Y351806D01*
X496579Y351279D01*
X495835Y350535D01*
X495308Y349623D01*
X495035Y348605D01*
Y347552D01*
X495308Y346535D01*
X495835Y345623D01*
X496579Y344878D01*
X497492Y344351D01*
X498509Y344079D01*
X499562D01*
X500579Y344351D01*
X501491Y344878D01*
X502236Y345623D01*
X502763Y346535D01*
X502892Y347016D01*
X503392Y346951D01*
Y137838D01*
X462752Y97199D01*
X426726D01*
Y109804D01*
X435674Y118752D01*
X453874D01*
Y117741D01*
X454147Y116724D01*
X454673Y115812D01*
X455418Y115067D01*
X456330Y114540D01*
X457347Y114268D01*
X458401D01*
X459418Y114540D01*
X460330Y115067D01*
X461075Y115812D01*
X461601Y116724D01*
X461874Y117741D01*
Y118794D01*
X461601Y119812D01*
X461075Y120724D01*
X460330Y121468D01*
X459418Y121995D01*
X458401Y122268D01*
X457347D01*
X456330Y121995D01*
X455576Y121560D01*
X455373Y121695D01*
X454788Y121811D01*
X435041D01*
X434455Y121695D01*
X433959Y121363D01*
X424115Y111519D01*
X423784Y111023D01*
X423667Y110438D01*
Y96255D01*
X423784Y95670D01*
X424115Y95174D01*
X424701Y94588D01*
X425197Y94256D01*
X425783Y94140D01*
X463386D01*
X463971Y94256D01*
X464467Y94588D01*
X506003Y136123D01*
X506334Y136619D01*
X506451Y137205D01*
Y386417D01*
X506334Y387003D01*
X506003Y387499D01*
X471608Y421893D01*
Y470079D01*
X471492Y470664D01*
X471160Y471160D01*
X437302Y505019D01*
X436806Y505350D01*
X436220Y505466D01*
X420581D01*
X419640Y506408D01*
Y525197D01*
X419523Y525782D01*
X419192Y526278D01*
X408955Y536515D01*
X408459Y536846D01*
X407874Y536963D01*
X363779D01*
X363194Y536846D01*
X362698Y536515D01*
X351397Y525214D01*
X351066Y524718D01*
X350950Y524132D01*
Y512955D01*
X339130Y501136D01*
X333093D01*
X333027Y501382D01*
X332421Y502431D01*
X331565Y503287D01*
X330516Y503893D01*
X329346Y504206D01*
X328135D01*
X328065Y504260D01*
Y567353D01*
X328292Y567414D01*
X329329Y568013D01*
X330176Y568860D01*
X330775Y569897D01*
X331085Y571055D01*
Y572253D01*
X330775Y573410D01*
X330176Y574447D01*
X329329Y575294D01*
X328292Y575893D01*
X327134Y576203D01*
D02*
G37*
G36*
X498535Y372079D02*
X498509D01*
X497492Y371806D01*
X496579Y371280D01*
X495835Y370535D01*
X495308Y369623D01*
X495035Y368605D01*
Y368579D01*
X498535D01*
Y372079D01*
D02*
G37*
G36*
Y367579D02*
X495035D01*
Y367552D01*
X495308Y366535D01*
X495835Y365623D01*
X496579Y364878D01*
X497492Y364351D01*
X498509Y364079D01*
X498535D01*
Y367579D01*
D02*
G37*
G36*
X420527Y372079D02*
X419473D01*
X418456Y371806D01*
X417544Y371280D01*
X416799Y370535D01*
X416273Y369623D01*
X416000Y368605D01*
Y367552D01*
X416273Y366535D01*
X416799Y365623D01*
X417544Y364878D01*
X418456Y364351D01*
X419473Y364079D01*
X420527D01*
X421544Y364351D01*
X422456Y364878D01*
X423201Y365623D01*
X423727Y366535D01*
X424000Y367552D01*
Y368605D01*
X423727Y369623D01*
X423201Y370535D01*
X422456Y371280D01*
X421544Y371806D01*
X420527Y372079D01*
D02*
G37*
G36*
X352468Y355665D02*
Y352468D01*
X355665D01*
X355416Y353397D01*
X354929Y354240D01*
X354240Y354929D01*
X353397Y355416D01*
X352468Y355665D01*
D02*
G37*
G36*
X351468Y355665D02*
X350540Y355416D01*
X349697Y354929D01*
X349008Y354240D01*
X348521Y353397D01*
X348272Y352468D01*
X351468D01*
Y355665D01*
D02*
G37*
G36*
X379271Y355458D02*
Y352468D01*
X382260D01*
X382032Y353320D01*
X381572Y354117D01*
X380920Y354769D01*
X380122Y355230D01*
X379271Y355458D01*
D02*
G37*
G36*
X378271D02*
X377420Y355230D01*
X376622Y354769D01*
X375970Y354117D01*
X375509Y353320D01*
X375281Y352468D01*
X378271D01*
Y355458D01*
D02*
G37*
G36*
X420527Y352000D02*
X420500D01*
Y348500D01*
X424000D01*
Y348527D01*
X423727Y349544D01*
X423201Y350456D01*
X422456Y351201D01*
X421544Y351727D01*
X420527Y352000D01*
D02*
G37*
G36*
X419500D02*
X419473D01*
X418456Y351727D01*
X417544Y351201D01*
X416799Y350456D01*
X416273Y349544D01*
X416000Y348527D01*
Y348500D01*
X419500D01*
Y352000D01*
D02*
G37*
G36*
X382260Y351468D02*
X379271D01*
Y348479D01*
X380122Y348707D01*
X380920Y349168D01*
X381572Y349819D01*
X382032Y350618D01*
X382260Y351468D01*
D02*
G37*
G36*
X378271D02*
X375281D01*
X375509Y350618D01*
X375970Y349819D01*
X376622Y349168D01*
X377420Y348707D01*
X378271Y348479D01*
Y351468D01*
D02*
G37*
G36*
X173291Y356283D02*
X165291D01*
Y348284D01*
X173291D01*
Y356283D01*
D02*
G37*
G36*
X355665Y351468D02*
X352468D01*
Y348272D01*
X353397Y348521D01*
X354240Y349008D01*
X354929Y349697D01*
X355416Y350540D01*
X355665Y351468D01*
D02*
G37*
G36*
X351468D02*
X348272D01*
X348521Y350540D01*
X349008Y349697D01*
X349697Y349008D01*
X350540Y348521D01*
X351468Y348272D01*
Y351468D01*
D02*
G37*
G36*
X424000Y347500D02*
X420500D01*
Y344000D01*
X420527D01*
X421544Y344273D01*
X422456Y344799D01*
X423201Y345544D01*
X423727Y346456D01*
X424000Y347473D01*
Y347500D01*
D02*
G37*
G36*
X419500D02*
X416000D01*
Y347473D01*
X416273Y346456D01*
X416799Y345544D01*
X417544Y344799D01*
X418456Y344273D01*
X419473Y344000D01*
X419500D01*
Y347500D01*
D02*
G37*
G36*
X169818Y346284D02*
X169791D01*
Y342783D01*
X173291D01*
Y342810D01*
X173019Y343827D01*
X172492Y344740D01*
X171747Y345484D01*
X170835Y346011D01*
X169818Y346284D01*
D02*
G37*
G36*
X168791D02*
X168765D01*
X167747Y346011D01*
X166835Y345484D01*
X166091Y344740D01*
X165564Y343827D01*
X165291Y342810D01*
Y342783D01*
X168791D01*
Y346284D01*
D02*
G37*
G36*
X157193Y345222D02*
Y342232D01*
X160182D01*
X159954Y343083D01*
X159494Y343881D01*
X158842Y344533D01*
X158044Y344994D01*
X157193Y345222D01*
D02*
G37*
G36*
X156193D02*
X155342Y344994D01*
X154544Y344533D01*
X153892Y343881D01*
X153431Y343083D01*
X153203Y342232D01*
X156193D01*
Y345222D01*
D02*
G37*
G36*
X173291Y341783D02*
X169791D01*
Y338283D01*
X169818D01*
X170835Y338556D01*
X171747Y339083D01*
X172492Y339827D01*
X173019Y340739D01*
X173291Y341757D01*
Y341783D01*
D02*
G37*
G36*
X168791D02*
X165291D01*
Y341757D01*
X165564Y340739D01*
X166091Y339827D01*
X166835Y339083D01*
X167747Y338556D01*
X168765Y338283D01*
X168791D01*
Y341783D01*
D02*
G37*
G36*
X160182Y341232D02*
X157193D01*
Y338243D01*
X158044Y338471D01*
X158842Y338932D01*
X159494Y339583D01*
X159954Y340381D01*
X160182Y341232D01*
D02*
G37*
G36*
X156193D02*
X153203D01*
X153431Y340381D01*
X153892Y339583D01*
X154544Y338932D01*
X155342Y338471D01*
X156193Y338243D01*
Y341232D01*
D02*
G37*
G36*
X355668Y335983D02*
X348269D01*
Y328584D01*
X355668D01*
Y335983D01*
D02*
G37*
G36*
X169818Y336283D02*
X168765D01*
X167747Y336011D01*
X166835Y335484D01*
X166091Y334739D01*
X165564Y333827D01*
X165291Y332810D01*
Y331757D01*
X165564Y330739D01*
X166091Y329827D01*
X166835Y329083D01*
X167747Y328556D01*
X168765Y328284D01*
X169818D01*
X170835Y328556D01*
X171747Y329083D01*
X172492Y329827D01*
X173019Y330739D01*
X173291Y331757D01*
Y332810D01*
X173019Y333827D01*
X172492Y334739D01*
X171747Y335484D01*
X170835Y336011D01*
X169818Y336283D01*
D02*
G37*
G36*
X193002Y337041D02*
X191791D01*
X190621Y336727D01*
X189572Y336122D01*
X188716Y335265D01*
X188110Y334216D01*
X187797Y333047D01*
Y331835D01*
X188110Y330665D01*
X188716Y329616D01*
X189572Y328760D01*
X190621Y328154D01*
X191791Y327841D01*
X193002D01*
X194172Y328154D01*
X195221Y328760D01*
X196078Y329616D01*
X196683Y330665D01*
X196997Y331835D01*
Y333047D01*
X196683Y334216D01*
X196078Y335265D01*
X195221Y336122D01*
X194172Y336727D01*
X193002Y337041D01*
D02*
G37*
G36*
X169818Y326284D02*
X168765D01*
X167747Y326011D01*
X166835Y325484D01*
X166091Y324740D01*
X165564Y323827D01*
X165291Y322810D01*
Y321757D01*
X165564Y320740D01*
X166091Y319827D01*
X166835Y319083D01*
X167747Y318556D01*
X168765Y318284D01*
X169818D01*
X170835Y318556D01*
X171747Y319083D01*
X172492Y319827D01*
X173019Y320740D01*
X173291Y321757D01*
Y322810D01*
X173019Y323827D01*
X172492Y324740D01*
X171747Y325484D01*
X170835Y326011D01*
X169818Y326284D01*
D02*
G37*
G36*
Y316283D02*
X168765D01*
X167747Y316011D01*
X166835Y315484D01*
X166091Y314739D01*
X165564Y313827D01*
X165291Y312810D01*
Y311757D01*
X165564Y310739D01*
X166091Y309827D01*
X166835Y309083D01*
X167747Y308556D01*
X168765Y308283D01*
X169818D01*
X170835Y308556D01*
X171747Y309083D01*
X172492Y309827D01*
X173019Y310739D01*
X173291Y311757D01*
Y312810D01*
X173019Y313827D01*
X172492Y314739D01*
X171747Y315484D01*
X170835Y316011D01*
X169818Y316283D01*
D02*
G37*
G36*
X329629Y309542D02*
X328510D01*
X327429Y309252D01*
X326460Y308693D01*
X325669Y307902D01*
X325109Y306932D01*
X324820Y305852D01*
Y304732D01*
X325109Y303652D01*
X325669Y302682D01*
X326460Y301891D01*
X327429Y301332D01*
X328510Y301042D01*
X329629D01*
X330710Y301332D01*
X331679Y301891D01*
X332471Y302682D01*
X333030Y303652D01*
X333320Y304732D01*
Y305852D01*
X333030Y306932D01*
X332471Y307902D01*
X331679Y308693D01*
X330710Y309252D01*
X329629Y309542D01*
D02*
G37*
G36*
X269629D02*
X268510D01*
X267429Y309252D01*
X266460Y308693D01*
X265669Y307902D01*
X265109Y306932D01*
X264820Y305852D01*
Y304732D01*
X265109Y303652D01*
X265669Y302682D01*
X266460Y301891D01*
X267429Y301332D01*
X268510Y301042D01*
X269629D01*
X270710Y301332D01*
X271679Y301891D01*
X272471Y302682D01*
X273030Y303652D01*
X273320Y304732D01*
Y305852D01*
X273030Y306932D01*
X272471Y307902D01*
X271679Y308693D01*
X270710Y309252D01*
X269629Y309542D01*
D02*
G37*
G36*
X169818Y306283D02*
X168765D01*
X167747Y306011D01*
X166835Y305484D01*
X166091Y304739D01*
X165564Y303827D01*
X165291Y302810D01*
Y301757D01*
X165564Y300740D01*
X166091Y299827D01*
X166835Y299083D01*
X167747Y298556D01*
X168765Y298284D01*
X169818D01*
X170835Y298556D01*
X171747Y299083D01*
X172492Y299827D01*
X173019Y300740D01*
X173291Y301757D01*
Y302810D01*
X173019Y303827D01*
X172492Y304739D01*
X171747Y305484D01*
X170835Y306011D01*
X169818Y306283D01*
D02*
G37*
G36*
X329596Y299292D02*
X328543D01*
X327526Y299019D01*
X326614Y298493D01*
X325869Y297748D01*
X325342Y296836D01*
X325070Y295819D01*
Y294765D01*
X325342Y293748D01*
X325869Y292836D01*
X326614Y292091D01*
X327526Y291565D01*
X328543Y291292D01*
X329596D01*
X330614Y291565D01*
X331526Y292091D01*
X332271Y292836D01*
X332797Y293748D01*
X333070Y294765D01*
Y295819D01*
X332797Y296836D01*
X332271Y297748D01*
X331526Y298493D01*
X330614Y299019D01*
X329596Y299292D01*
D02*
G37*
G36*
X269596D02*
X268543D01*
X267526Y299019D01*
X266614Y298493D01*
X265869Y297748D01*
X265342Y296836D01*
X265070Y295819D01*
Y294765D01*
X265342Y293748D01*
X265869Y292836D01*
X266614Y292091D01*
X267526Y291565D01*
X268543Y291292D01*
X269596D01*
X270614Y291565D01*
X271526Y292091D01*
X272271Y292836D01*
X272797Y293748D01*
X273070Y294765D01*
Y295819D01*
X272797Y296836D01*
X272271Y297748D01*
X271526Y298493D01*
X270614Y299019D01*
X269596Y299292D01*
D02*
G37*
G36*
X329596Y289292D02*
X329570D01*
Y285792D01*
X333070D01*
Y285819D01*
X332797Y286836D01*
X332271Y287748D01*
X331526Y288493D01*
X330614Y289019D01*
X329596Y289292D01*
D02*
G37*
G36*
X328570D02*
X328543D01*
X327526Y289019D01*
X326614Y288493D01*
X325869Y287748D01*
X325342Y286836D01*
X325070Y285819D01*
Y285792D01*
X328570D01*
Y289292D01*
D02*
G37*
G36*
X412338Y285024D02*
X412311D01*
Y281524D01*
X415811D01*
Y281550D01*
X415538Y282568D01*
X415012Y283480D01*
X414267Y284224D01*
X413355Y284751D01*
X412338Y285024D01*
D02*
G37*
G36*
X328570Y284792D02*
X325070D01*
Y284765D01*
X325342Y283748D01*
X325869Y282836D01*
X326614Y282091D01*
X327526Y281565D01*
X328543Y281292D01*
X328570D01*
Y284792D01*
D02*
G37*
G36*
X269596Y289292D02*
X268543D01*
X267526Y289019D01*
X266614Y288493D01*
X265869Y287748D01*
X265342Y286836D01*
X265070Y285819D01*
Y284765D01*
X265342Y283748D01*
X265869Y282836D01*
X266614Y282091D01*
X267526Y281565D01*
X268543Y281292D01*
X269596D01*
X270614Y281565D01*
X271526Y282091D01*
X272271Y282836D01*
X272797Y283748D01*
X273070Y284765D01*
Y285819D01*
X272797Y286836D01*
X272271Y287748D01*
X271526Y288493D01*
X270614Y289019D01*
X269596Y289292D01*
D02*
G37*
G36*
X415811Y280524D02*
X412311D01*
Y277024D01*
X412338D01*
X413355Y277296D01*
X414267Y277823D01*
X415012Y278568D01*
X415538Y279480D01*
X415811Y280497D01*
Y280524D01*
D02*
G37*
G36*
X411311Y285024D02*
X411284D01*
X410267Y284751D01*
X409355Y284224D01*
X408610Y283480D01*
X408084Y282568D01*
X408080Y282553D01*
X396024D01*
X395438Y282437D01*
X394942Y282105D01*
X386236Y273398D01*
X385584Y273573D01*
Y270584D01*
X388573D01*
X388399Y271236D01*
X396657Y279494D01*
X408080D01*
X408084Y279480D01*
X408610Y278568D01*
X409355Y277823D01*
X410267Y277296D01*
X411284Y277024D01*
X411311D01*
Y281024D01*
Y285024D01*
D02*
G37*
G36*
X365797Y283717D02*
X364912D01*
X364057Y283487D01*
X363290Y283045D01*
X362664Y282419D01*
X362221Y281652D01*
X361992Y280797D01*
Y279912D01*
X362221Y279057D01*
X362664Y278290D01*
X363290Y277664D01*
X364057Y277221D01*
X364912Y276992D01*
X365797D01*
X366652Y277221D01*
X367419Y277664D01*
X368045Y278290D01*
X368487Y279057D01*
X368717Y279912D01*
Y280797D01*
X368487Y281652D01*
X368045Y282419D01*
X367419Y283045D01*
X366652Y283487D01*
X365797Y283717D01*
D02*
G37*
G36*
X329596Y279292D02*
X328543D01*
X327526Y279019D01*
X326614Y278493D01*
X325869Y277748D01*
X325342Y276836D01*
X325070Y275819D01*
Y274765D01*
X325342Y273748D01*
X325869Y272836D01*
X326614Y272091D01*
X327526Y271565D01*
X328543Y271292D01*
X329596D01*
X330614Y271565D01*
X331526Y272091D01*
X332271Y272836D01*
X332797Y273748D01*
X333070Y274765D01*
Y275819D01*
X332797Y276836D01*
X332271Y277748D01*
X331526Y278493D01*
X330614Y279019D01*
X329596Y279292D01*
D02*
G37*
G36*
X269596D02*
X268543D01*
X267526Y279019D01*
X266614Y278493D01*
X265869Y277748D01*
X265342Y276836D01*
X265070Y275819D01*
Y274765D01*
X265342Y273748D01*
X265869Y272836D01*
X266614Y272091D01*
X267526Y271565D01*
X268543Y271292D01*
X269596D01*
X270614Y271565D01*
X271526Y272091D01*
X272271Y272836D01*
X272797Y273748D01*
X273070Y274765D01*
Y275819D01*
X272797Y276836D01*
X272271Y277748D01*
X271526Y278493D01*
X270614Y279019D01*
X269596Y279292D01*
D02*
G37*
G36*
X384584Y273573D02*
X383733Y273345D01*
X382935Y272884D01*
X382283Y272233D01*
X381822Y271435D01*
X381594Y270584D01*
X384584D01*
Y273573D01*
D02*
G37*
G36*
X412338Y275024D02*
X411284D01*
X410267Y274751D01*
X409355Y274224D01*
X408610Y273480D01*
X408084Y272568D01*
X407811Y271550D01*
Y270497D01*
X408084Y269480D01*
X408610Y268568D01*
X409355Y267823D01*
X410267Y267296D01*
X411284Y267024D01*
X412338D01*
X413355Y267296D01*
X414267Y267823D01*
X415012Y268568D01*
X415538Y269480D01*
X415811Y270497D01*
Y271550D01*
X415538Y272568D01*
X415012Y273480D01*
X414267Y274224D01*
X413355Y274751D01*
X412338Y275024D01*
D02*
G37*
G36*
X384584Y269584D02*
X381594D01*
X381769Y268932D01*
X366394Y253557D01*
X365854Y253701D01*
Y250854D01*
X368701D01*
X368557Y251394D01*
X383932Y266769D01*
X384584Y266594D01*
Y269584D01*
D02*
G37*
G36*
X388573D02*
X385584D01*
Y266594D01*
X386435Y266822D01*
X387233Y267283D01*
X387884Y267935D01*
X388345Y268733D01*
X388573Y269584D01*
D02*
G37*
G36*
X269596Y269292D02*
X269570D01*
Y265792D01*
X273070D01*
Y265819D01*
X272797Y266836D01*
X272271Y267748D01*
X271526Y268493D01*
X270614Y269019D01*
X269596Y269292D01*
D02*
G37*
G36*
X257255Y268781D02*
Y265792D01*
X260245D01*
X260017Y266643D01*
X259556Y267441D01*
X258904Y268093D01*
X258106Y268553D01*
X257255Y268781D01*
D02*
G37*
G36*
X256255D02*
X255404Y268553D01*
X254606Y268093D01*
X253955Y267441D01*
X253494Y266643D01*
X253266Y265792D01*
X256255D01*
Y268781D01*
D02*
G37*
G36*
X268570Y269292D02*
X268543D01*
X267526Y269019D01*
X266614Y268493D01*
X265869Y267748D01*
X265342Y266836D01*
X265070Y265819D01*
Y265792D01*
X268570D01*
Y269292D01*
D02*
G37*
G36*
X273070Y264792D02*
X269070D01*
X265070D01*
Y264765D01*
X265342Y263748D01*
X265869Y262836D01*
X266614Y262091D01*
X267081Y261821D01*
X266947Y261321D01*
X257392D01*
X257326Y261821D01*
X258106Y262031D01*
X258904Y262491D01*
X259556Y263143D01*
X260017Y263941D01*
X260245Y264792D01*
X253266D01*
X253494Y263941D01*
X253955Y263143D01*
X254606Y262491D01*
X255404Y262031D01*
X256185Y261821D01*
X256119Y261321D01*
X238926D01*
X238341Y261205D01*
X237844Y260874D01*
X187501Y210530D01*
X187170Y210034D01*
X187053Y209449D01*
Y161181D01*
X187170Y160596D01*
X187501Y160100D01*
X220296Y127305D01*
X220288Y127292D01*
X220016Y126275D01*
Y125221D01*
X220288Y124204D01*
X220815Y123292D01*
X221560Y122547D01*
X222472Y122021D01*
X223489Y121748D01*
X224542D01*
X225560Y122021D01*
X226472Y122547D01*
X227217Y123292D01*
X227743Y124204D01*
X228016Y125221D01*
Y126275D01*
X227743Y127292D01*
X227217Y128204D01*
X226472Y128949D01*
X225560Y129475D01*
X224542Y129748D01*
X223489D01*
X222472Y129475D01*
X222459Y129468D01*
X190112Y161815D01*
Y208815D01*
X239559Y258263D01*
X265730D01*
X265922Y257801D01*
X265869Y257748D01*
X265342Y256836D01*
X265070Y255819D01*
Y254765D01*
X265342Y253748D01*
X265869Y252836D01*
X266614Y252091D01*
X267526Y251565D01*
X268543Y251292D01*
X269596D01*
X270614Y251565D01*
X271526Y252091D01*
X272271Y252836D01*
X272797Y253748D01*
X273070Y254765D01*
Y255819D01*
X272797Y256836D01*
X272271Y257748D01*
X271526Y258493D01*
X271420Y258554D01*
X271354Y259050D01*
X271799Y259494D01*
X275636D01*
Y244021D01*
X270627Y239012D01*
X270614Y239019D01*
X269596Y239292D01*
X268543D01*
X267526Y239019D01*
X266614Y238493D01*
X265869Y237748D01*
X265342Y236836D01*
X265070Y235819D01*
Y234765D01*
X265342Y233748D01*
X265869Y232836D01*
X266614Y232091D01*
X267526Y231565D01*
X268543Y231292D01*
X269596D01*
X270614Y231565D01*
X271526Y232091D01*
X272271Y232836D01*
X272797Y233748D01*
X273070Y234765D01*
Y235819D01*
X272797Y236836D01*
X272790Y236849D01*
X278247Y242306D01*
X278578Y242802D01*
X278695Y243388D01*
Y260438D01*
X278578Y261023D01*
X278247Y261519D01*
X277661Y262105D01*
X277165Y262437D01*
X276580Y262553D01*
X272661D01*
X272396Y263053D01*
X272797Y263748D01*
X273070Y264765D01*
Y264792D01*
D02*
G37*
G36*
X329596Y269292D02*
X328543D01*
X327526Y269019D01*
X326614Y268493D01*
X325869Y267748D01*
X325342Y266836D01*
X325070Y265819D01*
Y264765D01*
X325342Y263748D01*
X325869Y262836D01*
X326614Y262091D01*
X327526Y261565D01*
X328543Y261292D01*
X329596D01*
X330614Y261565D01*
X331526Y262091D01*
X332271Y262836D01*
X332797Y263748D01*
X333070Y264765D01*
Y265819D01*
X332797Y266836D01*
X332271Y267748D01*
X331526Y268493D01*
X330614Y269019D01*
X329596Y269292D01*
D02*
G37*
G36*
X412338Y265024D02*
X411284D01*
X410267Y264751D01*
X409355Y264224D01*
X408610Y263480D01*
X408084Y262568D01*
X407811Y261550D01*
Y260497D01*
X408084Y259480D01*
X408610Y258568D01*
X409355Y257823D01*
X410267Y257296D01*
X411284Y257024D01*
X412338D01*
X413355Y257296D01*
X414267Y257823D01*
X415012Y258568D01*
X415538Y259480D01*
X415811Y260497D01*
Y261550D01*
X415538Y262568D01*
X415012Y263480D01*
X414267Y264224D01*
X413355Y264751D01*
X412338Y265024D01*
D02*
G37*
G36*
X329596Y259292D02*
X328543D01*
X327526Y259019D01*
X326614Y258493D01*
X325869Y257748D01*
X325342Y256836D01*
X325070Y255819D01*
Y254765D01*
X325342Y253748D01*
X325869Y252836D01*
X326614Y252091D01*
X327526Y251565D01*
X328543Y251292D01*
X329596D01*
X330614Y251565D01*
X331526Y252091D01*
X332271Y252836D01*
X332797Y253748D01*
X333070Y254765D01*
Y255819D01*
X332797Y256836D01*
X332271Y257748D01*
X331526Y258493D01*
X330614Y259019D01*
X329596Y259292D01*
D02*
G37*
G36*
X333070Y284792D02*
X329570D01*
Y281292D01*
X329596D01*
X330614Y281565D01*
X331054Y281819D01*
X362010Y250863D01*
X362007Y250854D01*
X364854D01*
Y253701D01*
X364057Y253487D01*
X363837Y253361D01*
X332935Y284263D01*
X333070Y284765D01*
Y284792D01*
D02*
G37*
G36*
X412338Y255024D02*
X411284D01*
X410267Y254751D01*
X409355Y254224D01*
X408610Y253480D01*
X408084Y252568D01*
X407811Y251550D01*
Y250497D01*
X408084Y249480D01*
X408610Y248568D01*
X409355Y247823D01*
X410267Y247296D01*
X411284Y247024D01*
X412338D01*
X413355Y247296D01*
X414267Y247823D01*
X415012Y248568D01*
X415538Y249480D01*
X415811Y250497D01*
Y251550D01*
X415538Y252568D01*
X415012Y253480D01*
X414267Y254224D01*
X413355Y254751D01*
X412338Y255024D01*
D02*
G37*
G36*
X364854Y249854D02*
X362007D01*
X362221Y249057D01*
X362664Y248290D01*
X363290Y247664D01*
X364057Y247221D01*
X364854Y247007D01*
Y249854D01*
D02*
G37*
G36*
X368701D02*
X365854D01*
Y247007D01*
X366652Y247221D01*
X367419Y247664D01*
X368045Y248290D01*
X368487Y249057D01*
X368701Y249854D01*
D02*
G37*
G36*
X329596Y249292D02*
X328543D01*
X327526Y249019D01*
X326614Y248493D01*
X325869Y247748D01*
X325342Y246836D01*
X325070Y245819D01*
Y244765D01*
X325342Y243748D01*
X325869Y242836D01*
X326614Y242091D01*
X327526Y241565D01*
X328543Y241292D01*
X329596D01*
X330614Y241565D01*
X331526Y242091D01*
X332271Y242836D01*
X332797Y243748D01*
X333070Y244765D01*
Y245819D01*
X332797Y246836D01*
X332271Y247748D01*
X331526Y248493D01*
X330614Y249019D01*
X329596Y249292D01*
D02*
G37*
G36*
X269596D02*
X268543D01*
X267526Y249019D01*
X266614Y248493D01*
X265869Y247748D01*
X265342Y246836D01*
X265338Y246821D01*
X248835D01*
X248250Y246705D01*
X247754Y246374D01*
X202260Y200880D01*
X201929Y200384D01*
X201812Y199798D01*
Y156422D01*
X201929Y155837D01*
X202260Y155341D01*
X220296Y137305D01*
X220288Y137292D01*
X220016Y136275D01*
Y135221D01*
X220288Y134204D01*
X220815Y133292D01*
X221560Y132547D01*
X222472Y132021D01*
X223489Y131748D01*
X224542D01*
X225560Y132021D01*
X226472Y132547D01*
X227217Y133292D01*
X227743Y134204D01*
X228016Y135221D01*
Y136275D01*
X227743Y137292D01*
X227217Y138204D01*
X226472Y138949D01*
X225560Y139475D01*
X224542Y139748D01*
X223489D01*
X222472Y139475D01*
X222459Y139468D01*
X204871Y157056D01*
Y199165D01*
X249469Y243763D01*
X265338D01*
X265342Y243748D01*
X265869Y242836D01*
X266614Y242091D01*
X267526Y241565D01*
X268543Y241292D01*
X269596D01*
X270614Y241565D01*
X271526Y242091D01*
X272271Y242836D01*
X272797Y243748D01*
X273070Y244765D01*
Y245819D01*
X272797Y246836D01*
X272271Y247748D01*
X271526Y248493D01*
X270614Y249019D01*
X269596Y249292D01*
D02*
G37*
G36*
X415811Y245024D02*
X407811D01*
Y237024D01*
X415811D01*
Y245024D01*
D02*
G37*
G36*
X329596Y239292D02*
X328543D01*
X327526Y239019D01*
X326614Y238493D01*
X325869Y237748D01*
X325342Y236836D01*
X325070Y235819D01*
Y234765D01*
X325342Y233748D01*
X325869Y232836D01*
X326614Y232091D01*
X327526Y231565D01*
X328543Y231292D01*
X329596D01*
X330614Y231565D01*
X331526Y232091D01*
X332271Y232836D01*
X332797Y233748D01*
X333070Y234765D01*
Y235819D01*
X332797Y236836D01*
X332271Y237748D01*
X331526Y238493D01*
X330614Y239019D01*
X329596Y239292D01*
D02*
G37*
G36*
Y229292D02*
X328543D01*
X327526Y229019D01*
X326614Y228493D01*
X325869Y227748D01*
X325342Y226836D01*
X325070Y225819D01*
Y224765D01*
X325342Y223748D01*
X325869Y222836D01*
X326614Y222091D01*
X327526Y221565D01*
X328543Y221292D01*
X329596D01*
X330614Y221565D01*
X331526Y222091D01*
X332271Y222836D01*
X332797Y223748D01*
X333070Y224765D01*
Y225819D01*
X332797Y226836D01*
X332271Y227748D01*
X331526Y228493D01*
X330614Y229019D01*
X329596Y229292D01*
D02*
G37*
G36*
X269596D02*
X268543D01*
X267526Y229019D01*
X266614Y228493D01*
X265869Y227748D01*
X265342Y226836D01*
X265070Y225819D01*
Y224765D01*
X265342Y223748D01*
X265869Y222836D01*
X266614Y222091D01*
X267526Y221565D01*
X268543Y221292D01*
X269596D01*
X270614Y221565D01*
X271526Y222091D01*
X272271Y222836D01*
X272797Y223748D01*
X273070Y224765D01*
Y225819D01*
X272797Y226836D01*
X272271Y227748D01*
X271526Y228493D01*
X270614Y229019D01*
X269596Y229292D01*
D02*
G37*
G36*
X329596Y219292D02*
X328543D01*
X327526Y219019D01*
X326614Y218493D01*
X325869Y217748D01*
X325342Y216836D01*
X325070Y215819D01*
Y214765D01*
X325342Y213748D01*
X325869Y212836D01*
X326614Y212091D01*
X327526Y211565D01*
X328543Y211292D01*
X329596D01*
X330614Y211565D01*
X331526Y212091D01*
X332271Y212836D01*
X332797Y213748D01*
X333070Y214765D01*
Y215819D01*
X332797Y216836D01*
X332271Y217748D01*
X331526Y218493D01*
X330614Y219019D01*
X329596Y219292D01*
D02*
G37*
G36*
X269596Y209292D02*
X268543D01*
X267526Y209019D01*
X266614Y208493D01*
X265869Y207748D01*
X265342Y206836D01*
X265070Y205819D01*
Y204765D01*
X265342Y203748D01*
X265869Y202836D01*
X266614Y202091D01*
X267526Y201565D01*
X268543Y201292D01*
X269596D01*
X270614Y201565D01*
X271526Y202091D01*
X272271Y202836D01*
X272797Y203748D01*
X273070Y204765D01*
Y205819D01*
X272797Y206836D01*
X272271Y207748D01*
X271526Y208493D01*
X270614Y209019D01*
X269596Y209292D01*
D02*
G37*
G36*
X252857Y203402D02*
X251868D01*
X250912Y203146D01*
X250056Y202651D01*
X249357Y201952D01*
X248862Y201095D01*
X248606Y200140D01*
Y199151D01*
X248862Y198196D01*
X249357Y197339D01*
X250056Y196640D01*
X250912Y196146D01*
X251868Y195890D01*
X252857D01*
X253812Y196146D01*
X254668Y196640D01*
X255368Y197339D01*
X255862Y198196D01*
X256118Y199151D01*
Y200140D01*
X255862Y201095D01*
X255368Y201952D01*
X254668Y202651D01*
X253812Y203146D01*
X252857Y203402D01*
D02*
G37*
G36*
X329596Y199292D02*
X328543D01*
X327526Y199019D01*
X326614Y198493D01*
X325869Y197748D01*
X325342Y196836D01*
X325070Y195819D01*
Y194765D01*
X325342Y193748D01*
X325869Y192836D01*
X326093Y192612D01*
X325902Y192150D01*
X274375D01*
X272790Y193735D01*
X272797Y193748D01*
X273070Y194765D01*
Y195819D01*
X272797Y196836D01*
X272271Y197748D01*
X271526Y198493D01*
X270614Y199019D01*
X269596Y199292D01*
X268543D01*
X267526Y199019D01*
X266614Y198493D01*
X265869Y197748D01*
X265342Y196836D01*
X265070Y195819D01*
Y194765D01*
X265342Y193748D01*
X265869Y192836D01*
X266614Y192091D01*
X267526Y191565D01*
X268543Y191292D01*
X269596D01*
X270614Y191565D01*
X270627Y191572D01*
X272660Y189539D01*
X273156Y189208D01*
X273741Y189091D01*
X326650D01*
X326784Y188591D01*
X326614Y188493D01*
X325869Y187748D01*
X325342Y186836D01*
X325070Y185819D01*
Y184765D01*
X325342Y183748D01*
X325869Y182836D01*
X326614Y182091D01*
X327526Y181565D01*
X328543Y181292D01*
X329596D01*
X330614Y181565D01*
X331526Y182091D01*
X332271Y182836D01*
X332797Y183748D01*
X333070Y184765D01*
Y184840D01*
X333532Y185031D01*
X339809Y178754D01*
Y125830D01*
X254257Y40279D01*
X253898Y40486D01*
X252627Y40827D01*
X251310D01*
X250039Y40486D01*
X248898Y39828D01*
X247968Y38897D01*
X247309Y37757D01*
X246969Y36485D01*
Y35168D01*
X247309Y33897D01*
X247968Y32757D01*
X248898Y31826D01*
X250039Y31168D01*
X251310Y30827D01*
X252627D01*
X253898Y31168D01*
X255039Y31826D01*
X255970Y32757D01*
X256628Y33897D01*
X256968Y35168D01*
Y36485D01*
X256628Y37757D01*
X256420Y38116D01*
X342420Y124115D01*
X342752Y124612D01*
X342868Y125197D01*
Y179387D01*
X342752Y179972D01*
X342420Y180469D01*
X331430Y191459D01*
X331496Y192074D01*
X331526Y192091D01*
X332271Y192836D01*
X332797Y193748D01*
X333070Y194765D01*
Y195819D01*
X332797Y196836D01*
X332271Y197748D01*
X331526Y198493D01*
X330614Y199019D01*
X329596Y199292D01*
D02*
G37*
G36*
X408086Y193576D02*
X406875D01*
X405705Y193263D01*
X404656Y192657D01*
X403799Y191801D01*
X403194Y190752D01*
X402880Y189582D01*
Y188371D01*
X403194Y187201D01*
X403799Y186152D01*
X404656Y185295D01*
X405705Y184690D01*
X406875Y184376D01*
X408086D01*
X409256Y184690D01*
X410305Y185295D01*
X411161Y186152D01*
X411767Y187201D01*
X412080Y188371D01*
Y189582D01*
X411767Y190752D01*
X411161Y191801D01*
X410305Y192657D01*
X409256Y193263D01*
X408086Y193576D01*
D02*
G37*
G36*
X224542Y189748D02*
X223489D01*
X222472Y189475D01*
X221560Y188949D01*
X220815Y188204D01*
X220288Y187292D01*
X220016Y186275D01*
Y185221D01*
X220288Y184204D01*
X220815Y183292D01*
X221560Y182547D01*
X222472Y182021D01*
X223489Y181748D01*
X224542D01*
X225560Y182021D01*
X226472Y182547D01*
X227217Y183292D01*
X227743Y184204D01*
X228016Y185221D01*
Y186275D01*
X227743Y187292D01*
X227217Y188204D01*
X226472Y188949D01*
X225560Y189475D01*
X224542Y189748D01*
D02*
G37*
G36*
X84267Y189512D02*
X83214D01*
X82196Y189239D01*
X81284Y188713D01*
X80539Y187968D01*
X80013Y187056D01*
X79740Y186038D01*
Y184985D01*
X80013Y183968D01*
X80539Y183056D01*
X81284Y182311D01*
X82196Y181784D01*
X83214Y181512D01*
X84267D01*
X85284Y181784D01*
X86196Y182311D01*
X86941Y183056D01*
X87468Y183968D01*
X87740Y184985D01*
Y186038D01*
X87468Y187056D01*
X86941Y187968D01*
X86196Y188713D01*
X85284Y189239D01*
X84267Y189512D01*
D02*
G37*
G36*
X269596Y189292D02*
X268543D01*
X267526Y189019D01*
X266614Y188493D01*
X265869Y187748D01*
X265342Y186836D01*
X265070Y185819D01*
Y184765D01*
X265342Y183748D01*
X265869Y182836D01*
X266614Y182091D01*
X267526Y181565D01*
X268543Y181292D01*
X269596D01*
X270614Y181565D01*
X271526Y182091D01*
X272271Y182836D01*
X272797Y183748D01*
X273070Y184765D01*
Y185819D01*
X272797Y186836D01*
X272271Y187748D01*
X271526Y188493D01*
X270614Y189019D01*
X269596Y189292D01*
D02*
G37*
G36*
X418001Y178756D02*
X417980D01*
Y175303D01*
X421433D01*
Y175323D01*
X421164Y176329D01*
X420643Y177230D01*
X419907Y177966D01*
X419006Y178487D01*
X418001Y178756D01*
D02*
G37*
G36*
X416980D02*
X416960D01*
X415955Y178487D01*
X415053Y177966D01*
X414317Y177230D01*
X413797Y176329D01*
X413528Y175323D01*
Y175303D01*
X416980D01*
Y178756D01*
D02*
G37*
G36*
X84267Y179512D02*
X83214D01*
X82196Y179239D01*
X81284Y178713D01*
X80539Y177968D01*
X80013Y177056D01*
X79740Y176038D01*
Y174985D01*
X80013Y173968D01*
X80539Y173056D01*
X81284Y172311D01*
X82196Y171784D01*
X83214Y171512D01*
X84267D01*
X85284Y171784D01*
X86196Y172311D01*
X86941Y173056D01*
X87468Y173968D01*
X87740Y174985D01*
Y176038D01*
X87468Y177056D01*
X86941Y177968D01*
X86196Y178713D01*
X85284Y179239D01*
X84267Y179512D01*
D02*
G37*
G36*
X329596Y179292D02*
X328543D01*
X327526Y179019D01*
X326614Y178493D01*
X325869Y177748D01*
X325342Y176836D01*
X325070Y175819D01*
Y174765D01*
X325342Y173748D01*
X325869Y172836D01*
X326614Y172091D01*
X327526Y171565D01*
X328543Y171292D01*
X329596D01*
X330614Y171565D01*
X331526Y172091D01*
X332271Y172836D01*
X332797Y173748D01*
X333070Y174765D01*
Y175819D01*
X332797Y176836D01*
X332271Y177748D01*
X331526Y178493D01*
X330614Y179019D01*
X329596Y179292D01*
D02*
G37*
G36*
X224542Y179748D02*
X223489D01*
X222472Y179475D01*
X221560Y178949D01*
X220815Y178204D01*
X220288Y177292D01*
X220016Y176275D01*
Y175221D01*
X220288Y174204D01*
X220815Y173292D01*
X221560Y172547D01*
X222472Y172021D01*
X223489Y171748D01*
X224542D01*
X225560Y172021D01*
X226472Y172547D01*
X227217Y173292D01*
X227620Y173991D01*
X265277D01*
X265342Y173748D01*
X265869Y172836D01*
X266614Y172091D01*
X267526Y171565D01*
X268543Y171292D01*
X269596D01*
X270614Y171565D01*
X271526Y172091D01*
X272271Y172836D01*
X272797Y173748D01*
X273070Y174765D01*
Y175819D01*
X272797Y176836D01*
X272271Y177748D01*
X271526Y178493D01*
X270614Y179019D01*
X269596Y179292D01*
X268543D01*
X267526Y179019D01*
X266614Y178493D01*
X265869Y177748D01*
X265466Y177049D01*
X227808D01*
X227743Y177292D01*
X227217Y178204D01*
X226472Y178949D01*
X225560Y179475D01*
X224542Y179748D01*
D02*
G37*
G36*
X421433Y174303D02*
X417980D01*
Y170850D01*
X418001D01*
X419006Y171120D01*
X419907Y171640D01*
X420643Y172376D01*
X421164Y173277D01*
X421433Y174283D01*
Y174303D01*
D02*
G37*
G36*
X416980D02*
X413528D01*
Y174283D01*
X413797Y173277D01*
X414317Y172376D01*
X415053Y171640D01*
X415955Y171120D01*
X416960Y170850D01*
X416980D01*
Y174303D01*
D02*
G37*
G36*
X408001Y178756D02*
X406960D01*
X405955Y178487D01*
X405053Y177966D01*
X404317Y177230D01*
X403797Y176329D01*
X403528Y175323D01*
Y174283D01*
X403797Y173277D01*
X404317Y172376D01*
X405053Y171640D01*
X405955Y171120D01*
X406960Y170850D01*
X408001D01*
X409006Y171120D01*
X409907Y171640D01*
X410643Y172376D01*
X411164Y173277D01*
X411433Y174283D01*
Y175323D01*
X411164Y176329D01*
X410643Y177230D01*
X409907Y177966D01*
X409006Y178487D01*
X408001Y178756D01*
D02*
G37*
G36*
X401433D02*
X393528D01*
Y170850D01*
X401433D01*
Y178756D01*
D02*
G37*
G36*
X252857Y173402D02*
X251868D01*
X250912Y173146D01*
X250056Y172651D01*
X249357Y171952D01*
X248862Y171095D01*
X248606Y170140D01*
Y169151D01*
X248862Y168196D01*
X249357Y167340D01*
X250056Y166640D01*
X250912Y166146D01*
X251868Y165890D01*
X252857D01*
X253812Y166146D01*
X254668Y166640D01*
X255368Y167340D01*
X255862Y168196D01*
X256118Y169151D01*
Y170140D01*
X255862Y171095D01*
X255368Y171952D01*
X254668Y172651D01*
X253812Y173146D01*
X252857Y173402D01*
D02*
G37*
G36*
X412659Y165006D02*
Y162017D01*
X415649D01*
X415421Y162868D01*
X414960Y163666D01*
X414308Y164318D01*
X413510Y164778D01*
X412659Y165006D01*
D02*
G37*
G36*
X411659D02*
X410808Y164778D01*
X410010Y164318D01*
X409359Y163666D01*
X408898Y162868D01*
X408670Y162017D01*
X411659D01*
Y165006D01*
D02*
G37*
G36*
X84267Y169512D02*
X83214D01*
X82196Y169239D01*
X81284Y168713D01*
X80539Y167968D01*
X80013Y167056D01*
X79740Y166038D01*
Y164985D01*
X80013Y163968D01*
X80539Y163056D01*
X81284Y162311D01*
X82196Y161784D01*
X83214Y161512D01*
X84267D01*
X85284Y161784D01*
X86196Y162311D01*
X86941Y163056D01*
X87468Y163968D01*
X87740Y164985D01*
Y166038D01*
X87468Y167056D01*
X86941Y167968D01*
X86196Y168713D01*
X85284Y169239D01*
X84267Y169512D01*
D02*
G37*
G36*
X329596Y169292D02*
X328543D01*
X327526Y169019D01*
X326614Y168493D01*
X325869Y167748D01*
X325342Y166836D01*
X325070Y165819D01*
Y164765D01*
X325342Y163748D01*
X325869Y162836D01*
X326614Y162091D01*
X327526Y161565D01*
X328543Y161292D01*
X329596D01*
X330614Y161565D01*
X331526Y162091D01*
X332271Y162836D01*
X332797Y163748D01*
X333070Y164765D01*
Y165819D01*
X332797Y166836D01*
X332271Y167748D01*
X331526Y168493D01*
X330614Y169019D01*
X329596Y169292D01*
D02*
G37*
G36*
X224542Y169748D02*
X223489D01*
X222472Y169475D01*
X221560Y168949D01*
X220815Y168204D01*
X220288Y167292D01*
X220016Y166275D01*
Y165221D01*
X220288Y164204D01*
X220815Y163292D01*
X221560Y162547D01*
X222472Y162021D01*
X223489Y161748D01*
X224542D01*
X225560Y162021D01*
X226472Y162547D01*
X227217Y163292D01*
X227743Y164204D01*
X227747Y164219D01*
X235981D01*
X239863Y160336D01*
X240360Y160004D01*
X240945Y159888D01*
X265195D01*
X265780Y160004D01*
X266277Y160336D01*
X267513Y161572D01*
X267526Y161565D01*
X268543Y161292D01*
X269596D01*
X270614Y161565D01*
X271526Y162091D01*
X272271Y162836D01*
X272797Y163748D01*
X273070Y164765D01*
Y165819D01*
X272797Y166836D01*
X272271Y167748D01*
X271526Y168493D01*
X270614Y169019D01*
X269596Y169292D01*
X268543D01*
X267526Y169019D01*
X266614Y168493D01*
X265869Y167748D01*
X265342Y166836D01*
X265070Y165819D01*
Y164765D01*
X265342Y163748D01*
X265350Y163735D01*
X264562Y162947D01*
X241578D01*
X237696Y166830D01*
X237199Y167161D01*
X236614Y167277D01*
X227747D01*
X227743Y167292D01*
X227217Y168204D01*
X226472Y168949D01*
X225560Y169475D01*
X224542Y169748D01*
D02*
G37*
G36*
X415649Y161017D02*
X412659D01*
Y158027D01*
X413510Y158255D01*
X414308Y158716D01*
X414960Y159368D01*
X415421Y160166D01*
X415649Y161017D01*
D02*
G37*
G36*
X411659D02*
X408670D01*
X408898Y160166D01*
X409359Y159368D01*
X410010Y158716D01*
X410808Y158255D01*
X411659Y158027D01*
Y161017D01*
D02*
G37*
G36*
X84267Y159512D02*
X83214D01*
X82196Y159239D01*
X81284Y158713D01*
X80539Y157968D01*
X80013Y157056D01*
X79740Y156038D01*
Y154985D01*
X80013Y153968D01*
X80539Y153056D01*
X81284Y152311D01*
X82196Y151784D01*
X83214Y151512D01*
X84267D01*
X85284Y151784D01*
X86196Y152311D01*
X86941Y153056D01*
X87468Y153968D01*
X87740Y154985D01*
Y156038D01*
X87468Y157056D01*
X86941Y157968D01*
X86196Y158713D01*
X85284Y159239D01*
X84267Y159512D01*
D02*
G37*
G36*
X224542Y159748D02*
X223489D01*
X222472Y159475D01*
X221560Y158949D01*
X220815Y158204D01*
X220288Y157292D01*
X220016Y156275D01*
Y155221D01*
X220288Y154204D01*
X220815Y153292D01*
X221560Y152547D01*
X222472Y152021D01*
X223489Y151748D01*
X224542D01*
X225560Y152021D01*
X226472Y152547D01*
X227217Y153292D01*
X227620Y153991D01*
X265277D01*
X265342Y153748D01*
X265869Y152836D01*
X266614Y152091D01*
X267526Y151565D01*
X268543Y151292D01*
X269596D01*
X270614Y151565D01*
X271526Y152091D01*
X272271Y152836D01*
X272797Y153748D01*
X273070Y154765D01*
Y155819D01*
X272797Y156836D01*
X272271Y157748D01*
X271526Y158493D01*
X270614Y159019D01*
X269596Y159292D01*
X268543D01*
X267526Y159019D01*
X266614Y158493D01*
X265869Y157748D01*
X265466Y157049D01*
X227808D01*
X227743Y157292D01*
X227217Y158204D01*
X226472Y158949D01*
X225560Y159475D01*
X224542Y159748D01*
D02*
G37*
G36*
X124542Y149748D02*
X123489D01*
X122472Y149475D01*
X121560Y148949D01*
X120815Y148204D01*
X120288Y147292D01*
X120016Y146275D01*
Y145221D01*
X120288Y144204D01*
X120815Y143292D01*
X121560Y142547D01*
X122472Y142021D01*
X123489Y141748D01*
X124542D01*
X125560Y142021D01*
X126472Y142547D01*
X127217Y143292D01*
X127743Y144204D01*
X128016Y145221D01*
Y146275D01*
X127743Y147292D01*
X127217Y148204D01*
X126472Y148949D01*
X125560Y149475D01*
X124542Y149748D01*
D02*
G37*
G36*
X84267Y149512D02*
X83214D01*
X82196Y149239D01*
X81284Y148713D01*
X80539Y147968D01*
X80013Y147056D01*
X79740Y146038D01*
Y144985D01*
X80013Y143968D01*
X80539Y143056D01*
X81284Y142311D01*
X82196Y141784D01*
X83214Y141512D01*
X84267D01*
X85284Y141784D01*
X86196Y142311D01*
X86941Y143056D01*
X87468Y143968D01*
X87740Y144985D01*
Y146038D01*
X87468Y147056D01*
X86941Y147968D01*
X86196Y148713D01*
X85284Y149239D01*
X84267Y149512D01*
D02*
G37*
G36*
X329629Y149542D02*
X328510D01*
X327429Y149252D01*
X326460Y148693D01*
X325669Y147902D01*
X325109Y146932D01*
X324820Y145852D01*
Y144732D01*
X325109Y143652D01*
X325669Y142682D01*
X326460Y141891D01*
X327429Y141332D01*
X328510Y141042D01*
X329629D01*
X330710Y141332D01*
X331679Y141891D01*
X332471Y142682D01*
X333030Y143652D01*
X333320Y144732D01*
Y145852D01*
X333030Y146932D01*
X332471Y147902D01*
X331679Y148693D01*
X330710Y149252D01*
X329629Y149542D01*
D02*
G37*
G36*
X269629D02*
X268510D01*
X267429Y149252D01*
X266460Y148693D01*
X265669Y147902D01*
X265109Y146932D01*
X264820Y145852D01*
Y144732D01*
X265109Y143652D01*
X265669Y142682D01*
X266460Y141891D01*
X267429Y141332D01*
X268510Y141042D01*
X269629D01*
X270710Y141332D01*
X271679Y141891D01*
X272471Y142682D01*
X273030Y143652D01*
X273320Y144732D01*
Y145852D01*
X273030Y146932D01*
X272471Y147902D01*
X271679Y148693D01*
X270710Y149252D01*
X269629Y149542D01*
D02*
G37*
G36*
X361524Y141589D02*
Y138335D01*
X364778D01*
X364524Y139284D01*
X364029Y140141D01*
X363330Y140840D01*
X362473Y141335D01*
X361524Y141589D01*
D02*
G37*
G36*
X360524Y141589D02*
X359574Y141335D01*
X358717Y140840D01*
X358018Y140141D01*
X357524Y139284D01*
X357269Y138335D01*
X360524D01*
Y141589D01*
D02*
G37*
G36*
X364778Y137335D02*
X361524D01*
Y134080D01*
X362473Y134335D01*
X363330Y134829D01*
X364029Y135529D01*
X364524Y136385D01*
X364778Y137335D01*
D02*
G37*
G36*
X360524D02*
X357269D01*
X357524Y136385D01*
X358018Y135529D01*
X358717Y134829D01*
X359574Y134335D01*
X360524Y134080D01*
Y137335D01*
D02*
G37*
G36*
X333070Y159292D02*
X325070D01*
Y153455D01*
X320375Y148760D01*
X320044Y148264D01*
X319927Y147679D01*
Y138030D01*
X315710Y133813D01*
X262051D01*
X249034Y146829D01*
X248538Y147161D01*
X247953Y147277D01*
X227747D01*
X227743Y147292D01*
X227217Y148204D01*
X226472Y148949D01*
X225560Y149475D01*
X224542Y149748D01*
X223489D01*
X222472Y149475D01*
X221560Y148949D01*
X220815Y148204D01*
X220288Y147292D01*
X220016Y146275D01*
Y145221D01*
X220288Y144204D01*
X220815Y143292D01*
X221560Y142547D01*
X222472Y142021D01*
X223489Y141748D01*
X224542D01*
X225560Y142021D01*
X226472Y142547D01*
X227217Y143292D01*
X227743Y144204D01*
X227747Y144219D01*
X247319D01*
X260336Y131202D01*
X260832Y130870D01*
X261417Y130754D01*
X316343D01*
X316929Y130870D01*
X317425Y131202D01*
X322538Y136315D01*
X322869Y136811D01*
X322986Y137397D01*
Y147045D01*
X327233Y151292D01*
X333070D01*
Y159292D01*
D02*
G37*
G36*
X124542Y139748D02*
X123489D01*
X122472Y139475D01*
X121560Y138949D01*
X120815Y138204D01*
X120288Y137292D01*
X120016Y136275D01*
Y135221D01*
X120288Y134204D01*
X120815Y133292D01*
X121560Y132547D01*
X122472Y132021D01*
X123489Y131748D01*
X124542D01*
X125560Y132021D01*
X126472Y132547D01*
X127217Y133292D01*
X127743Y134204D01*
X128016Y135221D01*
Y136275D01*
X127743Y137292D01*
X127217Y138204D01*
X126472Y138949D01*
X125560Y139475D01*
X124542Y139748D01*
D02*
G37*
G36*
X84267Y139512D02*
X83214D01*
X82196Y139239D01*
X81284Y138713D01*
X80539Y137968D01*
X80013Y137056D01*
X79740Y136038D01*
Y134985D01*
X80013Y133968D01*
X80539Y133056D01*
X81284Y132311D01*
X82196Y131784D01*
X83214Y131512D01*
X84267D01*
X85284Y131784D01*
X86196Y132311D01*
X86941Y133056D01*
X87468Y133968D01*
X87740Y134985D01*
Y136038D01*
X87468Y137056D01*
X86941Y137968D01*
X86196Y138713D01*
X85284Y139239D01*
X84267Y139512D01*
D02*
G37*
G36*
X399345Y132268D02*
X398292D01*
X397275Y131995D01*
X396363Y131468D01*
X395618Y130724D01*
X395092Y129812D01*
X394819Y128794D01*
Y127741D01*
X395092Y126724D01*
X395618Y125812D01*
X396363Y125067D01*
X397275Y124540D01*
X398292Y124268D01*
X399345D01*
X400363Y124540D01*
X401275Y125067D01*
X402020Y125812D01*
X402546Y126724D01*
X402819Y127741D01*
Y128794D01*
X402546Y129812D01*
X402020Y130724D01*
X401275Y131468D01*
X400363Y131995D01*
X399345Y132268D01*
D02*
G37*
G36*
X124542Y129748D02*
X123489D01*
X122472Y129475D01*
X121560Y128949D01*
X120815Y128204D01*
X120288Y127292D01*
X120016Y126275D01*
Y125221D01*
X120288Y124204D01*
X120815Y123292D01*
X121560Y122547D01*
X122472Y122021D01*
X123489Y121748D01*
X124542D01*
X125560Y122021D01*
X126472Y122547D01*
X127217Y123292D01*
X127743Y124204D01*
X128016Y125221D01*
Y126275D01*
X127743Y127292D01*
X127217Y128204D01*
X126472Y128949D01*
X125560Y129475D01*
X124542Y129748D01*
D02*
G37*
G36*
X84267Y129512D02*
X83214D01*
X82196Y129239D01*
X81284Y128713D01*
X80539Y127968D01*
X80013Y127056D01*
X79740Y126038D01*
Y124985D01*
X80013Y123968D01*
X80539Y123056D01*
X81284Y122311D01*
X82196Y121784D01*
X83214Y121512D01*
X84267D01*
X85284Y121784D01*
X86196Y122311D01*
X86941Y123056D01*
X87468Y123968D01*
X87740Y124985D01*
Y126038D01*
X87468Y127056D01*
X86941Y127968D01*
X86196Y128713D01*
X85284Y129239D01*
X84267Y129512D01*
D02*
G37*
G36*
X329596Y209292D02*
X328543D01*
X327526Y209019D01*
X326614Y208493D01*
X325869Y207748D01*
X325342Y206836D01*
X325070Y205819D01*
Y204765D01*
X325342Y203748D01*
X325869Y202836D01*
X326614Y202091D01*
X327526Y201565D01*
X328543Y201292D01*
X329596D01*
X330614Y201565D01*
X330627Y201572D01*
X362415Y169784D01*
Y153142D01*
X362531Y152557D01*
X362863Y152061D01*
X395099Y119825D01*
X395092Y119812D01*
X394819Y118794D01*
Y117741D01*
X395092Y116724D01*
X395618Y115812D01*
X396363Y115067D01*
X397275Y114540D01*
X398292Y114268D01*
X399345D01*
X400363Y114540D01*
X401275Y115067D01*
X402020Y115812D01*
X402546Y116724D01*
X402819Y117741D01*
Y118794D01*
X402546Y119812D01*
X402020Y120724D01*
X401275Y121468D01*
X400363Y121995D01*
X399345Y122268D01*
X398292D01*
X397275Y121995D01*
X397262Y121988D01*
X365474Y153776D01*
Y170417D01*
X365357Y171003D01*
X365026Y171499D01*
X332790Y203735D01*
X332797Y203748D01*
X333070Y204765D01*
Y205819D01*
X332797Y206836D01*
X332271Y207748D01*
X331526Y208493D01*
X330614Y209019D01*
X329596Y209292D01*
D02*
G37*
G36*
X246347Y417748D02*
X244991D01*
X243682Y417397D01*
X242507Y416719D01*
X241548Y415761D01*
X240870Y414586D01*
X240519Y413276D01*
Y411920D01*
X240870Y410611D01*
X241548Y409436D01*
X242507Y408477D01*
X243682Y407799D01*
X244991Y407448D01*
X246347D01*
X247657Y407799D01*
X248068Y408037D01*
X278666Y377439D01*
X279162Y377107D01*
X279748Y376991D01*
X454311D01*
X487501Y343800D01*
X487501Y343800D01*
X495321Y335981D01*
Y147878D01*
X459431Y111988D01*
X459418Y111995D01*
X458401Y112268D01*
X457347D01*
X456330Y111995D01*
X455418Y111469D01*
X454673Y110724D01*
X454147Y109812D01*
X453874Y108794D01*
Y107741D01*
X454147Y106724D01*
X454673Y105812D01*
X455418Y105067D01*
X456330Y104540D01*
X457347Y104268D01*
X458401D01*
X459418Y104540D01*
X460330Y105067D01*
X461075Y105812D01*
X461601Y106724D01*
X461874Y107741D01*
Y108794D01*
X461601Y109812D01*
X461594Y109825D01*
X497932Y146163D01*
X498263Y146659D01*
X498380Y147244D01*
Y336614D01*
X498263Y337199D01*
X497932Y337696D01*
X489664Y345963D01*
X489664Y345963D01*
X456026Y379602D01*
X455530Y379933D01*
X454945Y380049D01*
X280381D01*
X250231Y410200D01*
X250468Y410611D01*
X250819Y411920D01*
Y413276D01*
X250468Y414586D01*
X249790Y415761D01*
X248832Y416719D01*
X247657Y417397D01*
X246347Y417748D01*
D02*
G37*
G36*
X224542Y119748D02*
X223489D01*
X222472Y119475D01*
X221560Y118949D01*
X220815Y118204D01*
X220288Y117292D01*
X220016Y116275D01*
Y115221D01*
X220288Y114204D01*
X220815Y113292D01*
X221560Y112547D01*
X222472Y112021D01*
X223489Y111748D01*
X224542D01*
X225560Y112021D01*
X226472Y112547D01*
X227217Y113292D01*
X227743Y114204D01*
X228016Y115221D01*
Y116275D01*
X227743Y117292D01*
X227217Y118204D01*
X226472Y118949D01*
X225560Y119475D01*
X224542Y119748D01*
D02*
G37*
G36*
X124542D02*
X123489D01*
X122472Y119475D01*
X121560Y118949D01*
X120815Y118204D01*
X120288Y117292D01*
X120016Y116275D01*
Y115221D01*
X120288Y114204D01*
X120815Y113292D01*
X121560Y112547D01*
X122472Y112021D01*
X123489Y111748D01*
X124542D01*
X125560Y112021D01*
X126472Y112547D01*
X127217Y113292D01*
X127743Y114204D01*
X128016Y115221D01*
Y116275D01*
X127743Y117292D01*
X127217Y118204D01*
X126472Y118949D01*
X125560Y119475D01*
X124542Y119748D01*
D02*
G37*
G36*
X84267Y119512D02*
X83214D01*
X82196Y119239D01*
X81284Y118713D01*
X80539Y117968D01*
X80013Y117056D01*
X79740Y116038D01*
Y114985D01*
X80013Y113968D01*
X80539Y113056D01*
X81284Y112311D01*
X82196Y111784D01*
X83214Y111512D01*
X84267D01*
X85284Y111784D01*
X86196Y112311D01*
X86941Y113056D01*
X87468Y113968D01*
X87740Y114985D01*
Y116038D01*
X87468Y117056D01*
X86941Y117968D01*
X86196Y118713D01*
X85284Y119239D01*
X84267Y119512D01*
D02*
G37*
G36*
X399345Y112268D02*
X399319D01*
Y108768D01*
X402819D01*
Y108794D01*
X402546Y109812D01*
X402020Y110724D01*
X401275Y111469D01*
X400363Y111995D01*
X399345Y112268D01*
D02*
G37*
G36*
X398319D02*
X398292D01*
X397275Y111995D01*
X396363Y111469D01*
X395618Y110724D01*
X395092Y109812D01*
X394819Y108794D01*
Y108768D01*
X398319D01*
Y112268D01*
D02*
G37*
G36*
X402819Y107768D02*
X399319D01*
Y104268D01*
X399345D01*
X400363Y104540D01*
X401275Y105067D01*
X402020Y105812D01*
X402546Y106724D01*
X402819Y107741D01*
Y107768D01*
D02*
G37*
G36*
X398319D02*
X394819D01*
Y107741D01*
X395092Y106724D01*
X395618Y105812D01*
X396363Y105067D01*
X397275Y104540D01*
X398292Y104268D01*
X398319D01*
Y107768D01*
D02*
G37*
G36*
X361518Y111591D02*
X360529D01*
X359574Y111335D01*
X358717Y110840D01*
X358018Y110141D01*
X357524Y109284D01*
X357268Y108329D01*
Y107340D01*
X357524Y106385D01*
X358018Y105528D01*
X358717Y104829D01*
X359574Y104335D01*
X360529Y104079D01*
X361518D01*
X362473Y104335D01*
X363330Y104829D01*
X364029Y105528D01*
X364524Y106385D01*
X364779Y107340D01*
Y108329D01*
X364524Y109284D01*
X364029Y110141D01*
X363330Y110840D01*
X362473Y111335D01*
X361518Y111591D01*
D02*
G37*
G36*
X228016Y109748D02*
X220016D01*
Y101748D01*
X228016D01*
Y109748D01*
D02*
G37*
G36*
X124542D02*
X123489D01*
X122472Y109475D01*
X121560Y108949D01*
X120815Y108204D01*
X120288Y107292D01*
X120016Y106275D01*
Y105221D01*
X120288Y104204D01*
X120815Y103292D01*
X121560Y102547D01*
X122472Y102021D01*
X123489Y101748D01*
X124542D01*
X125560Y102021D01*
X126472Y102547D01*
X127217Y103292D01*
X127743Y104204D01*
X128016Y105221D01*
Y106275D01*
X127743Y107292D01*
X127217Y108204D01*
X126472Y108949D01*
X125560Y109475D01*
X124542Y109748D01*
D02*
G37*
G36*
X87740Y109512D02*
X79740D01*
Y101512D01*
X87740D01*
Y109512D01*
D02*
G37*
G36*
X285933Y89647D02*
Y86658D01*
X288923D01*
X288695Y87508D01*
X288234Y88306D01*
X287582Y88958D01*
X286784Y89419D01*
X285933Y89647D01*
D02*
G37*
G36*
X284933D02*
X284082Y89419D01*
X283284Y88958D01*
X282632Y88306D01*
X282275Y87687D01*
X275528D01*
X274942Y87571D01*
X274446Y87239D01*
X272297Y85089D01*
X271500Y85303D01*
Y82106D01*
X274696D01*
X274473Y82940D01*
X276161Y84628D01*
X282275D01*
X282632Y84008D01*
X283284Y83357D01*
X284082Y82896D01*
X284933Y82668D01*
Y86158D01*
Y89647D01*
D02*
G37*
G36*
X288923Y85658D02*
X285933D01*
Y82668D01*
X286784Y82896D01*
X287582Y83357D01*
X288234Y84008D01*
X288695Y84807D01*
X288923Y85658D01*
D02*
G37*
G36*
X270500Y85303D02*
X269572Y85054D01*
X268728Y84567D01*
X268039Y83878D01*
X267552Y83034D01*
X267303Y82106D01*
X270500D01*
Y85303D01*
D02*
G37*
G36*
X215461Y81836D02*
Y78847D01*
X218450D01*
X218222Y79697D01*
X217761Y80496D01*
X217110Y81147D01*
X216312Y81608D01*
X215461Y81836D01*
D02*
G37*
G36*
X214461D02*
X213610Y81608D01*
X212812Y81147D01*
X212160Y80496D01*
X211699Y79697D01*
X211471Y78847D01*
X214461D01*
Y81836D01*
D02*
G37*
G36*
X274696Y81106D02*
X271500D01*
Y77910D01*
X272428Y78158D01*
X273272Y78646D01*
X273961Y79334D01*
X274448Y80178D01*
X274696Y81106D01*
D02*
G37*
G36*
X270500D02*
X267303D01*
X267552Y80178D01*
X268039Y79334D01*
X268728Y78646D01*
X269572Y78158D01*
X270500Y77910D01*
Y81106D01*
D02*
G37*
G36*
X264700Y85306D02*
X257300D01*
Y77906D01*
X264700D01*
Y85306D01*
D02*
G37*
G36*
X347487Y83306D02*
X346513D01*
X345572Y83054D01*
X344728Y82567D01*
X344039Y81878D01*
X343552Y81034D01*
X343300Y80093D01*
Y79119D01*
X343552Y78178D01*
X344039Y77334D01*
X344728Y76646D01*
X345572Y76158D01*
X346513Y75906D01*
X347487D01*
X348428Y76158D01*
X349272Y76646D01*
X349961Y77334D01*
X350448Y78178D01*
X350700Y79119D01*
Y80093D01*
X350448Y81034D01*
X349961Y81878D01*
X349272Y82567D01*
X348428Y83054D01*
X347487Y83306D01*
D02*
G37*
G36*
X340700D02*
X333300D01*
Y75906D01*
X340700D01*
Y83306D01*
D02*
G37*
G36*
X218450Y77846D02*
X215461D01*
Y74857D01*
X216312Y75085D01*
X217110Y75546D01*
X217761Y76197D01*
X218222Y76995D01*
X218450Y77846D01*
D02*
G37*
G36*
X214461D02*
X211471D01*
X211699Y76995D01*
X212160Y76197D01*
X212812Y75546D01*
X213610Y75085D01*
X214461Y74857D01*
Y77846D01*
D02*
G37*
G36*
X203256Y71471D02*
Y68217D01*
X206510D01*
X206256Y69166D01*
X205761Y70023D01*
X205062Y70722D01*
X204206Y71216D01*
X203256Y71471D01*
D02*
G37*
G36*
X202256D02*
X201306Y71216D01*
X200450Y70722D01*
X199750Y70023D01*
X199256Y69166D01*
X199002Y68217D01*
X202256D01*
Y71471D01*
D02*
G37*
G36*
X206510Y67216D02*
X203256D01*
Y63962D01*
X204206Y64217D01*
X205062Y64711D01*
X205761Y65410D01*
X206256Y66267D01*
X206510Y67216D01*
D02*
G37*
G36*
X202256D02*
X199002D01*
X199256Y66267D01*
X199750Y65410D01*
X200450Y64711D01*
X201306Y64217D01*
X202256Y63962D01*
Y67216D01*
D02*
G37*
G36*
X173250Y71472D02*
X172261D01*
X171306Y71216D01*
X170450Y70722D01*
X169750Y70023D01*
X169256Y69166D01*
X169000Y68211D01*
Y67222D01*
X169256Y66267D01*
X169750Y65410D01*
X170450Y64711D01*
X171306Y64217D01*
X172261Y63961D01*
X173250D01*
X174206Y64217D01*
X175062Y64711D01*
X175761Y65410D01*
X176256Y66267D01*
X176512Y67222D01*
Y68211D01*
X176256Y69166D01*
X175761Y70023D01*
X175062Y70722D01*
X174206Y71216D01*
X173250Y71472D01*
D02*
G37*
G36*
X355776Y41221D02*
X355618D01*
Y36720D01*
X360118D01*
Y36879D01*
X359777Y38150D01*
X359119Y39290D01*
X358188Y40222D01*
X357048Y40880D01*
X355776Y41221D01*
D02*
G37*
G36*
X354618D02*
X354460D01*
X353188Y40880D01*
X352048Y40222D01*
X351117Y39290D01*
X350459Y38150D01*
X350118Y36879D01*
Y36720D01*
X354618D01*
Y41221D01*
D02*
G37*
G36*
X380186Y41614D02*
X378869D01*
X377598Y41273D01*
X376458Y40615D01*
X375527Y39684D01*
X374868Y38544D01*
X374528Y37272D01*
Y35956D01*
X374868Y34684D01*
X375527Y33544D01*
X376458Y32613D01*
X377598Y31955D01*
X378869Y31614D01*
X380186D01*
X381457Y31955D01*
X382598Y32613D01*
X383528Y33544D01*
X384187Y34684D01*
X384528Y35956D01*
Y37272D01*
X384187Y38544D01*
X383528Y39684D01*
X382598Y40615D01*
X381457Y41273D01*
X380186Y41614D01*
D02*
G37*
G36*
X219162D02*
X217846D01*
X216574Y41273D01*
X215434Y40615D01*
X214503Y39684D01*
X213845Y38544D01*
X213504Y37272D01*
Y35956D01*
X213845Y34684D01*
X214503Y33544D01*
X215434Y32613D01*
X216574Y31955D01*
X217846Y31614D01*
X219162D01*
X220434Y31955D01*
X221574Y32613D01*
X222505Y33544D01*
X223163Y34684D01*
X223504Y35956D01*
Y37272D01*
X223163Y38544D01*
X222505Y39684D01*
X221574Y40615D01*
X220434Y41273D01*
X219162Y41614D01*
D02*
G37*
G36*
X191603D02*
X190287D01*
X189015Y41273D01*
X187875Y40615D01*
X186944Y39684D01*
X186286Y38544D01*
X185945Y37272D01*
Y35956D01*
X186286Y34684D01*
X186944Y33544D01*
X187875Y32613D01*
X189015Y31955D01*
X190287Y31614D01*
X191603D01*
X192875Y31955D01*
X194015Y32613D01*
X194946Y33544D01*
X195604Y34684D01*
X195945Y35956D01*
Y37272D01*
X195604Y38544D01*
X194946Y39684D01*
X194015Y40615D01*
X192875Y41273D01*
X191603Y41614D01*
D02*
G37*
G36*
X360118Y35721D02*
X355618D01*
Y31220D01*
X355776D01*
X357048Y31561D01*
X358188Y32219D01*
X359119Y33150D01*
X359777Y34291D01*
X360118Y35562D01*
Y35721D01*
D02*
G37*
G36*
X354618D02*
X350118D01*
Y35562D01*
X350459Y34291D01*
X351117Y33150D01*
X352048Y32219D01*
X353188Y31561D01*
X354460Y31220D01*
X354618D01*
Y35721D01*
D02*
G37*
G36*
X359224Y30619D02*
Y27630D01*
X362214D01*
X361986Y28481D01*
X361525Y29279D01*
X360874Y29931D01*
X360075Y30391D01*
X359224Y30619D01*
D02*
G37*
G36*
X358224D02*
X357373Y30391D01*
X356575Y29931D01*
X355924Y29279D01*
X355463Y28481D01*
X355235Y27630D01*
X358224D01*
Y30619D01*
D02*
G37*
G36*
X362214Y26630D02*
X359224D01*
Y23641D01*
X360075Y23868D01*
X360874Y24329D01*
X361525Y24981D01*
X361986Y25779D01*
X362214Y26630D01*
D02*
G37*
G36*
X358224D02*
X355235D01*
X355463Y25779D01*
X355924Y24981D01*
X356575Y24329D01*
X357373Y23868D01*
X358224Y23641D01*
Y26630D01*
D02*
G37*
%LPD*%
D14*
X365354Y250354D02*
X385084Y270084D01*
X330105Y190621D02*
X341339Y179387D01*
Y125197D02*
Y179387D01*
X251969Y35827D02*
X341339Y125197D01*
X328740Y499606D02*
X339764D01*
X352479Y512322D01*
Y524132D01*
X425197Y96255D02*
X425783Y95669D01*
X463386D01*
X425197Y96255D02*
Y110438D01*
X215748Y365331D02*
Y418898D01*
X222272Y425421D01*
X418110Y505775D02*
Y525197D01*
Y505775D02*
X419948Y503937D01*
X363779Y535433D02*
X407874D01*
X418110Y525197D01*
X352479Y524132D02*
X363779Y535433D01*
X504921Y137205D02*
Y386417D01*
X463386Y95669D02*
X504921Y137205D01*
X419948Y503937D02*
X436220D01*
X188583Y161181D02*
Y209449D01*
Y161181D02*
X224016Y125748D01*
X271165Y261024D02*
X276580D01*
X238926Y259792D02*
X269934D01*
X277165Y243388D02*
Y260438D01*
X276580Y261024D02*
X277165Y260438D01*
X269934Y259792D02*
X271165Y261024D01*
X188583Y209449D02*
X238926Y259792D01*
X248835Y245292D02*
X269070D01*
X203342Y199798D02*
X248835Y245292D01*
X203342Y156422D02*
Y199798D01*
X269070Y235292D02*
X277165Y243388D01*
X269070Y215292D02*
X285827Y232049D01*
Y314567D01*
X203342Y156422D02*
X224016Y135748D01*
X321457Y147679D02*
X329070Y155292D01*
X321457Y137397D02*
Y147679D01*
X261417Y132283D02*
X316343D01*
X321457Y137397D01*
X247953Y145748D02*
X261417Y132283D01*
X224016Y145748D02*
X247953D01*
X224244Y155520D02*
X268842D01*
X224016Y155748D02*
X224244Y155520D01*
X268842D02*
X269070Y155292D01*
X240945Y161417D02*
X265195D01*
X269070Y165292D01*
X236614Y165748D02*
X240945Y161417D01*
X224016Y165748D02*
X236614D01*
X224244Y175520D02*
X268842D01*
X269070Y175292D01*
X224016Y175748D02*
X224244Y175520D01*
X215748Y365331D02*
X263363Y317717D01*
X282677D01*
X285827Y314567D01*
X222272Y425421D02*
X316270D01*
X275528Y86158D02*
X285433D01*
X270866Y81496D02*
X275528Y86158D01*
X436220Y503937D02*
X470079Y470079D01*
Y421260D02*
X504921Y386417D01*
X470079Y421260D02*
Y470079D01*
X454788Y120282D02*
X456802Y118268D01*
X435041Y120282D02*
X454788D01*
X456802Y118268D02*
X457874D01*
X425197Y110438D02*
X435041Y120282D01*
X326535Y501811D02*
X328740Y499606D01*
X326535Y501811D02*
Y571654D01*
X191772Y431496D02*
Y456800D01*
X167524Y481048D02*
X191772Y456800D01*
X385084Y270084D02*
X396024Y281024D01*
X411811D01*
X329070Y285292D02*
X329743D01*
X364681Y250354D01*
X365354D01*
X269070Y195292D02*
X273741Y190621D01*
X330105D01*
X329070Y205292D02*
X363944Y170417D01*
Y153142D02*
Y170417D01*
X316270Y425421D02*
X393761Y502912D01*
X279748Y378520D02*
X454945D01*
X245669Y412598D02*
X279748Y378520D01*
X454945D02*
X488583Y344882D01*
Y344882D02*
X496850Y336614D01*
X488583Y344882D02*
Y344882D01*
X496850Y147244D02*
Y336614D01*
X457874Y108268D02*
X496850Y147244D01*
X363944Y153142D02*
X398819Y118268D01*
D18*
X347000Y79606D02*
D03*
X271000Y81606D02*
D03*
X187209Y481048D02*
D03*
X351969Y351969D02*
D03*
D19*
X337000Y79606D02*
D03*
X261000Y81606D02*
D03*
X167524Y481048D02*
D03*
D20*
X251969Y35827D02*
D03*
X218504Y36614D02*
D03*
X190945D02*
D03*
X355118Y36220D02*
D03*
X379528Y36614D02*
D03*
D22*
X245669Y412598D02*
D03*
X232269D02*
D03*
Y451598D02*
D03*
X102355Y450996D02*
D03*
X115755D02*
D03*
Y411996D02*
D03*
X436213Y447453D02*
D03*
X449613D02*
D03*
Y408453D02*
D03*
D23*
X245669Y451598D02*
D03*
X102355Y411996D02*
D03*
X436213Y408453D02*
D03*
D27*
X269070Y155292D02*
D03*
Y165292D02*
D03*
Y175292D02*
D03*
Y185292D02*
D03*
Y195292D02*
D03*
Y205292D02*
D03*
Y215292D02*
D03*
Y225292D02*
D03*
Y235292D02*
D03*
Y245292D02*
D03*
Y255292D02*
D03*
Y265292D02*
D03*
Y275292D02*
D03*
Y285292D02*
D03*
Y295292D02*
D03*
X329070D02*
D03*
Y285292D02*
D03*
Y275292D02*
D03*
Y265292D02*
D03*
Y255292D02*
D03*
Y245292D02*
D03*
Y235292D02*
D03*
Y225292D02*
D03*
Y215292D02*
D03*
Y205292D02*
D03*
Y195292D02*
D03*
Y185292D02*
D03*
Y175292D02*
D03*
Y165292D02*
D03*
X420000Y348000D02*
D03*
X499035Y358079D02*
D03*
Y348079D02*
D03*
Y368079D02*
D03*
X420000D02*
D03*
X224016Y175748D02*
D03*
Y185748D02*
D03*
X124016Y105748D02*
D03*
Y115748D02*
D03*
Y125748D02*
D03*
Y135748D02*
D03*
Y145748D02*
D03*
X224016Y165748D02*
D03*
Y155748D02*
D03*
Y145748D02*
D03*
Y135748D02*
D03*
Y125748D02*
D03*
Y115748D02*
D03*
X457874Y118268D02*
D03*
X398819Y108268D02*
D03*
Y118268D02*
D03*
Y128268D02*
D03*
X457874Y108268D02*
D03*
X352362Y439921D02*
D03*
X293307Y429921D02*
D03*
Y439921D02*
D03*
Y449921D02*
D03*
X352362Y429921D02*
D03*
X411811Y281024D02*
D03*
Y271024D02*
D03*
Y261024D02*
D03*
Y251024D02*
D03*
X169291Y332283D02*
D03*
Y342284D02*
D03*
Y322284D02*
D03*
Y312283D02*
D03*
Y302284D02*
D03*
X83740Y115512D02*
D03*
Y125512D02*
D03*
Y135512D02*
D03*
Y155512D02*
D03*
Y165512D02*
D03*
Y185512D02*
D03*
Y175512D02*
D03*
Y145512D02*
D03*
D30*
X326535Y571654D02*
D03*
X306535D02*
D03*
X361417Y572047D02*
D03*
X381417D02*
D03*
X416772Y572047D02*
D03*
X436772D02*
D03*
X249843Y571260D02*
D03*
X269843D02*
D03*
X138425Y570866D02*
D03*
X158425D02*
D03*
X194567Y571260D02*
D03*
X214567D02*
D03*
D31*
X351969Y332283D02*
D03*
D34*
X329070Y305292D02*
D03*
X269070D02*
D03*
Y145292D02*
D03*
X329070D02*
D03*
D35*
Y155292D02*
D03*
D36*
X407480Y188976D02*
D03*
X286614Y498819D02*
D03*
X245669Y499255D02*
D03*
X393761Y518926D02*
D03*
X328740Y499606D02*
D03*
X192397Y332441D02*
D03*
D37*
X224016Y105748D02*
D03*
X411811Y241024D02*
D03*
X169291Y352284D02*
D03*
X83740Y105512D02*
D03*
D38*
X519291Y15354D02*
D03*
X520472Y577953D02*
D03*
X53543D02*
D03*
Y15354D02*
D03*
D39*
X363761Y502912D02*
D03*
X393761D02*
D03*
X361024Y137835D02*
D03*
Y107835D02*
D03*
X252362Y199646D02*
D03*
Y169646D02*
D03*
X202756Y67716D02*
D03*
X172756D02*
D03*
D40*
X417480Y174803D02*
D03*
X407480D02*
D03*
D41*
X397480D02*
D03*
D42*
X365354Y280354D02*
D03*
Y250354D02*
D03*
X191772Y431496D02*
D03*
X161772D02*
D03*
D43*
X385084Y270084D02*
D03*
X285433Y86158D02*
D03*
X161772Y418223D02*
D03*
X358724Y27130D02*
D03*
X214961Y78347D02*
D03*
X412159Y161517D02*
D03*
X378771Y351969D02*
D03*
X303150Y538976D02*
D03*
X278740Y435827D02*
D03*
X256755Y265292D02*
D03*
X179134Y547638D02*
D03*
X205878Y481075D02*
D03*
X156693Y341732D02*
D03*
M02*
