G04*
G04 #@! TF.GenerationSoftware,Altium Limited,Altium Designer,22.1.2 (22)*
G04*
G04 Layer_Color=16711935*
%FSLAX25Y25*%
%MOIN*%
G70*
G04*
G04 #@! TF.SameCoordinates,9DFE0AF1-0A3A-4F83-9DC9-4DC15A37C804*
G04*
G04*
G04 #@! TF.FilePolarity,Negative*
G04*
G01*
G75*
%ADD15C,0.07300*%
%ADD16C,0.06800*%
%ADD17R,0.06800X0.06800*%
%ADD18C,0.05400*%
%ADD19R,0.05400X0.05400*%
%ADD20C,0.08000*%
%ADD21R,0.06800X0.06800*%
%ADD22C,0.08300*%
%ADD23R,0.08300X0.08300*%
%ADD24C,0.15300*%
%ADD25C,0.06312*%
%ADD26C,0.08800*%
%ADD27C,0.06000*%
%ADD28C,0.06706*%
%ADD29R,0.06706X0.06706*%
%ADD30C,0.07100*%
%ADD31R,0.05400X0.05400*%
%ADD32C,0.05524*%
%ADD33C,0.05800*%
D15*
X329070Y305292D02*
D03*
X269070D02*
D03*
Y145292D02*
D03*
X329070D02*
D03*
D16*
X269070Y155292D02*
D03*
Y165292D02*
D03*
Y175292D02*
D03*
Y185292D02*
D03*
Y195292D02*
D03*
Y205292D02*
D03*
Y215292D02*
D03*
Y225292D02*
D03*
Y235292D02*
D03*
Y245292D02*
D03*
Y255292D02*
D03*
Y265292D02*
D03*
Y275292D02*
D03*
Y285292D02*
D03*
Y295292D02*
D03*
X329070D02*
D03*
Y285292D02*
D03*
Y275292D02*
D03*
Y265292D02*
D03*
Y255292D02*
D03*
Y245292D02*
D03*
Y235292D02*
D03*
Y225292D02*
D03*
Y215292D02*
D03*
Y205292D02*
D03*
Y195292D02*
D03*
Y185292D02*
D03*
Y175292D02*
D03*
Y165292D02*
D03*
X420000Y348000D02*
D03*
X499035Y358079D02*
D03*
Y348079D02*
D03*
Y368079D02*
D03*
X420000D02*
D03*
X224016Y175748D02*
D03*
Y185748D02*
D03*
X124016Y105748D02*
D03*
Y115748D02*
D03*
Y125748D02*
D03*
Y135748D02*
D03*
Y145748D02*
D03*
X224016Y165748D02*
D03*
Y155748D02*
D03*
Y145748D02*
D03*
Y135748D02*
D03*
Y125748D02*
D03*
Y115748D02*
D03*
X457874Y118268D02*
D03*
X398819Y108268D02*
D03*
Y118268D02*
D03*
X457874Y108268D02*
D03*
X352362Y439921D02*
D03*
X293307Y429921D02*
D03*
Y439921D02*
D03*
X352362Y429921D02*
D03*
X411811Y281024D02*
D03*
Y271024D02*
D03*
Y261024D02*
D03*
Y251024D02*
D03*
X169291Y332283D02*
D03*
Y342284D02*
D03*
Y322284D02*
D03*
Y312283D02*
D03*
Y302284D02*
D03*
X83740Y115512D02*
D03*
Y125512D02*
D03*
Y135512D02*
D03*
Y155512D02*
D03*
Y165512D02*
D03*
Y185512D02*
D03*
Y175512D02*
D03*
Y145512D02*
D03*
D17*
X329070Y155292D02*
D03*
D18*
X347000Y79606D02*
D03*
X271000Y81606D02*
D03*
X187209Y481048D02*
D03*
X351969Y351969D02*
D03*
D19*
X337000Y79606D02*
D03*
X261000Y81606D02*
D03*
X167524Y481048D02*
D03*
D20*
X407480Y188976D02*
D03*
X286614Y498819D02*
D03*
X245669Y499255D02*
D03*
X393761Y518926D02*
D03*
X328740Y499606D02*
D03*
X192397Y332441D02*
D03*
D21*
X224016Y105748D02*
D03*
X411811Y241024D02*
D03*
X169291Y352284D02*
D03*
X83740Y105512D02*
D03*
D22*
X245669Y412598D02*
D03*
X232269D02*
D03*
Y451598D02*
D03*
X102355Y450996D02*
D03*
X115755D02*
D03*
Y411996D02*
D03*
X436213Y447453D02*
D03*
X449613D02*
D03*
Y408453D02*
D03*
D23*
X245669Y451598D02*
D03*
X102355Y411996D02*
D03*
X436213Y408453D02*
D03*
D24*
X519291Y15354D02*
D03*
X520472Y577953D02*
D03*
X53543D02*
D03*
Y15354D02*
D03*
D25*
X363761Y502912D02*
D03*
X393761D02*
D03*
X361024Y137835D02*
D03*
Y107835D02*
D03*
X252362Y199646D02*
D03*
Y169646D02*
D03*
X202756Y67716D02*
D03*
X172756D02*
D03*
D26*
X251969Y35827D02*
D03*
X218504Y36614D02*
D03*
X190945D02*
D03*
X355118Y36220D02*
D03*
X379528Y36614D02*
D03*
D27*
X398819Y128268D02*
D03*
X293307Y449921D02*
D03*
D28*
X417480Y174803D02*
D03*
X407480D02*
D03*
D29*
X397480D02*
D03*
D30*
X326535Y571654D02*
D03*
X306535D02*
D03*
X361417Y572047D02*
D03*
X381417D02*
D03*
X416772Y572047D02*
D03*
X436772D02*
D03*
X249843Y571260D02*
D03*
X269843D02*
D03*
X138425Y570866D02*
D03*
X158425D02*
D03*
X194567Y571260D02*
D03*
X214567D02*
D03*
D31*
X351969Y332283D02*
D03*
D32*
X365354Y280354D02*
D03*
Y250354D02*
D03*
X191772Y431496D02*
D03*
X161772D02*
D03*
D33*
X385084Y270084D02*
D03*
X285433Y86158D02*
D03*
X161772Y418223D02*
D03*
X358724Y27130D02*
D03*
X214961Y78347D02*
D03*
X412159Y161517D02*
D03*
X378771Y351969D02*
D03*
X303150Y538976D02*
D03*
X278740Y435827D02*
D03*
X256755Y265292D02*
D03*
X179134Y547638D02*
D03*
X205878Y481075D02*
D03*
X156693Y341732D02*
D03*
M02*
