G04*
G04 #@! TF.GenerationSoftware,Altium Limited,Altium Designer,22.1.2 (22)*
G04*
G04 Layer_Color=16711935*
%FSLAX25Y25*%
%MOIN*%
G70*
G04*
G04 #@! TF.SameCoordinates,E28053CA-E4DF-42EA-84DA-B9CFE034DEEF*
G04*
G04*
G04 #@! TF.FilePolarity,Positive*
G04*
G01*
G75*
%ADD10C,0.00787*%
%ADD12C,0.02000*%
%ADD13C,0.00500*%
%ADD49C,0.00394*%
%ADD50C,0.00000*%
%ADD51C,0.00100*%
D10*
X336865Y155292D02*
G03*
X336865Y155292I-394J0D01*
G01*
D12*
X328035Y564153D02*
G03*
X328035Y564153I-1500J0D01*
G01*
X382917Y564547D02*
G03*
X382917Y564547I-1500J0D01*
G01*
X438272Y564547D02*
G03*
X438272Y564547I-1500J0D01*
G01*
X271342Y563760D02*
G03*
X271342Y563760I-1500J0D01*
G01*
X159925Y563366D02*
G03*
X159925Y563366I-1500J0D01*
G01*
X216067Y563760D02*
G03*
X216067Y563760I-1500J0D01*
G01*
D13*
X264070Y140292D02*
X334070D01*
X264070D02*
Y310292D01*
X334070D01*
Y140292D02*
Y310292D01*
D49*
X354144Y79921D02*
G03*
X354144Y79921I-11506J0D01*
G01*
X277136D02*
G03*
X277136Y79921I-11506J0D01*
G01*
D50*
X197066Y481048D02*
G03*
X197066Y481048I-19700J0D01*
G01*
X371669Y342126D02*
G03*
X371669Y342126I-19700J0D01*
G01*
D51*
X95805Y399996D02*
X122305D01*
X95805Y462996D02*
X122305D01*
Y399996D02*
Y462996D01*
X95805Y399996D02*
Y462996D01*
X429663Y396453D02*
X456163D01*
X429663Y459453D02*
X456163D01*
Y396453D02*
Y459453D01*
X429663Y396453D02*
Y459453D01*
X154166Y478548D02*
Y483548D01*
X151666Y481048D02*
X156666D01*
X252219Y400598D02*
Y463598D01*
X225719Y400598D02*
Y463598D01*
Y400598D02*
X252219D01*
X225719Y463598D02*
X252219D01*
X296535Y587598D02*
X336535D01*
X296535Y555512D02*
Y587598D01*
Y555512D02*
X336535D01*
Y587598D01*
X351969Y316426D02*
Y321426D01*
X349468Y318926D02*
X354468D01*
X391417Y555905D02*
Y587992D01*
X351417Y555905D02*
X391417D01*
X351417D02*
Y587992D01*
X391417D01*
X446772Y555905D02*
Y587992D01*
X406772Y555905D02*
X446772D01*
X406772D02*
Y587992D01*
X446772D01*
X279842Y555118D02*
Y587205D01*
X239843Y555118D02*
X279842D01*
X239843D02*
Y587205D01*
X279842D01*
X168425Y554724D02*
Y586811D01*
X128425Y554724D02*
X168425D01*
X128425D02*
Y586811D01*
X168425D01*
X224567Y555118D02*
Y587205D01*
X184567Y555118D02*
X224567D01*
X184567D02*
Y587205D01*
X224567D01*
M02*
