G04*
G04 #@! TF.GenerationSoftware,Altium Limited,Altium Designer,22.1.2 (22)*
G04*
G04 Layer_Color=16711935*
%FSLAX25Y25*%
%MOIN*%
G70*
G04*
G04 #@! TF.SameCoordinates,E28053CA-E4DF-42EA-84DA-B9CFE034DEEF*
G04*
G04*
G04 #@! TF.FilePolarity,Negative*
G04*
G01*
G75*
%ADD15C,0.15300*%
%ADD16C,0.08000*%
%ADD17C,0.08300*%
%ADD18R,0.08300X0.08300*%
%ADD19C,0.07300*%
%ADD20C,0.06800*%
%ADD21R,0.06800X0.06800*%
%ADD22C,0.06312*%
%ADD23C,0.08800*%
%ADD24R,0.06902X0.06902*%
%ADD25C,0.06902*%
%ADD26C,0.05400*%
%ADD27R,0.05400X0.05400*%
%ADD28C,0.06000*%
%ADD29R,0.06800X0.06800*%
%ADD30C,0.06706*%
%ADD31R,0.06706X0.06706*%
%ADD32C,0.07100*%
%ADD33R,0.05400X0.05400*%
%ADD34C,0.05524*%
%ADD35C,0.05800*%
D15*
X519291Y15354D02*
D03*
X520472Y577953D02*
D03*
X53543D02*
D03*
Y15354D02*
D03*
D16*
X286614Y498819D02*
D03*
X245669Y499255D02*
D03*
X393761Y518926D02*
D03*
X328740Y499606D02*
D03*
X148031Y329921D02*
D03*
X407480Y188976D02*
D03*
D17*
X102355Y450996D02*
D03*
X115755D02*
D03*
Y411996D02*
D03*
X436213Y447453D02*
D03*
X449613D02*
D03*
Y408453D02*
D03*
X232269Y451598D02*
D03*
Y412598D02*
D03*
X245669D02*
D03*
D18*
X102355Y411996D02*
D03*
X436213Y408453D02*
D03*
X245669Y451598D02*
D03*
D19*
X329070Y305292D02*
D03*
X269070D02*
D03*
Y145292D02*
D03*
X329070D02*
D03*
D20*
X269070Y155292D02*
D03*
Y165292D02*
D03*
Y175292D02*
D03*
Y185292D02*
D03*
Y195292D02*
D03*
Y205292D02*
D03*
Y215292D02*
D03*
Y225292D02*
D03*
Y235292D02*
D03*
Y245292D02*
D03*
Y255292D02*
D03*
Y265292D02*
D03*
Y275292D02*
D03*
Y285292D02*
D03*
Y295292D02*
D03*
X329070D02*
D03*
Y285292D02*
D03*
Y275292D02*
D03*
Y265292D02*
D03*
Y255292D02*
D03*
Y245292D02*
D03*
Y235292D02*
D03*
Y225292D02*
D03*
Y215292D02*
D03*
Y205292D02*
D03*
Y195292D02*
D03*
Y185292D02*
D03*
Y175292D02*
D03*
Y165292D02*
D03*
X472441Y325984D02*
D03*
X393406D02*
D03*
Y345984D02*
D03*
Y335984D02*
D03*
X472441Y346063D02*
D03*
X457874Y118268D02*
D03*
X398819Y108268D02*
D03*
Y118268D02*
D03*
X457874Y108268D02*
D03*
X352362Y439921D02*
D03*
X293307Y429921D02*
D03*
Y439921D02*
D03*
X352362Y429921D02*
D03*
X411811Y281024D02*
D03*
Y271024D02*
D03*
Y261024D02*
D03*
Y251024D02*
D03*
X172441Y350315D02*
D03*
Y360315D02*
D03*
Y340315D02*
D03*
Y330315D02*
D03*
Y320315D02*
D03*
X80709Y181260D02*
D03*
Y191260D02*
D03*
Y201260D02*
D03*
Y221260D02*
D03*
Y231260D02*
D03*
Y251260D02*
D03*
Y241260D02*
D03*
Y211260D02*
D03*
X216929Y180236D02*
D03*
Y190236D02*
D03*
Y200236D02*
D03*
Y210236D02*
D03*
Y220236D02*
D03*
Y230236D02*
D03*
X116929Y210236D02*
D03*
Y200236D02*
D03*
Y190236D02*
D03*
Y180236D02*
D03*
Y170236D02*
D03*
X216929Y250236D02*
D03*
Y240236D02*
D03*
D21*
X329070Y155292D02*
D03*
D22*
X363761Y502912D02*
D03*
X393761D02*
D03*
X361024Y137835D02*
D03*
Y107835D02*
D03*
X241732Y137441D02*
D03*
Y107441D02*
D03*
X148061Y133763D02*
D03*
X118061D02*
D03*
D23*
X251969Y35827D02*
D03*
X218504Y36614D02*
D03*
X190945D02*
D03*
X355118Y36220D02*
D03*
X383071D02*
D03*
D24*
X347638Y79921D02*
D03*
X260630D02*
D03*
D25*
X337638D02*
D03*
X270630D02*
D03*
D26*
X187209Y481048D02*
D03*
X351969Y351969D02*
D03*
D27*
X167524Y481048D02*
D03*
D28*
X398819Y128268D02*
D03*
X293307Y449921D02*
D03*
D29*
X411811Y241024D02*
D03*
X172441Y370315D02*
D03*
X80709Y171260D02*
D03*
X216929Y170236D02*
D03*
D30*
X417480Y174803D02*
D03*
X407480D02*
D03*
D31*
X397480D02*
D03*
D32*
X326535Y571654D02*
D03*
X306535D02*
D03*
X361417Y572047D02*
D03*
X381417D02*
D03*
X416772Y572047D02*
D03*
X436772D02*
D03*
X249843Y571260D02*
D03*
X269843D02*
D03*
X138425Y570866D02*
D03*
X158425D02*
D03*
X194567Y571260D02*
D03*
X214567D02*
D03*
D33*
X351969Y332283D02*
D03*
D34*
X365354Y280354D02*
D03*
Y250354D02*
D03*
X191772Y431496D02*
D03*
X161772D02*
D03*
D35*
Y418223D02*
D03*
X358724Y27130D02*
D03*
X174382Y107441D02*
D03*
X412159Y161517D02*
D03*
X385084Y270084D02*
D03*
X378771Y351969D02*
D03*
X303150Y538976D02*
D03*
X278740Y435827D02*
D03*
X256755Y265292D02*
D03*
X179134Y547638D02*
D03*
X205878Y481075D02*
D03*
X187402Y359055D02*
D03*
M02*
