G04*
G04 #@! TF.GenerationSoftware,Altium Limited,Altium Designer,22.1.2 (22)*
G04*
G04 Layer_Physical_Order=1*
G04 Layer_Color=255*
%FSLAX25Y25*%
%MOIN*%
G70*
G04*
G04 #@! TF.SameCoordinates,E28053CA-E4DF-42EA-84DA-B9CFE034DEEF*
G04*
G04*
G04 #@! TF.FilePolarity,Positive*
G04*
G01*
G75*
%ADD14C,0.01000*%
%ADD16C,0.08000*%
%ADD17C,0.08300*%
%ADD18R,0.08300X0.08300*%
%ADD26C,0.05400*%
%ADD27R,0.05400X0.05400*%
%ADD28C,0.06000*%
%ADD32C,0.07100*%
%ADD33R,0.05400X0.05400*%
%ADD36C,0.14500*%
%ADD37C,0.07200*%
%ADD38C,0.06500*%
%ADD39R,0.06000X0.06000*%
%ADD40C,0.05512*%
%ADD41R,0.06102X0.06102*%
%ADD42C,0.06102*%
%ADD43R,0.06000X0.06000*%
%ADD44C,0.05906*%
%ADD45R,0.05906X0.05906*%
%ADD46C,0.04724*%
%ADD47C,0.05000*%
G36*
X509842Y1181D02*
X63779Y1181D01*
Y591732D01*
X509842D01*
Y1181D01*
D02*
G37*
%LPC*%
G36*
X339777Y578233D02*
X311585D01*
X311000Y578117D01*
X310504Y577785D01*
X308495Y575776D01*
X308292Y575893D01*
X307135Y576203D01*
X305936D01*
X304779Y575893D01*
X303742Y575294D01*
X302894Y574447D01*
X302295Y573410D01*
X301985Y572253D01*
Y571055D01*
X302295Y569897D01*
X302548Y569459D01*
X302068Y568979D01*
X301737Y568483D01*
X301620Y567898D01*
Y542135D01*
X301001Y541777D01*
X300349Y541125D01*
X299888Y540327D01*
X299650Y539437D01*
Y538516D01*
X299888Y537625D01*
X300349Y536827D01*
X301001Y536176D01*
X301799Y535715D01*
X302689Y535476D01*
X303610D01*
X304501Y535715D01*
X305299Y536176D01*
X305950Y536827D01*
X306411Y537625D01*
X306650Y538516D01*
Y539437D01*
X306411Y540327D01*
X305950Y541125D01*
X305299Y541777D01*
X304679Y542135D01*
Y566928D01*
X305159Y567312D01*
X305936Y567103D01*
X307135D01*
X308292Y567414D01*
X309329Y568013D01*
X310176Y568860D01*
X310775Y569897D01*
X311085Y571055D01*
Y572253D01*
X310775Y573410D01*
X310658Y573613D01*
X312219Y575174D01*
X322968D01*
X323159Y574712D01*
X322895Y574447D01*
X322295Y573410D01*
X321985Y572253D01*
Y571055D01*
X322295Y569897D01*
X322895Y568860D01*
X323742Y568013D01*
X324779Y567414D01*
X325936Y567103D01*
X327134D01*
X328292Y567414D01*
X329329Y568013D01*
X330176Y568860D01*
X330775Y569897D01*
X331085Y571055D01*
Y572253D01*
X330775Y573410D01*
X330176Y574447D01*
X329911Y574712D01*
X330103Y575174D01*
X339143D01*
X343352Y570966D01*
X343848Y570634D01*
X344433Y570518D01*
X357117D01*
X357177Y570291D01*
X357776Y569253D01*
X358624Y568406D01*
X359661Y567807D01*
X360818Y567497D01*
X362016D01*
X363174Y567807D01*
X364211Y568406D01*
X365058Y569253D01*
X365657Y570291D01*
X365967Y571448D01*
Y572646D01*
X365657Y573804D01*
X365058Y574841D01*
X364211Y575688D01*
X363174Y576287D01*
X362016Y576597D01*
X360818D01*
X359661Y576287D01*
X358624Y575688D01*
X357776Y574841D01*
X357177Y573804D01*
X357117Y573577D01*
X345067D01*
X340858Y577785D01*
X340362Y578117D01*
X339777Y578233D01*
D02*
G37*
G36*
X412992Y587356D02*
X264409D01*
X263824Y587240D01*
X263328Y586908D01*
X251802Y575382D01*
X251599Y575500D01*
X250442Y575810D01*
X249243D01*
X248086Y575500D01*
X247883Y575382D01*
X245874Y577391D01*
X245378Y577723D01*
X244793Y577839D01*
X143869D01*
X143284Y577723D01*
X142788Y577391D01*
X140385Y574989D01*
X140181Y575106D01*
X139024Y575416D01*
X137826D01*
X136669Y575106D01*
X135631Y574507D01*
X134784Y573660D01*
X134185Y572622D01*
X133875Y571465D01*
Y570267D01*
X134185Y569110D01*
X134784Y568072D01*
X135631Y567225D01*
X136669Y566626D01*
X137826Y566316D01*
X139024D01*
X140181Y566626D01*
X141219Y567225D01*
X142066Y568072D01*
X142665Y569110D01*
X142975Y570267D01*
Y571465D01*
X142665Y572622D01*
X142548Y572826D01*
X144502Y574781D01*
X155198D01*
X155405Y574281D01*
X154784Y573660D01*
X154185Y572622D01*
X153875Y571465D01*
Y570267D01*
X154185Y569110D01*
X154303Y568906D01*
X95624Y510227D01*
X95292Y509731D01*
X95176Y509146D01*
Y448656D01*
X95292Y448070D01*
X95624Y447574D01*
X100826Y442372D01*
Y417146D01*
X97205D01*
Y406846D01*
X107505D01*
Y417146D01*
X103884D01*
Y443006D01*
X103768Y443591D01*
X103437Y444087D01*
X102140Y445384D01*
X102331Y445846D01*
X103033D01*
X104343Y446197D01*
X105517Y446875D01*
X106476Y447834D01*
X107154Y449008D01*
X107505Y450318D01*
Y451674D01*
X107154Y452984D01*
X106917Y453395D01*
X108639Y455117D01*
X111939D01*
X112131Y454655D01*
X111634Y454158D01*
X110956Y452984D01*
X110605Y451674D01*
Y450318D01*
X110956Y449008D01*
X111634Y447834D01*
X112593Y446875D01*
X113767Y446197D01*
X115077Y445846D01*
X116433D01*
X117743Y446197D01*
X118917Y446875D01*
X119876Y447834D01*
X120554Y449008D01*
X120905Y450318D01*
Y451674D01*
X120554Y452984D01*
X119876Y454158D01*
X119380Y454655D01*
X119571Y455117D01*
X174228D01*
X184478Y444867D01*
X184974Y444535D01*
X185559Y444419D01*
X250441D01*
X251026Y444535D01*
X251522Y444867D01*
X259547Y452892D01*
X289967D01*
X290159Y452430D01*
X290106Y452377D01*
X289580Y451465D01*
X289307Y450448D01*
Y450421D01*
X297307D01*
Y450448D01*
X297035Y451465D01*
X296508Y452377D01*
X296455Y452430D01*
X296647Y452892D01*
X327229D01*
X348642Y431478D01*
X348635Y431465D01*
X348362Y430448D01*
Y429395D01*
X348635Y428377D01*
X349161Y427465D01*
X349906Y426721D01*
X350818Y426194D01*
X351836Y425921D01*
X352889D01*
X353906Y426194D01*
X354818Y426721D01*
X355563Y427465D01*
X356090Y428377D01*
X356094Y428392D01*
X418682D01*
X419267Y428508D01*
X419763Y428840D01*
X433814Y442891D01*
X434226Y442654D01*
X435535Y442303D01*
X436891D01*
X438201Y442654D01*
X439376Y443332D01*
X439872Y443828D01*
X440334Y443637D01*
Y414736D01*
X439200Y413603D01*
X431063D01*
Y403303D01*
X441363D01*
Y411440D01*
X442945Y413021D01*
X443276Y413518D01*
X443393Y414103D01*
Y489704D01*
X443276Y490289D01*
X442945Y490785D01*
X438301Y495429D01*
Y567746D01*
X438528Y567807D01*
X439565Y568406D01*
X440413Y569253D01*
X441012Y570291D01*
X441322Y571448D01*
Y572646D01*
X441012Y573804D01*
X440413Y574841D01*
X439565Y575688D01*
X438528Y576287D01*
X437371Y576597D01*
X436173D01*
X435015Y576287D01*
X433978Y575688D01*
X433131Y574841D01*
X432532Y573804D01*
X432222Y572646D01*
Y571448D01*
X432532Y570291D01*
X433131Y569253D01*
X433978Y568406D01*
X435015Y567807D01*
X435242Y567746D01*
Y494796D01*
X435359Y494210D01*
X435690Y493714D01*
X440334Y489070D01*
Y451269D01*
X439872Y451077D01*
X439376Y451574D01*
X438201Y452252D01*
X436891Y452603D01*
X435535D01*
X434226Y452252D01*
X433051Y451574D01*
X432092Y450615D01*
X431414Y449441D01*
X431063Y448131D01*
Y446775D01*
X431414Y445465D01*
X431652Y445054D01*
X418048Y431451D01*
X356094D01*
X356090Y431465D01*
X355563Y432377D01*
X354818Y433122D01*
X353906Y433649D01*
X352889Y433921D01*
X351836D01*
X350818Y433649D01*
X350805Y433641D01*
X346516Y437930D01*
X346708Y438392D01*
X348631D01*
X348635Y438377D01*
X349161Y437465D01*
X349906Y436721D01*
X350818Y436194D01*
X351836Y435921D01*
X352889D01*
X353906Y436194D01*
X354818Y436721D01*
X355563Y437465D01*
X356090Y438377D01*
X356362Y439395D01*
Y440448D01*
X356090Y441465D01*
X355563Y442377D01*
X354818Y443122D01*
X353906Y443649D01*
X352889Y443921D01*
X351836D01*
X350818Y443649D01*
X349906Y443122D01*
X349161Y442377D01*
X348635Y441465D01*
X348631Y441451D01*
X346145D01*
X290773Y496823D01*
X290901Y497043D01*
X291214Y498213D01*
Y499425D01*
X290901Y500594D01*
X290295Y501643D01*
X289439Y502500D01*
X288390Y503105D01*
X287220Y503419D01*
X286009D01*
X284839Y503105D01*
X284618Y502978D01*
X271372Y516224D01*
Y566959D01*
X271599Y567020D01*
X272636Y567619D01*
X273483Y568466D01*
X274082Y569504D01*
X274393Y570661D01*
Y571859D01*
X274082Y573016D01*
X273483Y574054D01*
X272636Y574901D01*
X271599Y575500D01*
X270442Y575810D01*
X269244D01*
X268086Y575500D01*
X267049Y574901D01*
X266202Y574054D01*
X265603Y573016D01*
X265293Y571859D01*
Y570661D01*
X265603Y569504D01*
X266202Y568466D01*
X267049Y567619D01*
X268086Y567020D01*
X268313Y566959D01*
Y515590D01*
X268430Y515005D01*
X268761Y514509D01*
X282455Y500815D01*
X282328Y500594D01*
X282014Y499425D01*
Y498213D01*
X282328Y497043D01*
X282933Y495994D01*
X283790Y495138D01*
X284839Y494532D01*
X286009Y494219D01*
X287220D01*
X288390Y494532D01*
X288610Y494660D01*
X326858Y456413D01*
X326666Y455951D01*
X258913D01*
X258328Y455834D01*
X257832Y455503D01*
X251281Y448952D01*
X250819Y449143D01*
Y456748D01*
X247199D01*
Y494903D01*
X247445Y494969D01*
X248494Y495574D01*
X249350Y496431D01*
X249956Y497480D01*
X250269Y498650D01*
Y499861D01*
X249956Y501031D01*
X249350Y502080D01*
X248494Y502936D01*
X247445Y503542D01*
X247199Y503608D01*
Y540158D01*
X247082Y540743D01*
X246751Y541239D01*
X218689Y569300D01*
X218807Y569504D01*
X219117Y570661D01*
Y571859D01*
X218807Y573016D01*
X218208Y574054D01*
X217943Y574319D01*
X218134Y574781D01*
X244159D01*
X245720Y573219D01*
X245603Y573016D01*
X245292Y571859D01*
Y570661D01*
X245603Y569504D01*
X246202Y568466D01*
X247049Y567619D01*
X248086Y567020D01*
X249243Y566710D01*
X250442D01*
X251599Y567020D01*
X252636Y567619D01*
X253483Y568466D01*
X254082Y569504D01*
X254393Y570661D01*
Y571859D01*
X254082Y573016D01*
X253965Y573219D01*
X265043Y584297D01*
X412359D01*
X415242Y581414D01*
Y576348D01*
X415015Y576287D01*
X413978Y575688D01*
X413131Y574841D01*
X412532Y573804D01*
X412222Y572646D01*
Y571448D01*
X412532Y570291D01*
X413131Y569253D01*
X413978Y568406D01*
X415015Y567807D01*
X416173Y567497D01*
X417371D01*
X418528Y567807D01*
X419565Y568406D01*
X420413Y569253D01*
X421012Y570291D01*
X421322Y571448D01*
Y572646D01*
X421012Y573804D01*
X420413Y574841D01*
X419565Y575688D01*
X418528Y576287D01*
X418301Y576348D01*
Y582047D01*
X418185Y582632D01*
X417853Y583129D01*
X414074Y586908D01*
X413577Y587240D01*
X412992Y587356D01*
D02*
G37*
G36*
X364261Y506667D02*
Y503412D01*
X367516D01*
X367261Y504362D01*
X366767Y505219D01*
X366068Y505918D01*
X365211Y506412D01*
X364261Y506667D01*
D02*
G37*
G36*
X363261D02*
X362312Y506412D01*
X361455Y505918D01*
X360756Y505219D01*
X360262Y504362D01*
X360007Y503412D01*
X363261D01*
Y506667D01*
D02*
G37*
G36*
X367516Y502412D02*
X364261D01*
Y499158D01*
X365211Y499412D01*
X366068Y499907D01*
X366767Y500606D01*
X367261Y501463D01*
X367516Y502412D01*
D02*
G37*
G36*
X363261D02*
X360007D01*
X360262Y501463D01*
X360756Y500606D01*
X361455Y499907D01*
X362312Y499412D01*
X363261Y499158D01*
Y502412D01*
D02*
G37*
G36*
X382016Y576597D02*
X380818D01*
X379661Y576287D01*
X378624Y575688D01*
X377776Y574841D01*
X377177Y573804D01*
X376867Y572646D01*
Y571448D01*
X377177Y570291D01*
X377776Y569253D01*
X378624Y568406D01*
X379661Y567807D01*
X380818Y567497D01*
X382016D01*
X383173Y567807D01*
X383377Y567925D01*
X392232Y559070D01*
Y523278D01*
X391986Y523212D01*
X390937Y522607D01*
X390080Y521750D01*
X389475Y520702D01*
X389161Y519532D01*
Y518320D01*
X389475Y517150D01*
X390080Y516102D01*
X390937Y515245D01*
X391986Y514640D01*
X392232Y514573D01*
Y506366D01*
X391455Y505918D01*
X390756Y505219D01*
X390262Y504362D01*
X390005Y503407D01*
Y502418D01*
X390262Y501463D01*
X390756Y500606D01*
X391455Y499907D01*
X392312Y499412D01*
X393267Y499157D01*
X394256D01*
X395211Y499412D01*
X396068Y499907D01*
X396767Y500606D01*
X397261Y501463D01*
X397517Y502418D01*
Y503407D01*
X397261Y504362D01*
X396767Y505219D01*
X396068Y505918D01*
X395291Y506366D01*
Y514573D01*
X395537Y514640D01*
X396586Y515245D01*
X397442Y516102D01*
X398048Y517150D01*
X398361Y518320D01*
Y519532D01*
X398048Y520702D01*
X397442Y521750D01*
X396586Y522607D01*
X395537Y523212D01*
X395291Y523278D01*
Y559703D01*
X395174Y560288D01*
X394843Y560785D01*
X385540Y570088D01*
X385657Y570291D01*
X385967Y571448D01*
Y572646D01*
X385657Y573804D01*
X385058Y574841D01*
X384211Y575688D01*
X383173Y576287D01*
X382016Y576597D01*
D02*
G37*
G36*
X329346Y504206D02*
X328135D01*
X326965Y503893D01*
X325916Y503287D01*
X325059Y502431D01*
X324454Y501382D01*
X324140Y500212D01*
Y499001D01*
X324454Y497831D01*
X325059Y496782D01*
X325916Y495925D01*
X326965Y495320D01*
X328135Y495006D01*
X329346D01*
X330516Y495320D01*
X331565Y495925D01*
X332421Y496782D01*
X333027Y497831D01*
X333340Y499001D01*
Y500212D01*
X333027Y501382D01*
X332421Y502431D01*
X331565Y503287D01*
X330516Y503893D01*
X329346Y504206D01*
D02*
G37*
G36*
X297307Y449421D02*
X293807D01*
Y445921D01*
X293834D01*
X294851Y446194D01*
X295763Y446721D01*
X296508Y447465D01*
X297035Y448377D01*
X297307Y449395D01*
Y449421D01*
D02*
G37*
G36*
X292807D02*
X289307D01*
Y449395D01*
X289580Y448377D01*
X290106Y447465D01*
X290851Y446721D01*
X291763Y446194D01*
X292780Y445921D01*
X292807D01*
Y449421D01*
D02*
G37*
G36*
X450291Y452603D02*
X448935D01*
X447626Y452252D01*
X446451Y451574D01*
X445492Y450615D01*
X444814Y449441D01*
X444463Y448131D01*
Y446775D01*
X444814Y445465D01*
X445492Y444291D01*
X446451Y443332D01*
X447626Y442654D01*
X448935Y442303D01*
X450291D01*
X451601Y442654D01*
X452776Y443332D01*
X453734Y444291D01*
X454412Y445465D01*
X454763Y446775D01*
Y448131D01*
X454412Y449441D01*
X453734Y450615D01*
X452776Y451574D01*
X451601Y452252D01*
X450291Y452603D01*
D02*
G37*
G36*
X192272Y434843D02*
Y431996D01*
X195118D01*
X194905Y432794D01*
X194462Y433561D01*
X193836Y434187D01*
X193069Y434629D01*
X192272Y434843D01*
D02*
G37*
G36*
X191272D02*
X190474Y434629D01*
X189707Y434187D01*
X189081Y433561D01*
X188639Y432794D01*
X188425Y431996D01*
X191272D01*
Y434843D01*
D02*
G37*
G36*
X293834Y443921D02*
X292780D01*
X291763Y443649D01*
X290851Y443122D01*
X290106Y442377D01*
X289580Y441465D01*
X289307Y440448D01*
Y439395D01*
X289580Y438377D01*
X290106Y437465D01*
X290851Y436721D01*
X291763Y436194D01*
X292056Y436115D01*
Y436007D01*
X292172Y435422D01*
X292504Y434926D01*
X293046Y434383D01*
X292855Y433921D01*
X292780D01*
X291763Y433649D01*
X290851Y433122D01*
X290106Y432377D01*
X289580Y431465D01*
X289576Y431451D01*
X285279D01*
X282055Y434675D01*
X282240Y435366D01*
Y436288D01*
X282002Y437178D01*
X281541Y437976D01*
X280889Y438627D01*
X280091Y439088D01*
X279201Y439327D01*
X278279D01*
X277389Y439088D01*
X276591Y438627D01*
X275939Y437976D01*
X275479Y437178D01*
X275240Y436288D01*
Y435366D01*
X275479Y434476D01*
X275939Y433678D01*
X276591Y433026D01*
X277389Y432565D01*
X278279Y432327D01*
X279201D01*
X279892Y432512D01*
X283564Y428840D01*
X284060Y428508D01*
X284646Y428392D01*
X289576D01*
X289580Y428377D01*
X290106Y427465D01*
X290851Y426721D01*
X291763Y426194D01*
X292780Y425921D01*
X293834D01*
X294851Y426194D01*
X295763Y426721D01*
X296508Y427465D01*
X297035Y428377D01*
X297307Y429395D01*
Y429469D01*
X297769Y429660D01*
X318156Y409274D01*
Y204677D01*
X318272Y204092D01*
X318604Y203595D01*
X325350Y196849D01*
X325342Y196836D01*
X325070Y195819D01*
Y194765D01*
X325342Y193748D01*
X325869Y192836D01*
X326614Y192091D01*
X327526Y191565D01*
X328543Y191292D01*
X329596D01*
X330614Y191565D01*
X331526Y192091D01*
X332271Y192836D01*
X332797Y193748D01*
X333070Y194765D01*
Y195819D01*
X332797Y196836D01*
X332271Y197748D01*
X331526Y198493D01*
X330614Y199019D01*
X329596Y199292D01*
X328543D01*
X327526Y199019D01*
X327513Y199012D01*
X321214Y205310D01*
Y409907D01*
X321098Y410493D01*
X320766Y410989D01*
X295592Y436164D01*
X295657Y436659D01*
X295763Y436721D01*
X296508Y437465D01*
X297035Y438377D01*
X297307Y439395D01*
Y440448D01*
X297035Y441465D01*
X296508Y442377D01*
X295763Y443122D01*
X294851Y443649D01*
X293834Y443921D01*
D02*
G37*
G36*
X195118Y430996D02*
X192272D01*
Y428149D01*
X193069Y428363D01*
X193836Y428806D01*
X194462Y429432D01*
X194905Y430198D01*
X195118Y430996D01*
D02*
G37*
G36*
X191272D02*
X188425D01*
X188639Y430198D01*
X189081Y429432D01*
X189707Y428806D01*
X190474Y428363D01*
X191272Y428149D01*
Y430996D01*
D02*
G37*
G36*
X162214Y434858D02*
X161329D01*
X160474Y434629D01*
X159707Y434187D01*
X159081Y433561D01*
X158639Y432794D01*
X158409Y431939D01*
Y431053D01*
X158639Y430198D01*
X159081Y429432D01*
X159707Y428806D01*
X160242Y428497D01*
Y421382D01*
X159623Y421024D01*
X158971Y420372D01*
X158510Y419574D01*
X158272Y418684D01*
Y417763D01*
X158510Y416873D01*
X158971Y416074D01*
X159623Y415423D01*
X160421Y414962D01*
X161311Y414723D01*
X162232D01*
X163123Y414962D01*
X163921Y415423D01*
X164572Y416074D01*
X165033Y416873D01*
X165272Y417763D01*
Y418684D01*
X165033Y419574D01*
X164572Y420372D01*
X163921Y421024D01*
X163301Y421382D01*
Y428497D01*
X163836Y428806D01*
X164462Y429432D01*
X164905Y430198D01*
X165134Y431053D01*
Y431939D01*
X164905Y432794D01*
X164462Y433561D01*
X163836Y434187D01*
X163069Y434629D01*
X162214Y434858D01*
D02*
G37*
G36*
X246347Y417748D02*
X244991D01*
X243682Y417397D01*
X242507Y416719D01*
X241548Y415761D01*
X240870Y414586D01*
X240519Y413276D01*
Y411920D01*
X240870Y410611D01*
X241548Y409436D01*
X242507Y408477D01*
X243682Y407799D01*
X244991Y407448D01*
X246347D01*
X247657Y407799D01*
X248832Y408477D01*
X249790Y409436D01*
X250468Y410611D01*
X250819Y411920D01*
Y413276D01*
X250468Y414586D01*
X249790Y415761D01*
X248832Y416719D01*
X247657Y417397D01*
X246347Y417748D01*
D02*
G37*
G36*
X232947D02*
X231591D01*
X230281Y417397D01*
X229107Y416719D01*
X228148Y415761D01*
X227470Y414586D01*
X227119Y413276D01*
Y411920D01*
X227470Y410611D01*
X228148Y409436D01*
X229107Y408477D01*
X230281Y407799D01*
X231591Y407448D01*
X232947D01*
X234257Y407799D01*
X235432Y408477D01*
X236390Y409436D01*
X237068Y410611D01*
X237419Y411920D01*
Y413276D01*
X237068Y414586D01*
X236390Y415761D01*
X235432Y416719D01*
X234257Y417397D01*
X232947Y417748D01*
D02*
G37*
G36*
X116433Y417146D02*
X115077D01*
X113767Y416795D01*
X112593Y416117D01*
X111634Y415158D01*
X110956Y413984D01*
X110605Y412674D01*
Y411318D01*
X110956Y410008D01*
X111634Y408834D01*
X112593Y407875D01*
X113767Y407197D01*
X115077Y406846D01*
X116433D01*
X117743Y407197D01*
X118917Y407875D01*
X119876Y408834D01*
X120554Y410008D01*
X120905Y411318D01*
Y412674D01*
X120554Y413984D01*
X119876Y415158D01*
X118917Y416117D01*
X117743Y416795D01*
X116433Y417146D01*
D02*
G37*
G36*
X450291Y413603D02*
X448935D01*
X447626Y413252D01*
X446451Y412574D01*
X445492Y411615D01*
X444814Y410441D01*
X444463Y409131D01*
Y407775D01*
X444814Y406465D01*
X445492Y405291D01*
X446451Y404332D01*
X447626Y403654D01*
X448935Y403303D01*
X450291D01*
X451601Y403654D01*
X452776Y404332D01*
X453734Y405291D01*
X454412Y406465D01*
X454763Y407775D01*
Y409131D01*
X454412Y410441D01*
X453734Y411615D01*
X452776Y412574D01*
X451601Y413252D01*
X450291Y413603D01*
D02*
G37*
G36*
X176441Y374315D02*
X168441D01*
Y366315D01*
X176441D01*
Y374315D01*
D02*
G37*
G36*
X172968Y364315D02*
X171914D01*
X170897Y364042D01*
X169985Y363516D01*
X169240Y362771D01*
X168713Y361859D01*
X168441Y360842D01*
Y359788D01*
X168713Y358771D01*
X169240Y357859D01*
X169985Y357114D01*
X170897Y356588D01*
X171914Y356315D01*
X172968D01*
X173985Y356588D01*
X174897Y357114D01*
X175642Y357859D01*
X175813Y358156D01*
X184019D01*
X184140Y357704D01*
X184601Y356906D01*
X185252Y356254D01*
X186051Y355794D01*
X186941Y355555D01*
X187862D01*
X188752Y355794D01*
X189551Y356254D01*
X190202Y356906D01*
X190663Y357704D01*
X190902Y358594D01*
Y359516D01*
X190663Y360406D01*
X190202Y361204D01*
X189551Y361856D01*
X188752Y362317D01*
X187862Y362555D01*
X186941D01*
X186051Y362317D01*
X185252Y361856D01*
X184611Y361214D01*
X176341D01*
X176168Y361859D01*
X175642Y362771D01*
X174897Y363516D01*
X173985Y364042D01*
X172968Y364315D01*
D02*
G37*
G36*
Y354315D02*
X172941D01*
Y350815D01*
X176441D01*
Y350842D01*
X176168Y351859D01*
X175642Y352771D01*
X174897Y353516D01*
X173985Y354042D01*
X172968Y354315D01*
D02*
G37*
G36*
X171941D02*
X171914D01*
X170897Y354042D01*
X169985Y353516D01*
X169240Y352771D01*
X168713Y351859D01*
X168441Y350842D01*
Y350815D01*
X171941D01*
Y354315D01*
D02*
G37*
G36*
X176441Y349815D02*
X172941D01*
Y346315D01*
X172968D01*
X173985Y346588D01*
X174897Y347114D01*
X175642Y347859D01*
X176168Y348771D01*
X176441Y349788D01*
Y349815D01*
D02*
G37*
G36*
X171941D02*
X168441D01*
Y349788D01*
X168713Y348771D01*
X169240Y347859D01*
X169985Y347114D01*
X170897Y346588D01*
X171914Y346315D01*
X171941D01*
Y349815D01*
D02*
G37*
G36*
X172968Y344315D02*
X171914D01*
X170897Y344042D01*
X169985Y343516D01*
X169240Y342771D01*
X168713Y341859D01*
X168441Y340842D01*
Y339788D01*
X168713Y338771D01*
X169240Y337859D01*
X169985Y337114D01*
X170897Y336588D01*
X171914Y336315D01*
X172968D01*
X173985Y336588D01*
X174897Y337114D01*
X175642Y337859D01*
X176168Y338771D01*
X176441Y339788D01*
Y340842D01*
X176168Y341859D01*
X175642Y342771D01*
X174897Y343516D01*
X173985Y344042D01*
X172968Y344315D01*
D02*
G37*
G36*
X355668Y335983D02*
X352468D01*
Y332783D01*
X355668D01*
Y335983D01*
D02*
G37*
G36*
X351468D02*
X348269D01*
Y332783D01*
X351468D01*
Y335983D01*
D02*
G37*
G36*
X393932Y339984D02*
X392879D01*
X391862Y339712D01*
X390949Y339185D01*
X390205Y338440D01*
X389678Y337528D01*
X389405Y336511D01*
Y335458D01*
X389678Y334440D01*
X390205Y333528D01*
X390949Y332783D01*
X391862Y332257D01*
X392879Y331984D01*
X393932D01*
X394949Y332257D01*
X395862Y332783D01*
X396606Y333528D01*
X397133Y334440D01*
X397406Y335458D01*
Y336511D01*
X397133Y337528D01*
X396606Y338440D01*
X395862Y339185D01*
X394949Y339712D01*
X393932Y339984D01*
D02*
G37*
G36*
X355668Y331783D02*
X352468D01*
Y328584D01*
X355668D01*
Y331783D01*
D02*
G37*
G36*
X351468D02*
X348269D01*
Y328584D01*
X351468D01*
Y331783D01*
D02*
G37*
G36*
X352456Y355668D02*
X351481D01*
X350540Y355416D01*
X349697Y354929D01*
X349008Y354240D01*
X348521Y353397D01*
X348269Y352456D01*
Y351481D01*
X348521Y350540D01*
X349008Y349697D01*
X349697Y349008D01*
X350540Y348521D01*
X351481Y348269D01*
X352456D01*
X353397Y348521D01*
X354240Y349008D01*
X354929Y349697D01*
X355358Y350439D01*
X375612D01*
X375970Y349819D01*
X376622Y349168D01*
X377420Y348707D01*
X378310Y348468D01*
X379232D01*
X380122Y348707D01*
X380920Y349168D01*
X381572Y349819D01*
X381929Y350439D01*
X392645D01*
X392710Y349939D01*
X391862Y349712D01*
X390949Y349185D01*
X390205Y348440D01*
X389678Y347528D01*
X389405Y346511D01*
Y345458D01*
X389678Y344440D01*
X390205Y343528D01*
X390949Y342783D01*
X391862Y342257D01*
X392879Y341984D01*
X393932D01*
X394949Y342257D01*
X395862Y342783D01*
X396606Y343528D01*
X397133Y344440D01*
X397406Y345458D01*
Y346511D01*
X397133Y347528D01*
X396606Y348440D01*
X395862Y349185D01*
X394949Y349712D01*
X394101Y349939D01*
X394166Y350439D01*
X445036D01*
X468551Y326923D01*
X468441Y326511D01*
Y325458D01*
X468714Y324440D01*
X469240Y323528D01*
X469985Y322783D01*
X470897Y322257D01*
X471914Y321984D01*
X472968D01*
X473985Y322257D01*
X474897Y322783D01*
X475642Y323528D01*
X476168Y324440D01*
X476441Y325458D01*
Y326511D01*
X476168Y327528D01*
X475642Y328440D01*
X474897Y329185D01*
X473985Y329712D01*
X472968Y329984D01*
X471914D01*
X470897Y329712D01*
X470385Y329416D01*
X446751Y353050D01*
X446255Y353381D01*
X445669Y353498D01*
X381929D01*
X381572Y354117D01*
X380920Y354769D01*
X380122Y355230D01*
X379232Y355469D01*
X378310D01*
X377420Y355230D01*
X376622Y354769D01*
X375970Y354117D01*
X375612Y353498D01*
X355358D01*
X354929Y354240D01*
X354240Y354929D01*
X353397Y355416D01*
X352456Y355668D01*
D02*
G37*
G36*
X172968Y324315D02*
X171914D01*
X170897Y324042D01*
X169985Y323516D01*
X169240Y322771D01*
X168713Y321859D01*
X168441Y320842D01*
Y319788D01*
X168713Y318771D01*
X169240Y317859D01*
X169985Y317114D01*
X170897Y316588D01*
X171914Y316315D01*
X172968D01*
X173985Y316588D01*
X174897Y317114D01*
X175642Y317859D01*
X176168Y318771D01*
X176441Y319788D01*
Y320842D01*
X176168Y321859D01*
X175642Y322771D01*
X174897Y323516D01*
X173985Y324042D01*
X172968Y324315D01*
D02*
G37*
G36*
X329629Y309542D02*
X328510D01*
X327429Y309252D01*
X326460Y308693D01*
X325669Y307902D01*
X325109Y306932D01*
X324820Y305852D01*
Y304732D01*
X325109Y303652D01*
X325669Y302682D01*
X326460Y301891D01*
X327429Y301332D01*
X328510Y301042D01*
X329629D01*
X330710Y301332D01*
X331679Y301891D01*
X332471Y302682D01*
X333030Y303652D01*
X333320Y304732D01*
Y305852D01*
X333030Y306932D01*
X332471Y307902D01*
X331679Y308693D01*
X330710Y309252D01*
X329629Y309542D01*
D02*
G37*
G36*
X269629D02*
X268510D01*
X267429Y309252D01*
X266460Y308693D01*
X265669Y307902D01*
X265109Y306932D01*
X264820Y305852D01*
Y304732D01*
X265109Y303652D01*
X265669Y302682D01*
X266460Y301891D01*
X267429Y301332D01*
X268510Y301042D01*
X269629D01*
X270710Y301332D01*
X271679Y301891D01*
X272471Y302682D01*
X273030Y303652D01*
X273320Y304732D01*
Y305852D01*
X273030Y306932D01*
X272471Y307902D01*
X271679Y308693D01*
X270710Y309252D01*
X269629Y309542D01*
D02*
G37*
G36*
X329596Y299292D02*
X328543D01*
X327526Y299019D01*
X326614Y298493D01*
X325869Y297748D01*
X325342Y296836D01*
X325070Y295819D01*
Y294765D01*
X325342Y293748D01*
X325869Y292836D01*
X326614Y292091D01*
X327526Y291565D01*
X328543Y291292D01*
X329596D01*
X330614Y291565D01*
X331526Y292091D01*
X332271Y292836D01*
X332797Y293748D01*
X333070Y294765D01*
Y295819D01*
X332797Y296836D01*
X332271Y297748D01*
X331526Y298493D01*
X330614Y299019D01*
X329596Y299292D01*
D02*
G37*
G36*
X148637Y334521D02*
X147426D01*
X146256Y334208D01*
X145207Y333602D01*
X144351Y332746D01*
X143745Y331697D01*
X143431Y330527D01*
Y329316D01*
X143745Y328146D01*
X144351Y327097D01*
X145207Y326240D01*
X146256Y325635D01*
X147426Y325321D01*
X148637D01*
X149807Y325635D01*
X150856Y326240D01*
X151712Y327097D01*
X152318Y328146D01*
X152437Y328589D01*
X168819D01*
X169240Y327859D01*
X169985Y327114D01*
X170897Y326588D01*
X171914Y326315D01*
X172968D01*
X173985Y326588D01*
X174897Y327114D01*
X175642Y327859D01*
X176168Y328771D01*
X176172Y328786D01*
X233413D01*
X265350Y296849D01*
X265342Y296836D01*
X265070Y295819D01*
Y294765D01*
X265342Y293748D01*
X265869Y292836D01*
X266614Y292091D01*
X267526Y291565D01*
X268543Y291292D01*
X269596D01*
X270614Y291565D01*
X271526Y292091D01*
X272271Y292836D01*
X272797Y293748D01*
X273070Y294765D01*
Y295819D01*
X272797Y296836D01*
X272271Y297748D01*
X271526Y298493D01*
X270614Y299019D01*
X269596Y299292D01*
X268543D01*
X267526Y299019D01*
X267513Y299012D01*
X235128Y331396D01*
X234632Y331728D01*
X234047Y331844D01*
X176172D01*
X176168Y331859D01*
X175642Y332771D01*
X174897Y333516D01*
X173985Y334042D01*
X172968Y334315D01*
X171914D01*
X170897Y334042D01*
X169985Y333516D01*
X169240Y332771D01*
X168713Y331859D01*
X168657Y331647D01*
X152331D01*
X152318Y331697D01*
X151712Y332746D01*
X150856Y333602D01*
X149807Y334208D01*
X148637Y334521D01*
D02*
G37*
G36*
X329596Y289292D02*
X328543D01*
X327526Y289019D01*
X326614Y288493D01*
X325869Y287748D01*
X325342Y286836D01*
X325070Y285819D01*
Y284765D01*
X325342Y283748D01*
X325869Y282836D01*
X326614Y282091D01*
X327526Y281565D01*
X328543Y281292D01*
X329596D01*
X330614Y281565D01*
X331526Y282091D01*
X332271Y282836D01*
X332797Y283748D01*
X333070Y284765D01*
Y285819D01*
X332797Y286836D01*
X332271Y287748D01*
X331526Y288493D01*
X330614Y289019D01*
X329596Y289292D01*
D02*
G37*
G36*
X269596D02*
X268543D01*
X267526Y289019D01*
X266614Y288493D01*
X265869Y287748D01*
X265342Y286836D01*
X265070Y285819D01*
Y284765D01*
X265342Y283748D01*
X265869Y282836D01*
X266614Y282091D01*
X267526Y281565D01*
X268543Y281292D01*
X269596D01*
X270614Y281565D01*
X271526Y282091D01*
X272271Y282836D01*
X272797Y283748D01*
X273070Y284765D01*
Y285819D01*
X272797Y286836D01*
X272271Y287748D01*
X271526Y288493D01*
X270614Y289019D01*
X269596Y289292D01*
D02*
G37*
G36*
X393932Y329984D02*
X392879D01*
X391862Y329712D01*
X390949Y329185D01*
X390205Y328440D01*
X389678Y327528D01*
X389405Y326511D01*
Y325458D01*
X389678Y324440D01*
X390205Y323528D01*
X390949Y322783D01*
X391778Y322305D01*
Y303479D01*
X369196Y280896D01*
X368647Y281055D01*
X368487Y281652D01*
X368045Y282419D01*
X367419Y283045D01*
X366652Y283487D01*
X365854Y283701D01*
Y280354D01*
X365354D01*
Y279854D01*
X362007D01*
X362221Y279057D01*
X362664Y278290D01*
X363290Y277664D01*
X364057Y277221D01*
X364653Y277061D01*
X364812Y276513D01*
X360620Y272321D01*
X332409D01*
X332218Y272783D01*
X332271Y272836D01*
X332797Y273748D01*
X333070Y274765D01*
Y275819D01*
X332797Y276836D01*
X332271Y277748D01*
X331526Y278493D01*
X330614Y279019D01*
X329596Y279292D01*
X328543D01*
X327526Y279019D01*
X326614Y278493D01*
X325869Y277748D01*
X325342Y276836D01*
X325070Y275819D01*
Y274765D01*
X325342Y273748D01*
X325869Y272836D01*
X326614Y272091D01*
X326720Y272030D01*
X326785Y271534D01*
X323488Y268237D01*
X323157Y267741D01*
X323040Y267156D01*
Y219792D01*
X323157Y219207D01*
X323488Y218711D01*
X325350Y216849D01*
X325342Y216836D01*
X325070Y215819D01*
Y214765D01*
X325342Y213748D01*
X325869Y212836D01*
X326614Y212091D01*
X327526Y211565D01*
X328543Y211292D01*
X329596D01*
X330614Y211565D01*
X331526Y212091D01*
X332271Y212836D01*
X332797Y213748D01*
X333070Y214765D01*
Y215819D01*
X332797Y216836D01*
X332271Y217748D01*
X331526Y218493D01*
X330614Y219019D01*
X329596Y219292D01*
X328543D01*
X327526Y219019D01*
X327513Y219012D01*
X326099Y220426D01*
Y221953D01*
X326561Y222144D01*
X326614Y222091D01*
X327526Y221565D01*
X328543Y221292D01*
X329596D01*
X330614Y221565D01*
X331526Y222091D01*
X332271Y222836D01*
X332797Y223748D01*
X333070Y224765D01*
Y225819D01*
X332797Y226836D01*
X332790Y226849D01*
X337703Y231763D01*
X395958D01*
X396543Y231879D01*
X397040Y232211D01*
X407349Y242520D01*
X407811Y242329D01*
Y237024D01*
X415811D01*
Y245024D01*
X415163D01*
X414971Y245486D01*
X417392Y247907D01*
X417724Y248403D01*
X417840Y248988D01*
Y252888D01*
X417724Y253473D01*
X417392Y253969D01*
X414204Y257157D01*
Y257787D01*
X414267Y257823D01*
X415012Y258568D01*
X415538Y259480D01*
X415811Y260497D01*
Y261550D01*
X415538Y262568D01*
X415012Y263480D01*
X414267Y264224D01*
X413355Y264751D01*
X412338Y265024D01*
X411284D01*
X410267Y264751D01*
X409355Y264224D01*
X408610Y263480D01*
X408084Y262568D01*
X407811Y261550D01*
Y260497D01*
X408084Y259480D01*
X408610Y258568D01*
X409355Y257823D01*
X410267Y257296D01*
X411146Y257061D01*
Y256524D01*
X411262Y255938D01*
X411539Y255524D01*
X411388Y255024D01*
X411284D01*
X410267Y254751D01*
X409355Y254224D01*
X408610Y253480D01*
X408084Y252568D01*
X408080Y252553D01*
X378306D01*
X377721Y252437D01*
X377225Y252105D01*
X361941Y236821D01*
X332801D01*
X332797Y236836D01*
X332271Y237748D01*
X331526Y238493D01*
X330614Y239019D01*
X329596Y239292D01*
X328543D01*
X327526Y239019D01*
X326614Y238493D01*
X326561Y238440D01*
X326099Y238632D01*
Y241952D01*
X326561Y242144D01*
X326614Y242091D01*
X327526Y241565D01*
X328543Y241292D01*
X329596D01*
X330614Y241565D01*
X331526Y242091D01*
X332271Y242836D01*
X332797Y243748D01*
X333070Y244765D01*
Y245819D01*
X332797Y246836D01*
X332271Y247748D01*
X331526Y248493D01*
X330614Y249019D01*
X329596Y249292D01*
X328543D01*
X327526Y249019D01*
X326614Y248493D01*
X326561Y248440D01*
X326099Y248632D01*
Y251953D01*
X326561Y252144D01*
X326614Y252091D01*
X327526Y251565D01*
X328543Y251292D01*
X329596D01*
X330614Y251565D01*
X331526Y252091D01*
X332271Y252836D01*
X332797Y253748D01*
X333070Y254765D01*
Y255819D01*
X332797Y256836D01*
X332271Y257748D01*
X331526Y258493D01*
X330614Y259019D01*
X329596Y259292D01*
X328543D01*
X327526Y259019D01*
X326614Y258493D01*
X326561Y258440D01*
X326099Y258632D01*
Y261952D01*
X326561Y262144D01*
X326614Y262091D01*
X327526Y261565D01*
X328543Y261292D01*
X328570D01*
Y265292D01*
X329070D01*
Y265792D01*
X333070D01*
Y265819D01*
X332797Y266836D01*
X332271Y267748D01*
X331526Y268493D01*
X331059Y268763D01*
X331192Y269263D01*
X361254D01*
X361839Y269379D01*
X362335Y269711D01*
X394389Y301764D01*
X394720Y302260D01*
X394836Y302845D01*
Y322227D01*
X394949Y322257D01*
X395862Y322783D01*
X396606Y323528D01*
X397133Y324440D01*
X397406Y325458D01*
Y326511D01*
X397133Y327528D01*
X396606Y328440D01*
X395862Y329185D01*
X394949Y329712D01*
X393932Y329984D01*
D02*
G37*
G36*
X364854Y283701D02*
X364057Y283487D01*
X363290Y283045D01*
X362664Y282419D01*
X362221Y281652D01*
X362007Y280854D01*
X364854D01*
Y283701D01*
D02*
G37*
G36*
X412338Y285024D02*
X411284D01*
X410267Y284751D01*
X409355Y284224D01*
X408610Y283480D01*
X408084Y282568D01*
X407811Y281550D01*
Y280497D01*
X408084Y279480D01*
X408610Y278568D01*
X409355Y277823D01*
X410267Y277296D01*
X411284Y277024D01*
X412338D01*
X413355Y277296D01*
X414267Y277823D01*
X415012Y278568D01*
X415538Y279480D01*
X415811Y280497D01*
Y281550D01*
X415538Y282568D01*
X415012Y283480D01*
X414267Y284224D01*
X413355Y284751D01*
X412338Y285024D01*
D02*
G37*
G36*
Y275024D02*
X412311D01*
Y271524D01*
X415811D01*
Y271550D01*
X415538Y272568D01*
X415012Y273480D01*
X414267Y274224D01*
X413355Y274751D01*
X412338Y275024D01*
D02*
G37*
G36*
X411311D02*
X411284D01*
X410267Y274751D01*
X409355Y274224D01*
X408610Y273480D01*
X408084Y272568D01*
X407811Y271550D01*
Y271524D01*
X411311D01*
Y275024D01*
D02*
G37*
G36*
X269596Y279292D02*
X268543D01*
X267526Y279019D01*
X266614Y278493D01*
X265869Y277748D01*
X265342Y276836D01*
X265070Y275819D01*
Y274765D01*
X265342Y273748D01*
X265869Y272836D01*
X266614Y272091D01*
X267526Y271565D01*
X268543Y271292D01*
X269596D01*
X270614Y271565D01*
X271526Y272091D01*
X272271Y272836D01*
X272797Y273748D01*
X273070Y274765D01*
Y275819D01*
X272797Y276836D01*
X272271Y277748D01*
X271526Y278493D01*
X270614Y279019D01*
X269596Y279292D01*
D02*
G37*
G36*
X415811Y270524D02*
X412311D01*
Y267024D01*
X412338D01*
X413355Y267296D01*
X414267Y267823D01*
X415012Y268568D01*
X415538Y269480D01*
X415811Y270497D01*
Y270524D01*
D02*
G37*
G36*
X411311D02*
X407811D01*
Y270497D01*
X408084Y269480D01*
X408610Y268568D01*
X409355Y267823D01*
X410267Y267296D01*
X411284Y267024D01*
X411311D01*
Y270524D01*
D02*
G37*
G36*
X269596Y269292D02*
X268543D01*
X267526Y269019D01*
X266614Y268493D01*
X265869Y267748D01*
X265342Y266836D01*
X265338Y266821D01*
X259914D01*
X259556Y267441D01*
X258904Y268093D01*
X258106Y268553D01*
X257216Y268792D01*
X256294D01*
X255404Y268553D01*
X254606Y268093D01*
X253955Y267441D01*
X253494Y266643D01*
X253255Y265753D01*
Y264831D01*
X253494Y263941D01*
X253955Y263143D01*
X254606Y262491D01*
X255404Y262031D01*
X256294Y261792D01*
X257216D01*
X258106Y262031D01*
X258904Y262491D01*
X259556Y263143D01*
X259914Y263763D01*
X265338D01*
X265342Y263748D01*
X265869Y262836D01*
X266614Y262091D01*
X267526Y261565D01*
X268543Y261292D01*
X269596D01*
X270614Y261565D01*
X271526Y262091D01*
X272271Y262836D01*
X272797Y263748D01*
X273070Y264765D01*
Y265819D01*
X272797Y266836D01*
X272271Y267748D01*
X271526Y268493D01*
X270614Y269019D01*
X269596Y269292D01*
D02*
G37*
G36*
X385544Y273584D02*
X384623D01*
X383733Y273345D01*
X382935Y272884D01*
X382283Y272233D01*
X381822Y271435D01*
X381584Y270545D01*
Y269623D01*
X381822Y268733D01*
X382283Y267935D01*
X382935Y267283D01*
X383733Y266822D01*
X384623Y266584D01*
X385544D01*
X386435Y266822D01*
X387233Y267283D01*
X387884Y267935D01*
X388345Y268733D01*
X388584Y269623D01*
Y270545D01*
X388345Y271435D01*
X387884Y272233D01*
X387233Y272884D01*
X386435Y273345D01*
X385544Y273584D01*
D02*
G37*
G36*
X333070Y264792D02*
X329570D01*
Y261292D01*
X329596D01*
X330614Y261565D01*
X331526Y262091D01*
X332271Y262836D01*
X332797Y263748D01*
X333070Y264765D01*
Y264792D01*
D02*
G37*
G36*
X81235Y255260D02*
X81209D01*
Y251760D01*
X84709D01*
Y251786D01*
X84436Y252804D01*
X83909Y253716D01*
X83165Y254461D01*
X82253Y254987D01*
X81235Y255260D01*
D02*
G37*
G36*
X80209D02*
X80182D01*
X79165Y254987D01*
X78253Y254461D01*
X77508Y253716D01*
X76981Y252804D01*
X76709Y251786D01*
Y251760D01*
X80209D01*
Y255260D01*
D02*
G37*
G36*
X217456Y254236D02*
X217429D01*
Y250736D01*
X220929D01*
Y250763D01*
X220657Y251780D01*
X220130Y252692D01*
X219385Y253437D01*
X218473Y253964D01*
X217456Y254236D01*
D02*
G37*
G36*
X216429D02*
X216403D01*
X215385Y253964D01*
X214473Y253437D01*
X213728Y252692D01*
X213202Y251780D01*
X212929Y250763D01*
Y250736D01*
X216429D01*
Y254236D01*
D02*
G37*
G36*
X269596Y259292D02*
X268543D01*
X267526Y259019D01*
X266614Y258493D01*
X265869Y257748D01*
X265342Y256836D01*
X265070Y255819D01*
Y254765D01*
X265342Y253748D01*
X265869Y252836D01*
X266614Y252091D01*
X267526Y251565D01*
X268543Y251292D01*
X269596D01*
X270614Y251565D01*
X270627Y251572D01*
X272040Y250159D01*
Y248632D01*
X271578Y248440D01*
X271526Y248493D01*
X270614Y249019D01*
X269596Y249292D01*
X268543D01*
X267526Y249019D01*
X266614Y248493D01*
X265869Y247748D01*
X265342Y246836D01*
X265070Y245819D01*
Y244765D01*
X265342Y243748D01*
X265350Y243735D01*
X223538Y201923D01*
X220574D01*
X220130Y202692D01*
X219385Y203437D01*
X218473Y203964D01*
X217456Y204236D01*
X216403D01*
X215385Y203964D01*
X215372Y203956D01*
X213511Y205818D01*
X213014Y206149D01*
X212429Y206266D01*
X119052D01*
X118918Y206766D01*
X119385Y207035D01*
X120130Y207780D01*
X120657Y208692D01*
X120929Y209710D01*
Y210763D01*
X120657Y211780D01*
X120130Y212692D01*
X120077Y212745D01*
X120269Y213207D01*
X211796D01*
X213209Y211793D01*
X213202Y211780D01*
X212929Y210763D01*
Y209710D01*
X213202Y208692D01*
X213728Y207780D01*
X214473Y207035D01*
X215385Y206509D01*
X216403Y206236D01*
X217456D01*
X218473Y206509D01*
X219385Y207035D01*
X220130Y207780D01*
X220657Y208692D01*
X220929Y209710D01*
Y210763D01*
X220657Y211780D01*
X220130Y212692D01*
X219385Y213437D01*
X218473Y213964D01*
X217456Y214236D01*
X216403D01*
X215385Y213964D01*
X215372Y213956D01*
X213511Y215818D01*
X213014Y216149D01*
X212429Y216266D01*
X101378D01*
X100793Y216149D01*
X100297Y215818D01*
X97268Y212789D01*
X84440D01*
X84436Y212804D01*
X83909Y213716D01*
X83165Y214461D01*
X82253Y214987D01*
X81235Y215260D01*
X80182D01*
X79165Y214987D01*
X78253Y214461D01*
X77508Y213716D01*
X76981Y212804D01*
X76709Y211787D01*
Y210733D01*
X76981Y209716D01*
X77508Y208804D01*
X78253Y208059D01*
X79165Y207532D01*
X80182Y207260D01*
X81235D01*
X82253Y207532D01*
X83165Y208059D01*
X83909Y208804D01*
X84436Y209716D01*
X84440Y209731D01*
X97902D01*
X98487Y209847D01*
X98983Y210178D01*
X102012Y213207D01*
X113590D01*
X113781Y212745D01*
X113728Y212692D01*
X113202Y211780D01*
X112929Y210763D01*
Y209710D01*
X113202Y208692D01*
X113728Y207780D01*
X114473Y207035D01*
X114940Y206766D01*
X114806Y206266D01*
X101378D01*
X100793Y206149D01*
X100297Y205818D01*
X97268Y202789D01*
X84440D01*
X84436Y202804D01*
X83909Y203716D01*
X83165Y204461D01*
X82253Y204987D01*
X81235Y205260D01*
X80182D01*
X79165Y204987D01*
X78253Y204461D01*
X77508Y203716D01*
X76981Y202804D01*
X76709Y201786D01*
Y200733D01*
X76981Y199716D01*
X77508Y198804D01*
X78253Y198059D01*
X79165Y197532D01*
X80182Y197260D01*
X81235D01*
X82253Y197532D01*
X83165Y198059D01*
X83909Y198804D01*
X84436Y199716D01*
X84440Y199730D01*
X97902D01*
X98487Y199847D01*
X98983Y200178D01*
X102012Y203207D01*
X113590D01*
X113781Y202745D01*
X113728Y202692D01*
X113202Y201780D01*
X112929Y200763D01*
Y199710D01*
X113202Y198692D01*
X113728Y197780D01*
X114473Y197035D01*
X114940Y196766D01*
X114806Y196266D01*
X101378D01*
X100793Y196149D01*
X100297Y195818D01*
X97268Y192789D01*
X84440D01*
X84436Y192804D01*
X83909Y193716D01*
X83165Y194461D01*
X82253Y194987D01*
X81235Y195260D01*
X80182D01*
X79165Y194987D01*
X78253Y194461D01*
X77508Y193716D01*
X76981Y192804D01*
X76709Y191786D01*
Y190733D01*
X76981Y189716D01*
X77508Y188804D01*
X78253Y188059D01*
X79165Y187532D01*
X80182Y187260D01*
X81235D01*
X82253Y187532D01*
X83165Y188059D01*
X83909Y188804D01*
X84436Y189716D01*
X84440Y189730D01*
X97902D01*
X98487Y189847D01*
X98983Y190178D01*
X102012Y193207D01*
X113590D01*
X113781Y192745D01*
X113728Y192692D01*
X113202Y191780D01*
X112929Y190763D01*
Y189710D01*
X113202Y188692D01*
X113728Y187780D01*
X114473Y187035D01*
X115385Y186509D01*
X116402Y186236D01*
X117456D01*
X118473Y186509D01*
X119385Y187035D01*
X120130Y187780D01*
X120657Y188692D01*
X120929Y189710D01*
Y190763D01*
X120657Y191780D01*
X120130Y192692D01*
X120077Y192745D01*
X120269Y193207D01*
X211796D01*
X213209Y191793D01*
X213202Y191780D01*
X212929Y190763D01*
Y189710D01*
X213202Y188692D01*
X213728Y187780D01*
X214473Y187035D01*
X215385Y186509D01*
X216403Y186236D01*
X217456D01*
X218473Y186509D01*
X219385Y187035D01*
X220130Y187780D01*
X220657Y188692D01*
X220660Y188707D01*
X224014D01*
X224599Y188823D01*
X225095Y189155D01*
X262578Y226638D01*
X263040Y226447D01*
Y223428D01*
X263157Y222843D01*
X263488Y222347D01*
X266709Y219126D01*
X266763Y218914D01*
X266752Y218573D01*
X266614Y218493D01*
X265869Y217748D01*
X265342Y216836D01*
X265070Y215819D01*
Y214765D01*
X265342Y213748D01*
X265869Y212836D01*
X266614Y212091D01*
X267526Y211565D01*
X268543Y211292D01*
X269596D01*
X270614Y211565D01*
X271526Y212091D01*
X272271Y212836D01*
X272797Y213748D01*
X273070Y214765D01*
Y214840D01*
X273532Y215031D01*
X274290Y214272D01*
Y199251D01*
X273828Y199060D01*
X271463Y201426D01*
Y202055D01*
X271526Y202091D01*
X272271Y202836D01*
X272797Y203748D01*
X273070Y204765D01*
Y205819D01*
X272797Y206836D01*
X272271Y207748D01*
X271526Y208493D01*
X270614Y209019D01*
X269596Y209292D01*
X268543D01*
X267526Y209019D01*
X266614Y208493D01*
X265869Y207748D01*
X265342Y206836D01*
X265070Y205819D01*
Y204765D01*
X265342Y203748D01*
X265869Y202836D01*
X266614Y202091D01*
X267526Y201565D01*
X268404Y201329D01*
Y200792D01*
X268521Y200207D01*
X268798Y199792D01*
X268647Y199292D01*
X268543D01*
X267526Y199019D01*
X266614Y198493D01*
X265869Y197748D01*
X265342Y196836D01*
X265070Y195819D01*
Y194765D01*
X265342Y193748D01*
X265869Y192836D01*
X266614Y192091D01*
X266713Y192034D01*
X266732Y191446D01*
X266624Y191374D01*
X236395Y161144D01*
X236063Y160648D01*
X235947Y160063D01*
Y131063D01*
X236063Y130478D01*
X236395Y129982D01*
X244459Y121918D01*
Y110657D01*
X243959Y110492D01*
X243182Y110941D01*
X242227Y111197D01*
X241238D01*
X240283Y110941D01*
X239426Y110446D01*
X238727Y109747D01*
X238278Y108970D01*
X177541D01*
X177183Y109590D01*
X176532Y110242D01*
X175733Y110702D01*
X174843Y110941D01*
X173922D01*
X173231Y110756D01*
X151584Y132402D01*
X151816Y133268D01*
Y134257D01*
X151560Y135213D01*
X151066Y136069D01*
X150367Y136768D01*
X149510Y137263D01*
X148644Y137495D01*
X148407Y137965D01*
X189149Y178707D01*
X213198D01*
X213202Y178692D01*
X213728Y177780D01*
X214473Y177035D01*
X215385Y176509D01*
X216403Y176236D01*
X217456D01*
X218473Y176509D01*
X219385Y177035D01*
X220130Y177780D01*
X220657Y178692D01*
X220929Y179710D01*
Y180763D01*
X220657Y181780D01*
X220130Y182692D01*
X219385Y183437D01*
X218473Y183964D01*
X217456Y184236D01*
X216403D01*
X215385Y183964D01*
X214473Y183437D01*
X213728Y182692D01*
X213202Y181780D01*
X213198Y181766D01*
X188515D01*
X187930Y181649D01*
X187434Y181318D01*
X141408Y135292D01*
X121514D01*
X121066Y136069D01*
X120367Y136768D01*
X119510Y137263D01*
X118555Y137519D01*
X117566D01*
X116611Y137263D01*
X115754Y136768D01*
X115055Y136069D01*
X114561Y135213D01*
X114305Y134257D01*
Y133268D01*
X114561Y132313D01*
X115055Y131457D01*
X115754Y130757D01*
X116611Y130263D01*
X117566Y130007D01*
X118555D01*
X119510Y130263D01*
X120367Y130757D01*
X121066Y131457D01*
X121514Y132233D01*
X142042D01*
X142627Y132350D01*
X143123Y132681D01*
X143858Y133416D01*
X144328Y133179D01*
X144561Y132313D01*
X145055Y131457D01*
X145754Y130757D01*
X146611Y130263D01*
X147566Y130007D01*
X148555D01*
X149422Y130239D01*
X171068Y108593D01*
X170882Y107902D01*
Y106980D01*
X171121Y106090D01*
X171582Y105292D01*
X172233Y104640D01*
X173031Y104180D01*
X173922Y103941D01*
X174843D01*
X175733Y104180D01*
X176532Y104640D01*
X177183Y105292D01*
X177541Y105912D01*
X238278D01*
X238727Y105135D01*
X239426Y104436D01*
X240283Y103941D01*
X241238Y103685D01*
X242227D01*
X243182Y103941D01*
X243959Y104390D01*
X244459Y104224D01*
Y92291D01*
X193234Y41066D01*
X192875Y41273D01*
X191603Y41614D01*
X190287D01*
X189015Y41273D01*
X187875Y40615D01*
X186944Y39684D01*
X186286Y38544D01*
X185945Y37272D01*
Y35956D01*
X186286Y34684D01*
X186944Y33544D01*
X187875Y32613D01*
X189015Y31955D01*
X190287Y31614D01*
X191603D01*
X192875Y31955D01*
X194015Y32613D01*
X194946Y33544D01*
X195604Y34684D01*
X195945Y35956D01*
Y37272D01*
X195604Y38544D01*
X195397Y38903D01*
X247070Y90576D01*
X247401Y91072D01*
X247518Y91658D01*
Y122551D01*
X247401Y123136D01*
X247070Y123633D01*
X239006Y131696D01*
Y134224D01*
X239506Y134389D01*
X240283Y133941D01*
X241238Y133685D01*
X242227D01*
X243093Y133917D01*
X259101Y117910D01*
Y83972D01*
X256579D01*
Y75870D01*
X264681D01*
Y76564D01*
X265181Y76771D01*
X267663Y74289D01*
X268160Y73957D01*
X268745Y73841D01*
X339523D01*
X340108Y73957D01*
X340604Y74289D01*
X343125Y76809D01*
X343587Y76618D01*
Y75870D01*
X351689D01*
Y81810D01*
X362105Y92226D01*
X362437Y92722D01*
X362553Y93307D01*
Y104381D01*
X363330Y104829D01*
X364029Y105528D01*
X364524Y106385D01*
X364756Y107251D01*
X365226Y107488D01*
X381541Y91173D01*
Y40987D01*
X381141Y40880D01*
X380001Y40222D01*
X379070Y39290D01*
X378412Y38150D01*
X378071Y36879D01*
Y35562D01*
X378412Y34291D01*
X379070Y33150D01*
X380001Y32219D01*
X381141Y31561D01*
X382413Y31220D01*
X383729D01*
X385001Y31561D01*
X386141Y32219D01*
X387072Y33150D01*
X387730Y34291D01*
X388071Y35562D01*
Y36879D01*
X387730Y38150D01*
X387072Y39290D01*
X386141Y40222D01*
X385001Y40880D01*
X384600Y40987D01*
Y91806D01*
X384484Y92391D01*
X384152Y92888D01*
X363868Y113172D01*
X363372Y113504D01*
X362787Y113620D01*
X359261D01*
X358676Y113504D01*
X358179Y113172D01*
X342005Y96998D01*
X341674Y96502D01*
X341557Y95916D01*
Y82235D01*
X341057Y82101D01*
X340880Y82409D01*
X340125Y83163D01*
X339201Y83696D01*
X339167Y83706D01*
Y154845D01*
X339051Y155431D01*
X338719Y155927D01*
X333772Y160873D01*
X333276Y161205D01*
X332691Y161321D01*
X331192D01*
X331059Y161821D01*
X331526Y162091D01*
X332271Y162836D01*
X332797Y163748D01*
X333070Y164765D01*
Y165819D01*
X332797Y166836D01*
X332271Y167748D01*
X331526Y168493D01*
X330614Y169019D01*
X329596Y169292D01*
X328543D01*
X327526Y169019D01*
X326614Y168493D01*
X325869Y167748D01*
X325342Y166836D01*
X325070Y165819D01*
Y165744D01*
X324608Y165553D01*
X300645Y189515D01*
Y195246D01*
X300529Y195831D01*
X300198Y196327D01*
X272790Y223735D01*
X272797Y223748D01*
X273070Y224765D01*
Y225819D01*
X272797Y226836D01*
X272271Y227748D01*
X271526Y228493D01*
X271427Y228550D01*
X271407Y229138D01*
X271515Y229211D01*
X274651Y232347D01*
X274983Y232843D01*
X275099Y233428D01*
Y250792D01*
X274983Y251377D01*
X274651Y251873D01*
X272790Y253735D01*
X272797Y253748D01*
X273070Y254765D01*
Y255819D01*
X272797Y256836D01*
X272271Y257748D01*
X271526Y258493D01*
X270614Y259019D01*
X269596Y259292D01*
D02*
G37*
G36*
X84709Y250760D02*
X81209D01*
Y247260D01*
X81235D01*
X82253Y247532D01*
X83165Y248059D01*
X83909Y248804D01*
X84436Y249716D01*
X84709Y250733D01*
Y250760D01*
D02*
G37*
G36*
X80209D02*
X76709D01*
Y250733D01*
X76981Y249716D01*
X77508Y248804D01*
X78253Y248059D01*
X79165Y247532D01*
X80182Y247260D01*
X80209D01*
Y250760D01*
D02*
G37*
G36*
X365797Y253716D02*
X364912D01*
X364057Y253487D01*
X363290Y253045D01*
X362664Y252419D01*
X362221Y251652D01*
X361992Y250797D01*
Y249912D01*
X362221Y249057D01*
X362664Y248290D01*
X363290Y247664D01*
X364057Y247221D01*
X364912Y246992D01*
X365797D01*
X366652Y247221D01*
X367419Y247664D01*
X368045Y248290D01*
X368487Y249057D01*
X368717Y249912D01*
Y250797D01*
X368487Y251652D01*
X368045Y252419D01*
X367419Y253045D01*
X366652Y253487D01*
X365797Y253716D01*
D02*
G37*
G36*
X220929Y249736D02*
X217429D01*
Y246236D01*
X217456D01*
X218473Y246509D01*
X219385Y247035D01*
X220130Y247780D01*
X220657Y248692D01*
X220929Y249710D01*
Y249736D01*
D02*
G37*
G36*
X216429D02*
X212929D01*
Y249710D01*
X213202Y248692D01*
X213728Y247780D01*
X214473Y247035D01*
X215385Y246509D01*
X216403Y246236D01*
X216429D01*
Y249736D01*
D02*
G37*
G36*
X81235Y245260D02*
X80182D01*
X79165Y244987D01*
X78253Y244461D01*
X77508Y243716D01*
X76981Y242804D01*
X76709Y241787D01*
Y240733D01*
X76981Y239716D01*
X77508Y238804D01*
X78253Y238059D01*
X79165Y237532D01*
X80182Y237260D01*
X81235D01*
X82253Y237532D01*
X83165Y238059D01*
X83909Y238804D01*
X84149Y239219D01*
X213061D01*
X213202Y238692D01*
X213728Y237780D01*
X214473Y237035D01*
X215385Y236509D01*
X216403Y236236D01*
X217456D01*
X218473Y236509D01*
X219385Y237035D01*
X220130Y237780D01*
X220657Y238692D01*
X220929Y239710D01*
Y240763D01*
X220657Y241780D01*
X220130Y242692D01*
X219385Y243437D01*
X218473Y243964D01*
X217456Y244236D01*
X216403D01*
X215385Y243964D01*
X214473Y243437D01*
X213728Y242692D01*
X213489Y242277D01*
X84577D01*
X84436Y242804D01*
X83909Y243716D01*
X83165Y244461D01*
X82253Y244987D01*
X81235Y245260D01*
D02*
G37*
G36*
Y235260D02*
X80182D01*
X79165Y234987D01*
X78253Y234461D01*
X77508Y233716D01*
X76981Y232804D01*
X76709Y231786D01*
Y230733D01*
X76981Y229716D01*
X77508Y228804D01*
X78253Y228059D01*
X79165Y227532D01*
X80182Y227260D01*
X81235D01*
X82253Y227532D01*
X83165Y228059D01*
X83909Y228804D01*
X84149Y229219D01*
X213061D01*
X213202Y228692D01*
X213728Y227780D01*
X214473Y227035D01*
X215385Y226509D01*
X216403Y226236D01*
X217456D01*
X218473Y226509D01*
X219385Y227035D01*
X220130Y227780D01*
X220657Y228692D01*
X220929Y229710D01*
Y230763D01*
X220657Y231780D01*
X220130Y232692D01*
X219385Y233437D01*
X218473Y233964D01*
X217456Y234236D01*
X216403D01*
X215385Y233964D01*
X214473Y233437D01*
X213728Y232692D01*
X213489Y232277D01*
X84577D01*
X84436Y232804D01*
X83909Y233716D01*
X83165Y234461D01*
X82253Y234987D01*
X81235Y235260D01*
D02*
G37*
G36*
Y225260D02*
X80182D01*
X79165Y224987D01*
X78253Y224461D01*
X77508Y223716D01*
X76981Y222804D01*
X76709Y221786D01*
Y220733D01*
X76981Y219716D01*
X77508Y218804D01*
X78253Y218059D01*
X79165Y217532D01*
X80182Y217260D01*
X81235D01*
X82253Y217532D01*
X83165Y218059D01*
X83909Y218804D01*
X84149Y219219D01*
X213061D01*
X213202Y218692D01*
X213728Y217780D01*
X214473Y217035D01*
X215385Y216509D01*
X216403Y216236D01*
X217456D01*
X218473Y216509D01*
X219385Y217035D01*
X220130Y217780D01*
X220657Y218692D01*
X220929Y219710D01*
Y220763D01*
X220657Y221780D01*
X220130Y222692D01*
X219385Y223437D01*
X218473Y223964D01*
X217456Y224236D01*
X216403D01*
X215385Y223964D01*
X214473Y223437D01*
X213728Y222692D01*
X213489Y222277D01*
X84577D01*
X84436Y222804D01*
X83909Y223716D01*
X83165Y224461D01*
X82253Y224987D01*
X81235Y225260D01*
D02*
G37*
G36*
X329596Y209292D02*
X328543D01*
X327526Y209019D01*
X326614Y208493D01*
X325869Y207748D01*
X325342Y206836D01*
X325070Y205819D01*
Y204765D01*
X325342Y203748D01*
X325869Y202836D01*
X326614Y202091D01*
X327526Y201565D01*
X328543Y201292D01*
X329596D01*
X330614Y201565D01*
X331526Y202091D01*
X332271Y202836D01*
X332797Y203748D01*
X333070Y204765D01*
Y205819D01*
X332797Y206836D01*
X332271Y207748D01*
X331526Y208493D01*
X330614Y209019D01*
X329596Y209292D01*
D02*
G37*
G36*
X408086Y193576D02*
X406875D01*
X405705Y193263D01*
X404656Y192657D01*
X403799Y191801D01*
X403194Y190752D01*
X402880Y189582D01*
Y188371D01*
X403194Y187201D01*
X403799Y186152D01*
X404656Y185295D01*
X405705Y184690D01*
X405951Y184624D01*
Y179149D01*
X405489Y178957D01*
X398073Y186373D01*
X397577Y186705D01*
X396991Y186821D01*
X332801D01*
X332797Y186836D01*
X332271Y187748D01*
X331526Y188493D01*
X330614Y189019D01*
X329596Y189292D01*
X328543D01*
X327526Y189019D01*
X326614Y188493D01*
X325869Y187748D01*
X325342Y186836D01*
X325070Y185819D01*
Y184765D01*
X325342Y183748D01*
X325869Y182836D01*
X326614Y182091D01*
X327526Y181565D01*
X328543Y181292D01*
X329596D01*
X330614Y181565D01*
X331526Y182091D01*
X332271Y182836D01*
X332797Y183748D01*
X332801Y183763D01*
X396358D01*
X400903Y179218D01*
X400711Y178756D01*
X397980D01*
Y175303D01*
X401433D01*
Y178034D01*
X401895Y178226D01*
X403796Y176325D01*
X403528Y175323D01*
Y174283D01*
X403797Y173277D01*
X404317Y172376D01*
X405053Y171640D01*
X405955Y171120D01*
X406960Y170850D01*
X408001D01*
X409006Y171120D01*
X409907Y171640D01*
X410643Y172376D01*
X411164Y173277D01*
X411433Y174283D01*
Y175323D01*
X411164Y176329D01*
X410643Y177230D01*
X409907Y177966D01*
X409010Y178484D01*
Y184624D01*
X409256Y184690D01*
X410305Y185295D01*
X411161Y186152D01*
X411767Y187201D01*
X412080Y188371D01*
Y189582D01*
X411767Y190752D01*
X411161Y191801D01*
X410305Y192657D01*
X409256Y193263D01*
X408086Y193576D01*
D02*
G37*
G36*
X81235Y185260D02*
X80182D01*
X79165Y184987D01*
X78253Y184461D01*
X77508Y183716D01*
X76981Y182804D01*
X76709Y181786D01*
Y180733D01*
X76981Y179716D01*
X77508Y178804D01*
X78253Y178059D01*
X79165Y177532D01*
X80182Y177260D01*
X81235D01*
X82253Y177532D01*
X83165Y178059D01*
X83909Y178804D01*
X84436Y179716D01*
X84709Y180733D01*
Y181786D01*
X84436Y182804D01*
X83909Y183716D01*
X83165Y184461D01*
X82253Y184987D01*
X81235Y185260D01*
D02*
G37*
G36*
X117456Y184236D02*
X116402D01*
X115385Y183964D01*
X114473Y183437D01*
X113728Y182692D01*
X113202Y181780D01*
X112929Y180763D01*
Y179710D01*
X113202Y178692D01*
X113728Y177780D01*
X114473Y177035D01*
X115385Y176509D01*
X116402Y176236D01*
X117456D01*
X118473Y176509D01*
X119385Y177035D01*
X120130Y177780D01*
X120657Y178692D01*
X120929Y179710D01*
Y180763D01*
X120657Y181780D01*
X120130Y182692D01*
X119385Y183437D01*
X118473Y183964D01*
X117456Y184236D01*
D02*
G37*
G36*
X396980Y178756D02*
X393528D01*
Y175303D01*
X396980D01*
Y178756D01*
D02*
G37*
G36*
X84709Y175260D02*
X81209D01*
Y171760D01*
X84709D01*
Y175260D01*
D02*
G37*
G36*
X80209D02*
X76709D01*
Y171760D01*
X80209D01*
Y175260D01*
D02*
G37*
G36*
X329596Y179292D02*
X328543D01*
X327526Y179019D01*
X326614Y178493D01*
X325869Y177748D01*
X325342Y176836D01*
X325070Y175819D01*
Y174765D01*
X325342Y173748D01*
X325869Y172836D01*
X326614Y172091D01*
X327526Y171565D01*
X328543Y171292D01*
X329596D01*
X330614Y171565D01*
X331526Y172091D01*
X332271Y172836D01*
X332797Y173748D01*
X333070Y174765D01*
Y175819D01*
X332797Y176836D01*
X332271Y177748D01*
X331526Y178493D01*
X330614Y179019D01*
X329596Y179292D01*
D02*
G37*
G36*
X401433Y174303D02*
X397980D01*
Y170850D01*
X401433D01*
Y174303D01*
D02*
G37*
G36*
X396980D02*
X393528D01*
Y170850D01*
X396980D01*
Y174303D01*
D02*
G37*
G36*
X220929Y174236D02*
X217429D01*
Y170736D01*
X220929D01*
Y174236D01*
D02*
G37*
G36*
X216429D02*
X212929D01*
Y170736D01*
X216429D01*
Y174236D01*
D02*
G37*
G36*
X84709Y170760D02*
X81209D01*
Y167260D01*
X84709D01*
Y170760D01*
D02*
G37*
G36*
X80209D02*
X76709D01*
Y167260D01*
X80209D01*
Y170760D01*
D02*
G37*
G36*
X220929Y169736D02*
X217429D01*
Y166236D01*
X220929D01*
Y169736D01*
D02*
G37*
G36*
X216429D02*
X212929D01*
Y166236D01*
X216429D01*
Y169736D01*
D02*
G37*
G36*
X117456Y174236D02*
X116402D01*
X115385Y173964D01*
X114473Y173437D01*
X113728Y172692D01*
X113202Y171780D01*
X112929Y170763D01*
Y169710D01*
X113202Y168692D01*
X113728Y167780D01*
X114473Y167035D01*
X115385Y166509D01*
X116402Y166236D01*
X117456D01*
X118473Y166509D01*
X119385Y167035D01*
X120130Y167780D01*
X120657Y168692D01*
X120929Y169710D01*
Y170763D01*
X120657Y171780D01*
X120130Y172692D01*
X119385Y173437D01*
X118473Y173964D01*
X117456Y174236D01*
D02*
G37*
G36*
X418001Y178756D02*
X416960D01*
X415955Y178487D01*
X415053Y177966D01*
X414317Y177230D01*
X413797Y176329D01*
X413528Y175323D01*
Y174283D01*
X413797Y173277D01*
X414317Y172376D01*
X415053Y171640D01*
X415951Y171122D01*
Y167471D01*
X413311Y164832D01*
X412620Y165017D01*
X411698D01*
X410808Y164778D01*
X410010Y164318D01*
X409359Y163666D01*
X408898Y162868D01*
X408659Y161978D01*
Y161056D01*
X408844Y160365D01*
X407077Y158598D01*
X406746Y158101D01*
X406629Y157516D01*
Y118241D01*
X400376Y111988D01*
X400363Y111995D01*
X399345Y112268D01*
X398292D01*
X397275Y111995D01*
X396363Y111469D01*
X395618Y110724D01*
X395092Y109812D01*
X395088Y109797D01*
X391224D01*
X364547Y136474D01*
X364779Y137340D01*
Y138329D01*
X364524Y139284D01*
X364029Y140141D01*
X363330Y140840D01*
X362473Y141335D01*
X361518Y141591D01*
X360529D01*
X359574Y141335D01*
X358717Y140840D01*
X358018Y140141D01*
X357524Y139284D01*
X357268Y138329D01*
Y137340D01*
X357524Y136385D01*
X358018Y135529D01*
X358717Y134829D01*
X359574Y134335D01*
X360529Y134079D01*
X361518D01*
X362385Y134311D01*
X389509Y107186D01*
X390005Y106855D01*
X390591Y106738D01*
X395088D01*
X395092Y106724D01*
X395618Y105812D01*
X396363Y105067D01*
X397275Y104540D01*
X398292Y104268D01*
X399345D01*
X400363Y104540D01*
X401275Y105067D01*
X402020Y105812D01*
X402546Y106724D01*
X402819Y107741D01*
Y108794D01*
X402546Y109812D01*
X402539Y109825D01*
X409240Y116526D01*
X409572Y117022D01*
X409688Y117607D01*
Y156883D01*
X411007Y158202D01*
X411698Y158017D01*
X412620D01*
X413510Y158255D01*
X414308Y158716D01*
X414960Y159368D01*
X415421Y160166D01*
X415659Y161056D01*
Y161978D01*
X415474Y162669D01*
X418562Y165756D01*
X418893Y166253D01*
X419010Y166838D01*
Y171122D01*
X419907Y171640D01*
X420643Y172376D01*
X421164Y173277D01*
X421433Y174283D01*
Y175323D01*
X421164Y176329D01*
X420643Y177230D01*
X419907Y177966D01*
X419006Y178487D01*
X418001Y178756D01*
D02*
G37*
G36*
X399345Y132268D02*
X399319D01*
Y128768D01*
X402819D01*
Y128794D01*
X402546Y129812D01*
X402020Y130724D01*
X401275Y131468D01*
X400363Y131995D01*
X399345Y132268D01*
D02*
G37*
G36*
X398319D02*
X398292D01*
X397275Y131995D01*
X396363Y131468D01*
X395618Y130724D01*
X395092Y129812D01*
X394819Y128794D01*
Y128768D01*
X398319D01*
Y132268D01*
D02*
G37*
G36*
X402819Y127768D02*
X399319D01*
Y124268D01*
X399345D01*
X400363Y124540D01*
X401275Y125067D01*
X402020Y125812D01*
X402546Y126724D01*
X402819Y127741D01*
Y127768D01*
D02*
G37*
G36*
X398319D02*
X394819D01*
Y127741D01*
X395092Y126724D01*
X395618Y125812D01*
X396363Y125067D01*
X397275Y124540D01*
X398292Y124268D01*
X398319D01*
Y127768D01*
D02*
G37*
G36*
X472968Y350063D02*
X471914D01*
X470897Y349790D01*
X469985Y349264D01*
X469240Y348519D01*
X468714Y347607D01*
X468441Y346590D01*
Y345536D01*
X468714Y344519D01*
X469240Y343607D01*
X469985Y342862D01*
X470897Y342336D01*
X470912Y342332D01*
Y338056D01*
X471028Y337470D01*
X471359Y336974D01*
X480486Y327848D01*
Y179106D01*
X451281Y149900D01*
X450949Y149404D01*
X450833Y148819D01*
Y113779D01*
X450949Y113194D01*
X451281Y112698D01*
X454154Y109825D01*
X454147Y109812D01*
X453874Y108794D01*
Y107741D01*
X454147Y106724D01*
X454673Y105812D01*
X455418Y105067D01*
X456330Y104540D01*
X457347Y104268D01*
X458401D01*
X459418Y104540D01*
X460330Y105067D01*
X461075Y105812D01*
X461601Y106724D01*
X461874Y107741D01*
Y108794D01*
X461601Y109812D01*
X461075Y110724D01*
X460330Y111469D01*
X459418Y111995D01*
X458401Y112268D01*
X457347D01*
X456330Y111995D01*
X456317Y111988D01*
X453892Y114413D01*
Y116165D01*
X454392Y116299D01*
X454673Y115812D01*
X455418Y115067D01*
X456330Y114540D01*
X457347Y114268D01*
X458401D01*
X459418Y114540D01*
X460330Y115067D01*
X461075Y115812D01*
X461601Y116724D01*
X461874Y117741D01*
Y118794D01*
X461601Y119812D01*
X461075Y120724D01*
X460330Y121468D01*
X459418Y121995D01*
X458401Y122268D01*
X457347D01*
X456330Y121995D01*
X455418Y121468D01*
X454673Y120724D01*
X454392Y120236D01*
X453892Y120370D01*
Y148185D01*
X483097Y177391D01*
X483428Y177887D01*
X483545Y178472D01*
Y328481D01*
X483428Y329066D01*
X483097Y329563D01*
X473970Y338689D01*
Y342332D01*
X473985Y342336D01*
X474897Y342862D01*
X475642Y343607D01*
X476168Y344519D01*
X476441Y345536D01*
Y346590D01*
X476168Y347607D01*
X475642Y348519D01*
X474897Y349264D01*
X473985Y349790D01*
X472968Y350063D01*
D02*
G37*
G36*
X399345Y122268D02*
X398292D01*
X397275Y121995D01*
X396363Y121468D01*
X395618Y120724D01*
X395092Y119812D01*
X394819Y118794D01*
Y117741D01*
X395092Y116724D01*
X395618Y115812D01*
X396363Y115067D01*
X397275Y114540D01*
X398292Y114268D01*
X399345D01*
X400363Y114540D01*
X401275Y115067D01*
X402020Y115812D01*
X402546Y116724D01*
X402819Y117741D01*
Y118794D01*
X402546Y119812D01*
X402020Y120724D01*
X401275Y121468D01*
X400363Y121995D01*
X399345Y122268D01*
D02*
G37*
G36*
X219162Y41614D02*
X219004D01*
Y37114D01*
X223504D01*
Y37272D01*
X223163Y38544D01*
X222505Y39684D01*
X221574Y40615D01*
X220434Y41273D01*
X219162Y41614D01*
D02*
G37*
G36*
X218004D02*
X217846D01*
X216574Y41273D01*
X215434Y40615D01*
X214503Y39684D01*
X213845Y38544D01*
X213504Y37272D01*
Y37114D01*
X218004D01*
Y41614D01*
D02*
G37*
G36*
X223504Y36114D02*
X219004D01*
Y31614D01*
X219162D01*
X220434Y31955D01*
X221574Y32613D01*
X222505Y33544D01*
X223163Y34684D01*
X223504Y35956D01*
Y36114D01*
D02*
G37*
G36*
X218004D02*
X213504D01*
Y35956D01*
X213845Y34684D01*
X214503Y33544D01*
X215434Y32613D01*
X216574Y31955D01*
X217846Y31614D01*
X218004D01*
Y36114D01*
D02*
G37*
G36*
X252627Y40827D02*
X251310D01*
X250039Y40486D01*
X248898Y39828D01*
X247968Y38897D01*
X247309Y37757D01*
X246969Y36485D01*
Y35168D01*
X247309Y33897D01*
X247968Y32757D01*
X248898Y31826D01*
X250039Y31168D01*
X251310Y30827D01*
X252627D01*
X253898Y31168D01*
X255039Y31826D01*
X255970Y32757D01*
X256628Y33897D01*
X256968Y35168D01*
Y36485D01*
X256628Y37757D01*
X255970Y38897D01*
X255039Y39828D01*
X253898Y40486D01*
X252627Y40827D01*
D02*
G37*
G36*
X355776Y41221D02*
X354460D01*
X353188Y40880D01*
X352048Y40222D01*
X351117Y39290D01*
X350459Y38150D01*
X350118Y36879D01*
Y35562D01*
X350459Y34291D01*
X351117Y33150D01*
X352048Y32219D01*
X353188Y31561D01*
X353605Y31450D01*
Y30720D01*
X353721Y30135D01*
X354052Y29639D01*
X355410Y28282D01*
X355224Y27591D01*
Y26669D01*
X355463Y25779D01*
X355924Y24981D01*
X356575Y24329D01*
X357373Y23868D01*
X358264Y23630D01*
X359185D01*
X360075Y23868D01*
X360874Y24329D01*
X361525Y24981D01*
X361986Y25779D01*
X362224Y26669D01*
Y27591D01*
X361986Y28481D01*
X361525Y29279D01*
X360874Y29931D01*
X360075Y30391D01*
X359185Y30630D01*
X358264D01*
X357573Y30445D01*
X356989Y31028D01*
X357022Y31322D01*
X357121Y31603D01*
X358188Y32219D01*
X359119Y33150D01*
X359777Y34291D01*
X360118Y35562D01*
Y36879D01*
X359777Y38150D01*
X359119Y39290D01*
X358188Y40222D01*
X357048Y40880D01*
X355776Y41221D01*
D02*
G37*
%LPD*%
G36*
X211191Y574319D02*
X210926Y574054D01*
X210327Y573016D01*
X210017Y571859D01*
Y570661D01*
X210327Y569504D01*
X210926Y568466D01*
X211773Y567619D01*
X212811Y567020D01*
X213968Y566710D01*
X215166D01*
X216323Y567020D01*
X216527Y567137D01*
X244140Y539524D01*
Y503608D01*
X243894Y503542D01*
X242845Y502936D01*
X241988Y502080D01*
X241383Y501031D01*
X241069Y499861D01*
Y498650D01*
X241383Y497480D01*
X241988Y496431D01*
X242845Y495574D01*
X243894Y494969D01*
X244140Y494903D01*
Y456748D01*
X240519D01*
Y447478D01*
X236085D01*
X235894Y447940D01*
X236390Y448436D01*
X237068Y449611D01*
X237419Y450920D01*
Y452276D01*
X237068Y453586D01*
X236390Y454761D01*
X235432Y455720D01*
X234257Y456397D01*
X232947Y456748D01*
X231591D01*
X230281Y456397D01*
X229107Y455720D01*
X228148Y454761D01*
X227470Y453586D01*
X227119Y452276D01*
Y450920D01*
X227470Y449611D01*
X228148Y448436D01*
X228645Y447940D01*
X228453Y447478D01*
X186193D01*
X175943Y457727D01*
X175447Y458059D01*
X174862Y458176D01*
X108005D01*
X107420Y458059D01*
X106924Y457727D01*
X104754Y455558D01*
X104343Y455795D01*
X103033Y456146D01*
X101677D01*
X100367Y455795D01*
X99193Y455117D01*
X98697Y454621D01*
X98234Y454812D01*
Y508513D01*
X156466Y566744D01*
X156669Y566626D01*
X157826Y566316D01*
X159024D01*
X160181Y566626D01*
X161219Y567225D01*
X162066Y568072D01*
X162665Y569110D01*
X162975Y570267D01*
Y571465D01*
X162665Y572622D01*
X162066Y573660D01*
X161445Y574281D01*
X161653Y574781D01*
X191000D01*
X191191Y574319D01*
X190926Y574054D01*
X190327Y573016D01*
X190017Y571859D01*
Y570661D01*
X190327Y569504D01*
X190444Y569300D01*
X178052Y556908D01*
X177721Y556412D01*
X177604Y555827D01*
Y550796D01*
X176985Y550438D01*
X176333Y549787D01*
X175872Y548989D01*
X175634Y548099D01*
Y547177D01*
X175872Y546287D01*
X176333Y545489D01*
X176985Y544837D01*
X177783Y544376D01*
X178673Y544138D01*
X179595D01*
X180485Y544376D01*
X181283Y544837D01*
X181935Y545489D01*
X182395Y546287D01*
X182634Y547177D01*
Y548099D01*
X182395Y548989D01*
X181935Y549787D01*
X181283Y550438D01*
X180663Y550796D01*
Y555193D01*
X192607Y567137D01*
X192811Y567020D01*
X193968Y566710D01*
X195166D01*
X196323Y567020D01*
X197361Y567619D01*
X198208Y568466D01*
X198807Y569504D01*
X199117Y570661D01*
Y571859D01*
X198807Y573016D01*
X198208Y574054D01*
X197943Y574319D01*
X198134Y574781D01*
X211000D01*
X211191Y574319D01*
D02*
G37*
%LPC*%
G36*
X171224Y484748D02*
X168024D01*
Y481548D01*
X171224D01*
Y484748D01*
D02*
G37*
G36*
X167024D02*
X163824D01*
Y481548D01*
X167024D01*
Y484748D01*
D02*
G37*
G36*
X187696D02*
X186722D01*
X185781Y484496D01*
X184937Y484009D01*
X184248Y483320D01*
X183761Y482476D01*
X183509Y481535D01*
Y480561D01*
X183761Y479620D01*
X184248Y478776D01*
X184937Y478087D01*
X185781Y477600D01*
X186722Y477348D01*
X187696D01*
X188637Y477600D01*
X189481Y478087D01*
X190170Y478776D01*
X190598Y479519D01*
X202736D01*
X203078Y478926D01*
X203729Y478274D01*
X204527Y477814D01*
X205417Y477575D01*
X206339D01*
X207229Y477814D01*
X208027Y478274D01*
X208679Y478926D01*
X209140Y479724D01*
X209378Y480614D01*
Y481536D01*
X209140Y482426D01*
X208679Y483224D01*
X208027Y483876D01*
X207229Y484337D01*
X206339Y484575D01*
X205417D01*
X204527Y484337D01*
X203729Y483876D01*
X203078Y483224D01*
X202704Y482577D01*
X190598D01*
X190170Y483320D01*
X189481Y484009D01*
X188637Y484496D01*
X187696Y484748D01*
D02*
G37*
G36*
X171224Y480548D02*
X168024D01*
Y477348D01*
X171224D01*
Y480548D01*
D02*
G37*
G36*
X167024D02*
X163824D01*
Y477348D01*
X167024D01*
Y480548D01*
D02*
G37*
%LPD*%
G36*
X408084Y249480D02*
X408610Y248568D01*
X409355Y247823D01*
X409822Y247553D01*
X409688Y247053D01*
X408190D01*
X407604Y246937D01*
X407108Y246605D01*
X395325Y234821D01*
X364920D01*
X364729Y235283D01*
X378940Y249494D01*
X408080D01*
X408084Y249480D01*
D02*
G37*
G36*
X272040Y241952D02*
Y238632D01*
X271578Y238440D01*
X271526Y238493D01*
X270614Y239019D01*
X269596Y239292D01*
X268543D01*
X267526Y239019D01*
X266614Y238493D01*
X265869Y237748D01*
X265342Y236836D01*
X265070Y235819D01*
Y234765D01*
X265342Y233748D01*
X265350Y233735D01*
X223380Y191766D01*
X220660D01*
X220657Y191780D01*
X220130Y192692D01*
X219385Y193437D01*
X218473Y193964D01*
X217456Y194236D01*
X216403D01*
X215385Y193964D01*
X215372Y193956D01*
X213511Y195818D01*
X213014Y196149D01*
X212429Y196266D01*
X119052D01*
X118918Y196766D01*
X119385Y197035D01*
X120130Y197780D01*
X120657Y198692D01*
X120929Y199710D01*
Y200763D01*
X120657Y201780D01*
X120130Y202692D01*
X120077Y202745D01*
X120269Y203207D01*
X211796D01*
X213209Y201793D01*
X213202Y201780D01*
X212929Y200763D01*
Y199710D01*
X213202Y198692D01*
X213728Y197780D01*
X214473Y197035D01*
X215385Y196509D01*
X216403Y196236D01*
X217456D01*
X218473Y196509D01*
X219385Y197035D01*
X220130Y197780D01*
X220657Y198692D01*
X220703Y198864D01*
X224171D01*
X224757Y198981D01*
X225253Y199312D01*
X267513Y241572D01*
X267526Y241565D01*
X268543Y241292D01*
X269596D01*
X270614Y241565D01*
X271526Y242091D01*
X271578Y242144D01*
X272040Y241952D01*
D02*
G37*
G36*
X265070Y184840D02*
Y184765D01*
X265342Y183748D01*
X265869Y182836D01*
X266614Y182091D01*
X267526Y181565D01*
X268543Y181292D01*
X269596D01*
X270614Y181565D01*
X270627Y181572D01*
X272040Y180158D01*
Y178631D01*
X271578Y178440D01*
X271526Y178493D01*
X270614Y179019D01*
X269596Y179292D01*
X268543D01*
X267526Y179019D01*
X266614Y178493D01*
X265869Y177748D01*
X265342Y176836D01*
X265070Y175819D01*
Y174765D01*
X265342Y173748D01*
X265869Y172836D01*
X266614Y172091D01*
X267526Y171565D01*
X268543Y171292D01*
X269596D01*
X270164Y171444D01*
X270561Y171140D01*
Y169444D01*
X270164Y169140D01*
X269596Y169292D01*
X268543D01*
X267526Y169019D01*
X266614Y168493D01*
X265869Y167748D01*
X265342Y166836D01*
X265070Y165819D01*
Y164765D01*
X265342Y163748D01*
X265869Y162836D01*
X266614Y162091D01*
X267526Y161565D01*
X268543Y161292D01*
X269596D01*
X270164Y161444D01*
X270561Y161140D01*
Y159444D01*
X270164Y159140D01*
X269596Y159292D01*
X268543D01*
X267526Y159019D01*
X266614Y158493D01*
X265869Y157748D01*
X265342Y156836D01*
X265070Y155819D01*
Y154765D01*
X265342Y153748D01*
X265869Y152836D01*
X266614Y152091D01*
X267526Y151565D01*
X268543Y151292D01*
X269596D01*
X270238Y151464D01*
X270738Y151080D01*
Y149763D01*
X270238Y149379D01*
X269629Y149542D01*
X268510D01*
X267429Y149252D01*
X266460Y148693D01*
X265669Y147902D01*
X265109Y146932D01*
X264820Y145852D01*
Y144732D01*
X265109Y143652D01*
X265669Y142682D01*
X266460Y141891D01*
X267429Y141332D01*
X268510Y141042D01*
X268721D01*
X268912Y140580D01*
X264997Y136665D01*
X264666Y136169D01*
X264549Y135583D01*
Y83972D01*
X262159D01*
Y118543D01*
X262043Y119129D01*
X261711Y119625D01*
X245256Y136080D01*
X245488Y136946D01*
Y137935D01*
X245232Y138891D01*
X244738Y139747D01*
X244039Y140446D01*
X243182Y140941D01*
X242227Y141197D01*
X241238D01*
X240283Y140941D01*
X239506Y140492D01*
X239006Y140657D01*
Y159429D01*
X264608Y185031D01*
X265070Y184840D01*
D02*
G37*
G36*
X357292Y107251D02*
X357524Y106385D01*
X358018Y105528D01*
X358717Y104829D01*
X359494Y104381D01*
Y93941D01*
X349526Y83972D01*
X344616D01*
Y95283D01*
X356821Y107488D01*
X357292Y107251D01*
D02*
G37*
G36*
X274290Y140979D02*
Y118509D01*
X269549Y113767D01*
X269217Y113271D01*
X269100Y112686D01*
Y83706D01*
X269066Y83696D01*
X268142Y83163D01*
X268070Y83091D01*
X267608Y83282D01*
Y134950D01*
X273828Y141170D01*
X274290Y140979D01*
D02*
G37*
G36*
X297587Y194612D02*
Y188882D01*
X297703Y188296D01*
X298035Y187800D01*
X326081Y159754D01*
X325890Y159292D01*
X325070D01*
Y151292D01*
X333070D01*
Y156597D01*
X333532Y156789D01*
X336108Y154212D01*
Y83706D01*
X336074Y83696D01*
X335150Y83163D01*
X334396Y82409D01*
X333863Y81485D01*
X333587Y80455D01*
Y79388D01*
X333863Y78358D01*
X334396Y77434D01*
X334468Y77361D01*
X334277Y76899D01*
X273991D01*
X273799Y77361D01*
X273872Y77434D01*
X274405Y78358D01*
X274681Y79388D01*
Y80455D01*
X274405Y81485D01*
X273872Y82409D01*
X273117Y83163D01*
X272194Y83696D01*
X272159Y83706D01*
Y112052D01*
X276901Y116794D01*
X277233Y117290D01*
X277349Y117876D01*
Y214196D01*
X277811Y214388D01*
X297587Y194612D01*
D02*
G37*
%LPC*%
G36*
X329629Y149542D02*
X328510D01*
X327429Y149252D01*
X326460Y148693D01*
X325669Y147902D01*
X325109Y146932D01*
X324820Y145852D01*
Y144732D01*
X325109Y143652D01*
X325669Y142682D01*
X326460Y141891D01*
X327429Y141332D01*
X328510Y141042D01*
X329629D01*
X330710Y141332D01*
X331679Y141891D01*
X332471Y142682D01*
X333030Y143652D01*
X333320Y144732D01*
Y145852D01*
X333030Y146932D01*
X332471Y147902D01*
X331679Y148693D01*
X330710Y149252D01*
X329629Y149542D01*
D02*
G37*
%LPD*%
D14*
X148228Y330118D02*
X172244D01*
X172441Y330315D01*
X148031Y329921D02*
X148228Y330118D01*
X407480Y174803D02*
Y188976D01*
X345512Y439921D02*
X352362D01*
X269843Y515590D02*
Y571260D01*
Y515590D02*
X345512Y439921D01*
X396991Y185292D02*
X407480Y174803D01*
X96705Y448656D02*
Y509146D01*
X102355Y450996D02*
X108005Y456646D01*
X174862D01*
X96705Y509146D02*
X158425Y570866D01*
X161772Y418223D02*
Y431496D01*
X452362Y148819D02*
X482015Y178472D01*
X452362Y113779D02*
X457874Y108268D01*
X482015Y178472D02*
Y328481D01*
X452362Y113779D02*
Y148819D01*
X472441Y338056D02*
X482015Y328481D01*
X472441Y338056D02*
Y346063D01*
X445669Y351969D02*
X472661Y324976D01*
X378771Y351969D02*
X445669D01*
X351969D02*
X378771D01*
X412159Y161517D02*
X417480Y166838D01*
X408159Y157516D02*
X412159Y161517D01*
X205878Y481075D02*
X205906Y481102D01*
X205851Y481048D02*
X205878Y481075D01*
X393307Y302845D02*
Y327953D01*
X361254Y270792D02*
X393307Y302845D01*
X355118Y36220D02*
X355134Y36205D01*
Y30720D02*
Y36205D01*
Y30720D02*
X358724Y27130D01*
X148061Y133763D02*
X174382Y107441D01*
X241732D01*
X361024Y137835D02*
X390591Y108268D01*
X398819D01*
X408159Y117607D01*
X417480Y166838D02*
Y174803D01*
X408159Y117607D02*
Y157516D01*
X319685Y204677D02*
Y409907D01*
Y204677D02*
X330226Y194136D01*
X293585Y436007D02*
X319685Y409907D01*
X328206Y270792D02*
X361254D01*
X324570Y219792D02*
Y267156D01*
X328206Y270792D01*
X344433Y572047D02*
X361417D01*
X339777Y576704D02*
X344433Y572047D01*
X311585Y576704D02*
X339777D01*
X306535Y571654D02*
X311585Y576704D01*
X303150Y538976D02*
Y567898D01*
X306535Y571283D02*
Y571654D01*
X303150Y567898D02*
X306535Y571283D01*
X278740Y435827D02*
X284646Y429921D01*
X293307D01*
X256693Y265354D02*
X256755Y265292D01*
X269070D01*
X179134Y547638D02*
Y555827D01*
X194567Y571260D01*
X187209Y481048D02*
X205851D01*
X172441Y360315D02*
X173071Y359685D01*
X186772D02*
X187402Y359055D01*
X173071Y359685D02*
X186772D01*
X418682Y429921D02*
X436213Y447453D01*
X352362Y429921D02*
X418682D01*
X327862Y454421D02*
X352362Y429921D01*
X258913Y454421D02*
X327862D01*
X250441Y445948D02*
X258913Y454421D01*
X185559Y445948D02*
X250441D01*
X174862Y456646D02*
X185559Y445948D01*
X266079Y135583D02*
X273820Y143324D01*
X270630Y112686D02*
X275820Y117876D01*
X270630Y79921D02*
Y112686D01*
X190945Y36614D02*
X245988Y91658D01*
Y122551D01*
X267706Y190292D02*
X270434D01*
X273570Y193428D01*
Y197156D01*
X269934Y200792D02*
X273570Y197156D01*
X269934Y200792D02*
Y204428D01*
X269070Y205292D02*
X269934Y204428D01*
X268745Y75370D02*
X339523D01*
X237476Y131063D02*
X245988Y122551D01*
X237476Y131063D02*
Y160063D01*
X267706Y190292D01*
X266079Y78036D02*
Y135583D01*
X270559Y220167D02*
X275820Y214906D01*
Y117876D02*
Y214906D01*
X383071Y36220D02*
Y91806D01*
X362787Y112091D02*
X383071Y91806D01*
X359261Y112091D02*
X362787D01*
X343087Y95916D02*
X359261Y112091D01*
X343087Y78934D02*
Y95916D01*
X339523Y75370D02*
X343087Y78934D01*
X273820Y143324D02*
Y147259D01*
X272267Y148812D02*
X273820Y147259D01*
X272267Y152126D02*
X273570Y153428D01*
Y157156D01*
X272091Y158635D02*
X273570Y157156D01*
X272091Y158635D02*
Y161949D01*
X273570Y163428D01*
Y167156D01*
X272091Y168635D02*
X273570Y167156D01*
X272091Y168635D02*
Y171949D01*
X273570Y173428D01*
Y180792D01*
X269644Y184717D02*
X273570Y180792D01*
X269533Y184717D02*
X269644D01*
X266079Y78036D02*
X268745Y75370D01*
X272267Y148812D02*
Y152126D01*
X269070Y185180D02*
Y185292D01*
Y185180D02*
X269533Y184717D01*
X337638Y79921D02*
Y154845D01*
X332691Y159792D02*
X337638Y154845D01*
X234047Y330315D02*
X269070Y295292D01*
X172441Y330315D02*
X234047D01*
X241732Y137441D02*
X260630Y118543D01*
Y79921D02*
Y118543D01*
X269070Y255292D02*
X273570Y250792D01*
Y233428D02*
Y250792D01*
X270434Y230292D02*
X273570Y233428D01*
X267706Y230292D02*
X270434D01*
X264570Y227156D02*
X267706Y230292D01*
X264570Y223428D02*
Y227156D01*
Y223428D02*
X267831Y220167D01*
X270559D01*
X299116Y188882D02*
X328206Y159792D01*
X332691D01*
X299116Y188882D02*
Y195246D01*
X269070Y225292D02*
X299116Y195246D01*
X347638Y79921D02*
X361024Y93307D01*
Y107835D01*
X224014Y190236D02*
X269070Y235292D01*
X216929Y190236D02*
X224014D01*
X224171Y200394D02*
X269070Y245292D01*
X217087Y200394D02*
X224171D01*
X216929Y200236D02*
X217087Y200394D01*
X142042Y133763D02*
X188515Y180236D01*
X118061Y133763D02*
X142042D01*
X188515Y180236D02*
X216929D01*
X216417Y240748D02*
X216929Y240236D01*
X80709Y241260D02*
X81221Y240748D01*
X79646D02*
X216417D01*
Y230748D02*
X216929Y230236D01*
X80709Y231260D02*
X81221Y230748D01*
X79646D02*
X216417D01*
X80709Y221260D02*
X81221Y220748D01*
X79646D02*
X216417D01*
X216929Y220236D01*
X212429Y214736D02*
X216929Y210236D01*
X79134Y211260D02*
X97902D01*
X101378Y214736D01*
X212429D01*
X97902Y201260D02*
X101378Y204736D01*
X212429D01*
X79134Y201260D02*
X97902D01*
X212429Y204736D02*
X216929Y200236D01*
X101378Y194736D02*
X212429D01*
X216929Y190236D01*
X79134Y191260D02*
X97902D01*
X101378Y194736D01*
X441863Y414103D02*
Y489704D01*
X436213Y408453D02*
X441863Y414103D01*
X436772Y494796D02*
X441863Y489704D01*
X293307Y439921D02*
X293585Y439643D01*
Y436007D02*
Y439643D01*
X249843Y571260D02*
X264409Y585827D01*
X412992D01*
X416772Y582047D01*
Y572047D02*
Y582047D01*
X381417Y572047D02*
X393761Y559703D01*
Y502912D02*
Y559703D01*
X244793Y576310D02*
X249843Y571260D01*
X143869Y576310D02*
X244793D01*
X138425Y570866D02*
X143869Y576310D01*
X96705Y448656D02*
X102355Y443006D01*
Y411996D02*
Y443006D01*
X245669Y451598D02*
Y540158D01*
X214567Y571260D02*
X245669Y540158D01*
X436772Y494796D02*
Y572047D01*
X416311Y248988D02*
Y252888D01*
X395958Y233292D02*
X408190Y245524D01*
X412847D02*
X416311Y248988D01*
X408190Y245524D02*
X412847D01*
X362575Y235292D02*
X378306Y251024D01*
X411811D01*
X337070Y233292D02*
X395958D01*
X412675Y256524D02*
X416311Y252888D01*
X329070Y185292D02*
X396991D01*
X324570Y219792D02*
X329070Y215292D01*
Y235292D02*
X362575D01*
X329070Y225292D02*
X337070Y233292D01*
X412675Y256524D02*
Y260160D01*
X411811Y261024D02*
X412675Y260160D01*
D16*
X251969Y35827D02*
D03*
X218504Y36614D02*
D03*
X190945D02*
D03*
X355118Y36220D02*
D03*
X383071D02*
D03*
D17*
X102355Y450996D02*
D03*
X115755D02*
D03*
Y411996D02*
D03*
X436213Y447453D02*
D03*
X449613D02*
D03*
Y408453D02*
D03*
X232269Y451598D02*
D03*
Y412598D02*
D03*
X245669D02*
D03*
D18*
X102355Y411996D02*
D03*
X436213Y408453D02*
D03*
X245669Y451598D02*
D03*
D26*
X187209Y481048D02*
D03*
X351969Y351969D02*
D03*
D27*
X167524Y481048D02*
D03*
D28*
X269070Y155292D02*
D03*
Y165292D02*
D03*
Y175292D02*
D03*
Y185292D02*
D03*
Y195292D02*
D03*
Y205292D02*
D03*
Y215292D02*
D03*
Y225292D02*
D03*
Y235292D02*
D03*
Y245292D02*
D03*
Y255292D02*
D03*
Y265292D02*
D03*
Y275292D02*
D03*
Y285292D02*
D03*
Y295292D02*
D03*
X329070D02*
D03*
Y285292D02*
D03*
Y275292D02*
D03*
Y265292D02*
D03*
Y255292D02*
D03*
Y245292D02*
D03*
Y235292D02*
D03*
Y225292D02*
D03*
Y215292D02*
D03*
Y205292D02*
D03*
Y195292D02*
D03*
Y185292D02*
D03*
Y175292D02*
D03*
Y165292D02*
D03*
X472441Y325984D02*
D03*
X393406D02*
D03*
Y345984D02*
D03*
Y335984D02*
D03*
X472441Y346063D02*
D03*
X457874Y118268D02*
D03*
X398819Y108268D02*
D03*
Y118268D02*
D03*
Y128268D02*
D03*
X457874Y108268D02*
D03*
X352362Y439921D02*
D03*
X293307Y429921D02*
D03*
Y439921D02*
D03*
Y449921D02*
D03*
X352362Y429921D02*
D03*
X411811Y281024D02*
D03*
Y271024D02*
D03*
Y261024D02*
D03*
Y251024D02*
D03*
X172441Y350315D02*
D03*
Y360315D02*
D03*
Y340315D02*
D03*
Y330315D02*
D03*
Y320315D02*
D03*
X80709Y181260D02*
D03*
Y191260D02*
D03*
Y201260D02*
D03*
Y221260D02*
D03*
Y231260D02*
D03*
Y251260D02*
D03*
Y241260D02*
D03*
Y211260D02*
D03*
X216929Y180236D02*
D03*
Y190236D02*
D03*
Y200236D02*
D03*
Y210236D02*
D03*
Y220236D02*
D03*
Y230236D02*
D03*
X116929Y210236D02*
D03*
Y200236D02*
D03*
Y190236D02*
D03*
Y180236D02*
D03*
Y170236D02*
D03*
X216929Y250236D02*
D03*
Y240236D02*
D03*
D32*
X326535Y571654D02*
D03*
X306535D02*
D03*
X361417Y572047D02*
D03*
X381417D02*
D03*
X416772Y572047D02*
D03*
X436772D02*
D03*
X249843Y571260D02*
D03*
X269843D02*
D03*
X138425Y570866D02*
D03*
X158425D02*
D03*
X194567Y571260D02*
D03*
X214567D02*
D03*
D33*
X351969Y332283D02*
D03*
D36*
X519291Y15354D02*
D03*
X520472Y577953D02*
D03*
X53543D02*
D03*
Y15354D02*
D03*
D37*
X286614Y498819D02*
D03*
X245669Y499255D02*
D03*
X393761Y518926D02*
D03*
X328740Y499606D02*
D03*
X148031Y329921D02*
D03*
X407480Y188976D02*
D03*
D38*
X329070Y305292D02*
D03*
X269070D02*
D03*
Y145292D02*
D03*
X329070D02*
D03*
D39*
Y155292D02*
D03*
D40*
X363761Y502912D02*
D03*
X393761D02*
D03*
X361024Y137835D02*
D03*
Y107835D02*
D03*
X241732Y137441D02*
D03*
Y107441D02*
D03*
X148061Y133763D02*
D03*
X118061D02*
D03*
D41*
X347638Y79921D02*
D03*
X260630D02*
D03*
D42*
X337638D02*
D03*
X270630D02*
D03*
D43*
X411811Y241024D02*
D03*
X172441Y370315D02*
D03*
X80709Y171260D02*
D03*
X216929Y170236D02*
D03*
D44*
X417480Y174803D02*
D03*
X407480D02*
D03*
D45*
X397480D02*
D03*
D46*
X365354Y280354D02*
D03*
Y250354D02*
D03*
X191772Y431496D02*
D03*
X161772D02*
D03*
D47*
Y418223D02*
D03*
X358724Y27130D02*
D03*
X174382Y107441D02*
D03*
X412159Y161517D02*
D03*
X385084Y270084D02*
D03*
X378771Y351969D02*
D03*
X303150Y538976D02*
D03*
X278740Y435827D02*
D03*
X256755Y265292D02*
D03*
X179134Y547638D02*
D03*
X205878Y481075D02*
D03*
X187402Y359055D02*
D03*
M02*
