M48
;Layer_Color=9474304
;FILE_FORMAT=2:5
INCH,LZ
;TYPE=PLATED
T1F00S00C0.02756
T2F00S00C0.02800
T3F00S00C0.03346
T4F00S00C0.03400
T5F00S00C0.03543
T6F00S00C0.03800
T7F00S00C0.04000
T8F00S00C0.04500
T9F00S00C0.04724
T10F00S00C0.04921
T11F00S00C0.05100
T12F00S00C0.06300
T13F00S00C0.12500
;TYPE=NON_PLATED
T14F00S00C0.06500
%
T01
X0365354Y0250354
Y0280354
X0191772Y0431496
X0161772
T02
X0285433Y0086158
X0358724Y002713
X0412159Y0161517
X0214961Y0078347
X0256755Y0265292
X0385084Y0270084
X0378771Y0351969
X027874Y0435827
X0205878Y0481075
X0161772Y0418223
X0156693Y0341732
X0179134Y0547638
X030315Y0538976
T03
X0361024Y0107835
Y0137835
X0252362Y0169646
X0202756Y0067716
X0172756
X0252362Y0199646
X0363761Y0502912
X0393761
T04
X0271Y0081606
X0337Y0079606
X0347
X0261Y0081606
X0351969Y0332283
Y0351969
X0187209Y0481048
X0167524
T05
X039748Y0174803
X040748
X041748
T06
X0355118Y003622
X0379528Y0036614
X0251969Y0035827
X0218504Y0036614
X0190945
T07
X026907Y0155292
Y0165292
Y0175292
X032907
Y0165292
Y0155292
X0224016Y0155748
Y0165748
Y0175748
Y0145748
Y0135748
Y0125748
Y0115748
Y0105748
X0124016
Y0115748
Y0125748
Y0135748
Y0145748
X008374Y0145512
Y0135512
Y0125512
Y0115512
Y0105512
Y0155512
Y0165512
Y0175512
Y0185512
X0224016Y0185748
X0169291Y0302284
Y0312283
Y0322284
Y0332283
X026907Y0295292
Y0285292
Y0275292
Y0265292
Y0255292
Y0245292
Y0235292
Y0225292
Y0215292
Y0205292
Y0195292
Y0185292
X032907
Y0195292
Y0205292
Y0215292
Y0225292
Y0235292
Y0245292
Y0255292
Y0265292
Y0275292
Y0285292
Y0295292
X0411811Y0281024
Y0271024
Y0261024
Y0251024
Y0241024
X0169291Y0342284
Y0352284
T08
X0192397Y0332441
X040748Y0188976
X0245669Y0499255
X0286614Y0498819
X032874Y0499606
X0393761Y0518926
T09
X0457874Y0108268
Y0118268
X0398819
Y0108268
Y0128268
X0352362Y0429921
Y0439921
X0293307
Y0429921
Y0449921
T10
X042Y0348
Y0368079
X0499035
Y0358079
Y0348079
T11
X0138425Y0570866
X0158425
X0194567Y057126
X0214567
X0249843Y057126
X0269843
X0306535Y0571654
X0326535
X0361417Y0572047
X0381417
X0416772Y0572047
X0436772
T12
X0436213Y0408453
X0449613
Y0447453
X0436213
X0245669Y0451598
X0232269
Y0412598
X0245669
X0115755Y0411996
Y0450996
X0102355
Y0411996
T13
X0053543Y0015354
X0519291
X0053543Y0577953
X0520472
T14
X026907Y0145292
X032907
Y0305292
X026907
M30
